<ttFont>
    <TTGlyph name=".ttfautohint" xMin="0" yMin="0" xMax="0" yMax="0">
      <contour>
        <pt x="0" y="0" on="1"/>
      </contour>
    </TTGlyph>
    <TTGlyph name="A" xMin="0" yMin="0" xMax="586" yMax="624">
      <contour>
        <pt x="203" y="33" on="1"/>
        <pt x="203" y="0" on="1"/>
        <pt x="0" y="0" on="1"/>
        <pt x="0" y="33" on="1"/>
        <pt x="72" y="52" on="1"/>
        <pt x="259" y="611" on="1"/>
        <pt x="317" y="624" on="1"/>
        <pt x="514" y="52" on="1"/>
        <pt x="586" y="33" on="1"/>
        <pt x="586" y="0" on="1"/>
        <pt x="369" y="0" on="1"/>
        <pt x="369" y="33" on="1"/>
        <pt x="429" y="50" on="1"/>
        <pt x="393" y="152" on="1"/>
        <pt x="164" y="152" on="1"/>
        <pt x="131" y="52" on="1"/>
      </contour>
      <contour>
        <pt x="178" y="198" on="1"/>
        <pt x="378" y="198" on="1"/>
        <pt x="276" y="492" on="1"/>
      </contour>
    </TTGlyph>
    <TTGlyph name="AE" xMin="-14" yMin="0" xMax="697" yMax="611">
      <contour>
        <pt x="-14" y="33" on="1"/>
        <pt x="58" y="53" on="1"/>
        <pt x="327" y="564" on="1"/>
        <pt x="260" y="578" on="1"/>
        <pt x="260" y="611" on="1"/>
        <pt x="660" y="611" on="1"/>
        <pt x="660" y="479" on="1"/>
        <pt x="621" y="479" on="1"/>
        <pt x="600" y="559" on="1"/>
        <pt x="437" y="559" on="1"/>
        <pt x="454" y="310" on="1"/>
        <pt x="559" y="310" on="1"/>
        <pt x="580" y="376" on="1"/>
        <pt x="617" y="376" on="1"/>
        <pt x="617" y="194" on="1"/>
        <pt x="580" y="194" on="1"/>
        <pt x="557" y="263" on="1"/>
        <pt x="457" y="263" on="1"/>
        <pt x="471" y="56" on="1"/>
        <pt x="632" y="56" on="1"/>
        <pt x="658" y="147" on="1"/>
        <pt x="697" y="147" on="1"/>
        <pt x="697" y="0" on="1"/>
        <pt x="297" y="0" on="1"/>
        <pt x="297" y="33" on="1"/>
        <pt x="390" y="53" on="1"/>
        <pt x="376" y="263" on="1"/>
        <pt x="229" y="263" on="1"/>
        <pt x="121" y="53" on="1"/>
        <pt x="190" y="34" on="1"/>
        <pt x="190" y="0" on="1"/>
        <pt x="-14" y="0" on="1"/>
      </contour>
      <contour>
        <pt x="373" y="310" on="1"/>
        <pt x="359" y="515" on="1"/>
        <pt x="253" y="310" on="1"/>
      </contour>
    </TTGlyph>
    <TTGlyph name="AEacute" xMin="-14" yMin="0" xMax="697" yMax="799">
      <component glyphName=".ttfautohint" x="0" y="0" flags="0x0"/>
      <component glyphName="AE" x="0" y="0" flags="0x0"/>
      <component glyphName="acutecomb" x="549" y="0" flags="0x0"/>
    </TTGlyph>
    <TTGlyph name="Aacute" xMin="0" yMin="0" xMax="586" yMax="799">
      <contour>
        <pt x="198" y="669" on="1"/>
        <pt x="352" y="799" on="1"/>
        <pt x="428" y="771" on="1"/>
        <pt x="428" y="753" on="1"/>
        <pt x="214" y="650" on="1"/>
      </contour>
      <contour>
        <pt x="203" y="33" on="1"/>
        <pt x="203" y="0" on="1"/>
        <pt x="0" y="0" on="1"/>
        <pt x="0" y="33" on="1"/>
        <pt x="72" y="52" on="1"/>
        <pt x="259" y="611" on="1"/>
        <pt x="317" y="624" on="1"/>
        <pt x="514" y="52" on="1"/>
        <pt x="586" y="33" on="1"/>
        <pt x="586" y="0" on="1"/>
        <pt x="369" y="0" on="1"/>
        <pt x="369" y="33" on="1"/>
        <pt x="429" y="50" on="1"/>
        <pt x="393" y="152" on="1"/>
        <pt x="164" y="152" on="1"/>
        <pt x="131" y="52" on="1"/>
      </contour>
      <contour>
        <pt x="178" y="198" on="1"/>
        <pt x="378" y="198" on="1"/>
        <pt x="276" y="492" on="1"/>
      </contour>
    </TTGlyph>
    <TTGlyph name="Abreve" xMin="0" yMin="0" xMax="586" yMax="781">
      <contour>
        <pt x="231" y="665" on="0"/>
        <pt x="177" y="728" on="0"/>
        <pt x="177" y="779" on="1"/>
        <pt x="211" y="781" on="1"/>
        <pt x="211" y="753" on="0"/>
        <pt x="246" y="719" on="0"/>
        <pt x="293" y="719" on="1"/>
        <pt x="341" y="719" on="0"/>
        <pt x="378" y="753" on="0"/>
        <pt x="378" y="781" on="1"/>
        <pt x="411" y="779" on="1"/>
        <pt x="411" y="665" on="0"/>
        <pt x="295" y="665" on="1"/>
      </contour>
      <contour>
        <pt x="203" y="33" on="1"/>
        <pt x="203" y="0" on="1"/>
        <pt x="0" y="0" on="1"/>
        <pt x="0" y="33" on="1"/>
        <pt x="72" y="52" on="1"/>
        <pt x="259" y="611" on="1"/>
        <pt x="317" y="624" on="1"/>
        <pt x="514" y="52" on="1"/>
        <pt x="586" y="33" on="1"/>
        <pt x="586" y="0" on="1"/>
        <pt x="369" y="0" on="1"/>
        <pt x="369" y="33" on="1"/>
        <pt x="429" y="50" on="1"/>
        <pt x="393" y="152" on="1"/>
        <pt x="164" y="152" on="1"/>
        <pt x="131" y="52" on="1"/>
      </contour>
      <contour>
        <pt x="178" y="198" on="1"/>
        <pt x="378" y="198" on="1"/>
        <pt x="276" y="492" on="1"/>
      </contour>
    </TTGlyph>
    <TTGlyph name="Acircumflex" xMin="0" yMin="0" xMax="586" yMax="800">
      <contour>
        <pt x="282" y="733" on="1"/>
        <pt x="171" y="651" on="1"/>
        <pt x="154" y="669" on="1"/>
        <pt x="254" y="800" on="1"/>
        <pt x="314" y="800" on="1"/>
        <pt x="416" y="669" on="1"/>
        <pt x="398" y="651" on="1"/>
      </contour>
      <contour>
        <pt x="203" y="33" on="1"/>
        <pt x="203" y="0" on="1"/>
        <pt x="0" y="0" on="1"/>
        <pt x="0" y="33" on="1"/>
        <pt x="72" y="52" on="1"/>
        <pt x="259" y="611" on="1"/>
        <pt x="317" y="624" on="1"/>
        <pt x="514" y="52" on="1"/>
        <pt x="586" y="33" on="1"/>
        <pt x="586" y="0" on="1"/>
        <pt x="369" y="0" on="1"/>
        <pt x="369" y="33" on="1"/>
        <pt x="429" y="50" on="1"/>
        <pt x="393" y="152" on="1"/>
        <pt x="164" y="152" on="1"/>
        <pt x="131" y="52" on="1"/>
      </contour>
      <contour>
        <pt x="178" y="198" on="1"/>
        <pt x="378" y="198" on="1"/>
        <pt x="276" y="492" on="1"/>
      </contour>
    </TTGlyph>
    <TTGlyph name="Adieresis" xMin="0" yMin="0" xMax="586" yMax="780">
      <contour>
        <pt x="246" y="700" on="0"/>
        <pt x="212" y="667" on="0"/>
        <pt x="189" y="667" on="1"/>
        <pt x="166" y="667" on="0"/>
        <pt x="132" y="700" on="0"/>
        <pt x="132" y="722" on="1"/>
        <pt x="132" y="746" on="0"/>
        <pt x="166" y="780" on="0"/>
        <pt x="189" y="780" on="1"/>
        <pt x="212" y="780" on="0"/>
        <pt x="246" y="746" on="0"/>
        <pt x="246" y="722" on="1"/>
      </contour>
      <contour>
        <pt x="441" y="700" on="0"/>
        <pt x="406" y="667" on="0"/>
        <pt x="383" y="667" on="1"/>
        <pt x="360" y="667" on="0"/>
        <pt x="326" y="700" on="0"/>
        <pt x="326" y="722" on="1"/>
        <pt x="326" y="746" on="0"/>
        <pt x="360" y="780" on="0"/>
        <pt x="383" y="780" on="1"/>
        <pt x="406" y="780" on="0"/>
        <pt x="441" y="746" on="0"/>
        <pt x="441" y="722" on="1"/>
      </contour>
      <contour>
        <pt x="203" y="33" on="1"/>
        <pt x="203" y="0" on="1"/>
        <pt x="0" y="0" on="1"/>
        <pt x="0" y="33" on="1"/>
        <pt x="72" y="52" on="1"/>
        <pt x="259" y="611" on="1"/>
        <pt x="317" y="624" on="1"/>
        <pt x="514" y="52" on="1"/>
        <pt x="586" y="33" on="1"/>
        <pt x="586" y="0" on="1"/>
        <pt x="369" y="0" on="1"/>
        <pt x="369" y="33" on="1"/>
        <pt x="429" y="50" on="1"/>
        <pt x="393" y="152" on="1"/>
        <pt x="164" y="152" on="1"/>
        <pt x="131" y="52" on="1"/>
      </contour>
      <contour>
        <pt x="178" y="198" on="1"/>
        <pt x="378" y="198" on="1"/>
        <pt x="276" y="492" on="1"/>
      </contour>
    </TTGlyph>
    <TTGlyph name="Agrave" xMin="0" yMin="0" xMax="586" yMax="797">
      <contour>
        <pt x="146" y="751" on="1"/>
        <pt x="146" y="769" on="1"/>
        <pt x="223" y="797" on="1"/>
        <pt x="376" y="667" on="1"/>
        <pt x="362" y="648" on="1"/>
      </contour>
      <contour>
        <pt x="203" y="33" on="1"/>
        <pt x="203" y="0" on="1"/>
        <pt x="0" y="0" on="1"/>
        <pt x="0" y="33" on="1"/>
        <pt x="72" y="52" on="1"/>
        <pt x="259" y="611" on="1"/>
        <pt x="317" y="624" on="1"/>
        <pt x="514" y="52" on="1"/>
        <pt x="586" y="33" on="1"/>
        <pt x="586" y="0" on="1"/>
        <pt x="369" y="0" on="1"/>
        <pt x="369" y="33" on="1"/>
        <pt x="429" y="50" on="1"/>
        <pt x="393" y="152" on="1"/>
        <pt x="164" y="152" on="1"/>
        <pt x="131" y="52" on="1"/>
      </contour>
      <contour>
        <pt x="178" y="198" on="1"/>
        <pt x="378" y="198" on="1"/>
        <pt x="276" y="492" on="1"/>
      </contour>
    </TTGlyph>
    <TTGlyph name="Amacron" xMin="0" yMin="0" xMax="586" yMax="749">
      <contour>
        <pt x="399" y="749" on="1"/>
        <pt x="399" y="697" on="1"/>
        <pt x="182" y="697" on="1"/>
        <pt x="182" y="749" on="1"/>
      </contour>
      <contour>
        <pt x="203" y="33" on="1"/>
        <pt x="203" y="0" on="1"/>
        <pt x="0" y="0" on="1"/>
        <pt x="0" y="33" on="1"/>
        <pt x="72" y="52" on="1"/>
        <pt x="259" y="611" on="1"/>
        <pt x="317" y="624" on="1"/>
        <pt x="514" y="52" on="1"/>
        <pt x="586" y="33" on="1"/>
        <pt x="586" y="0" on="1"/>
        <pt x="369" y="0" on="1"/>
        <pt x="369" y="33" on="1"/>
        <pt x="429" y="50" on="1"/>
        <pt x="393" y="152" on="1"/>
        <pt x="164" y="152" on="1"/>
        <pt x="131" y="52" on="1"/>
      </contour>
      <contour>
        <pt x="178" y="198" on="1"/>
        <pt x="378" y="198" on="1"/>
        <pt x="276" y="492" on="1"/>
      </contour>
    </TTGlyph>
    <TTGlyph name="Aogonek" xMin="0" yMin="-236" xMax="594" yMax="624">
      <contour>
        <pt x="0" y="33" on="1"/>
        <pt x="72" y="53" on="1"/>
        <pt x="259" y="611" on="1"/>
        <pt x="320" y="624" on="1"/>
        <pt x="522" y="52" on="1"/>
        <pt x="594" y="33" on="1"/>
        <pt x="594" y="0" on="1"/>
        <pt x="468" y="0" on="1"/>
        <pt x="437" y="0" on="0"/>
        <pt x="388" y="-41" on="0"/>
        <pt x="362" y="-99" on="0"/>
        <pt x="362" y="-125" on="1"/>
        <pt x="362" y="-158" on="0"/>
        <pt x="393" y="-193" on="0"/>
        <pt x="417" y="-193" on="1"/>
        <pt x="445" y="-193" on="0"/>
        <pt x="467" y="-170" on="1"/>
        <pt x="483" y="-186" on="1"/>
        <pt x="483" y="-188" on="0"/>
        <pt x="459" y="-214" on="0"/>
        <pt x="417" y="-236" on="0"/>
        <pt x="389" y="-236" on="1"/>
        <pt x="343" y="-236" on="0"/>
        <pt x="297" y="-185" on="0"/>
        <pt x="297" y="-151" on="1"/>
        <pt x="297" y="-105" on="0"/>
        <pt x="343" y="-38" on="0"/>
        <pt x="383" y="0" on="1"/>
        <pt x="404" y="20" on="0"/>
        <pt x="424" y="45" on="0"/>
        <pt x="424" y="56" on="1"/>
        <pt x="424" y="62" on="0"/>
        <pt x="421" y="72" on="1"/>
        <pt x="393" y="152" on="1"/>
        <pt x="168" y="152" on="1"/>
        <pt x="136" y="53" on="1"/>
        <pt x="207" y="33" on="1"/>
        <pt x="207" y="0" on="1"/>
        <pt x="0" y="0" on="1"/>
      </contour>
      <contour>
        <pt x="182" y="198" on="1"/>
        <pt x="378" y="198" on="1"/>
        <pt x="278" y="488" on="1"/>
      </contour>
    </TTGlyph>
    <TTGlyph name="Aring" xMin="0" yMin="0" xMax="586" yMax="822">
      <contour>
        <pt x="240" y="633" on="0"/>
        <pt x="187" y="686" on="0"/>
        <pt x="187" y="728" on="1"/>
        <pt x="187" y="769" on="0"/>
        <pt x="240" y="822" on="0"/>
        <pt x="288" y="822" on="1"/>
        <pt x="336" y="822" on="0"/>
        <pt x="388" y="769" on="0"/>
        <pt x="388" y="728" on="1"/>
        <pt x="388" y="686" on="0"/>
        <pt x="336" y="633" on="0"/>
        <pt x="288" y="633" on="1"/>
      </contour>
      <contour>
        <pt x="319" y="668" on="0"/>
        <pt x="339" y="698" on="0"/>
        <pt x="339" y="728" on="1"/>
        <pt x="339" y="757" on="0"/>
        <pt x="319" y="788" on="0"/>
        <pt x="288" y="788" on="1"/>
        <pt x="258" y="788" on="0"/>
        <pt x="237" y="757" on="0"/>
        <pt x="237" y="728" on="1"/>
        <pt x="237" y="698" on="0"/>
        <pt x="258" y="668" on="0"/>
        <pt x="288" y="668" on="1"/>
      </contour>
      <contour>
        <pt x="0" y="33" on="1"/>
        <pt x="72" y="52" on="1"/>
        <pt x="259" y="611" on="1"/>
        <pt x="317" y="624" on="1"/>
        <pt x="514" y="52" on="1"/>
        <pt x="586" y="33" on="1"/>
        <pt x="586" y="0" on="1"/>
        <pt x="369" y="0" on="1"/>
        <pt x="369" y="33" on="1"/>
        <pt x="429" y="50" on="1"/>
        <pt x="393" y="152" on="1"/>
        <pt x="164" y="152" on="1"/>
        <pt x="131" y="52" on="1"/>
        <pt x="203" y="33" on="1"/>
        <pt x="203" y="0" on="1"/>
        <pt x="0" y="0" on="1"/>
      </contour>
      <contour>
        <pt x="378" y="198" on="1"/>
        <pt x="276" y="492" on="1"/>
        <pt x="178" y="198" on="1"/>
      </contour>
    </TTGlyph>
    <TTGlyph name="Aringacute" xMin="0" yMin="0" xMax="586" yMax="980">
      <component glyphName=".ttfautohint" x="0" y="0" flags="0x0"/>
      <component glyphName="A" x="0" y="0" flags="0x0"/>
      <component glyphName="uni030A" x="424" y="0" flags="0x0"/>
      <component glyphName="acutecomb" x="480" y="181" flags="0x4"/>
    </TTGlyph>
    <TTGlyph name="Atilde" xMin="0" yMin="0" xMax="586" yMax="779">
      <contour>
        <pt x="417" y="716" on="0"/>
        <pt x="385" y="669" on="0"/>
        <pt x="363" y="669" on="1"/>
        <pt x="345" y="669" on="0"/>
        <pt x="291" y="689" on="1"/>
        <pt x="237" y="709" on="0"/>
        <pt x="221" y="709" on="1"/>
        <pt x="211" y="709" on="0"/>
        <pt x="191" y="693" on="0"/>
        <pt x="178" y="676" on="0"/>
        <pt x="176" y="673" on="1"/>
        <pt x="146" y="685" on="1"/>
        <pt x="165" y="732" on="0"/>
        <pt x="198" y="779" on="0"/>
        <pt x="220" y="779" on="1"/>
        <pt x="231" y="779" on="0"/>
        <pt x="270" y="767" on="0"/>
        <pt x="290" y="759" on="1"/>
        <pt x="310" y="751" on="0"/>
        <pt x="350" y="739" on="0"/>
        <pt x="362" y="739" on="1"/>
        <pt x="372" y="739" on="0"/>
        <pt x="391" y="755" on="0"/>
        <pt x="404" y="771" on="0"/>
        <pt x="405" y="774" on="1"/>
        <pt x="436" y="762" on="1"/>
      </contour>
      <contour>
        <pt x="203" y="33" on="1"/>
        <pt x="203" y="0" on="1"/>
        <pt x="0" y="0" on="1"/>
        <pt x="0" y="33" on="1"/>
        <pt x="72" y="52" on="1"/>
        <pt x="259" y="611" on="1"/>
        <pt x="317" y="624" on="1"/>
        <pt x="514" y="52" on="1"/>
        <pt x="586" y="33" on="1"/>
        <pt x="586" y="0" on="1"/>
        <pt x="369" y="0" on="1"/>
        <pt x="369" y="33" on="1"/>
        <pt x="429" y="50" on="1"/>
        <pt x="393" y="152" on="1"/>
        <pt x="164" y="152" on="1"/>
        <pt x="131" y="52" on="1"/>
      </contour>
      <contour>
        <pt x="178" y="198" on="1"/>
        <pt x="378" y="198" on="1"/>
        <pt x="276" y="492" on="1"/>
      </contour>
    </TTGlyph>
    <TTGlyph name="B" xMin="38" yMin="0" xMax="503" yMax="611">
      <contour>
        <pt x="503" y="292" on="0"/>
        <pt x="503" y="169" on="1"/>
        <pt x="503" y="93" on="0"/>
        <pt x="385" y="0" on="0"/>
        <pt x="283" y="0" on="1"/>
        <pt x="38" y="0" on="1"/>
        <pt x="38" y="33" on="1"/>
        <pt x="128" y="53" on="1"/>
        <pt x="128" y="558" on="1"/>
        <pt x="38" y="578" on="1"/>
        <pt x="38" y="611" on="1"/>
        <pt x="277" y="611" on="1"/>
        <pt x="383" y="611" on="0"/>
        <pt x="482" y="532" on="0"/>
        <pt x="482" y="466" on="1"/>
        <pt x="482" y="407" on="0"/>
        <pt x="415" y="335" on="0"/>
        <pt x="350" y="323" on="1"/>
      </contour>
      <contour>
        <pt x="323" y="340" on="0"/>
        <pt x="396" y="398" on="0"/>
        <pt x="396" y="457" on="1"/>
        <pt x="396" y="512" on="0"/>
        <pt x="327" y="568" on="0"/>
        <pt x="273" y="568" on="1"/>
        <pt x="249" y="568" on="0"/>
        <pt x="211" y="559" on="1"/>
        <pt x="211" y="340" on="1"/>
        <pt x="258" y="340" on="1"/>
      </contour>
      <contour>
        <pt x="238" y="41" on="0"/>
        <pt x="271" y="41" on="1"/>
        <pt x="334" y="41" on="0"/>
        <pt x="414" y="105" on="0"/>
        <pt x="414" y="174" on="1"/>
        <pt x="414" y="236" on="0"/>
        <pt x="331" y="299" on="0"/>
        <pt x="252" y="299" on="1"/>
        <pt x="211" y="299" on="1"/>
        <pt x="211" y="49" on="1"/>
      </contour>
    </TTGlyph>
    <TTGlyph name="C" xMin="41" yMin="-9" xMax="502" yMax="627">
      <contour>
        <pt x="459" y="7" on="0"/>
        <pt x="378" y="-9" on="0"/>
        <pt x="324" y="-9" on="1"/>
        <pt x="180" y="-9" on="0"/>
        <pt x="41" y="168" on="0"/>
        <pt x="41" y="309" on="1"/>
        <pt x="41" y="451" on="0"/>
        <pt x="179" y="627" on="0"/>
        <pt x="324" y="627" on="1"/>
        <pt x="380" y="627" on="0"/>
        <pt x="456" y="612" on="0"/>
        <pt x="502" y="597" on="1"/>
        <pt x="493" y="470" on="1"/>
        <pt x="457" y="470" on="1"/>
        <pt x="432" y="567" on="1"/>
        <pt x="379" y="578" on="0"/>
        <pt x="340" y="578" on="1"/>
        <pt x="131" y="578" on="0"/>
        <pt x="131" y="309" on="1"/>
        <pt x="131" y="196" on="0"/>
        <pt x="228" y="39" on="0"/>
        <pt x="337" y="39" on="1"/>
        <pt x="384" y="39" on="0"/>
        <pt x="432" y="54" on="1"/>
        <pt x="457" y="138" on="1"/>
        <pt x="494" y="138" on="1"/>
        <pt x="502" y="23" on="1"/>
      </contour>
    </TTGlyph>
    <TTGlyph name="Cacute" xMin="41" yMin="-9" xMax="502" yMax="799">
      <contour>
        <pt x="211" y="669" on="1"/>
        <pt x="365" y="799" on="1"/>
        <pt x="441" y="771" on="1"/>
        <pt x="441" y="753" on="1"/>
        <pt x="227" y="650" on="1"/>
      </contour>
      <contour>
        <pt x="459" y="7" on="0"/>
        <pt x="378" y="-9" on="0"/>
        <pt x="324" y="-9" on="1"/>
        <pt x="180" y="-9" on="0"/>
        <pt x="41" y="168" on="0"/>
        <pt x="41" y="309" on="1"/>
        <pt x="41" y="451" on="0"/>
        <pt x="179" y="627" on="0"/>
        <pt x="324" y="627" on="1"/>
        <pt x="380" y="627" on="0"/>
        <pt x="456" y="612" on="0"/>
        <pt x="502" y="597" on="1"/>
        <pt x="493" y="470" on="1"/>
        <pt x="457" y="470" on="1"/>
        <pt x="432" y="567" on="1"/>
        <pt x="379" y="578" on="0"/>
        <pt x="340" y="578" on="1"/>
        <pt x="131" y="578" on="0"/>
        <pt x="131" y="309" on="1"/>
        <pt x="131" y="196" on="0"/>
        <pt x="228" y="39" on="0"/>
        <pt x="337" y="39" on="1"/>
        <pt x="384" y="39" on="0"/>
        <pt x="432" y="54" on="1"/>
        <pt x="457" y="138" on="1"/>
        <pt x="494" y="138" on="1"/>
        <pt x="502" y="23" on="1"/>
      </contour>
    </TTGlyph>
    <TTGlyph name="Cacute.loclPLK" xMin="41" yMin="-9" xMax="502" yMax="800">
      <component glyphName=".ttfautohint" x="41" y="0" flags="0x0"/>
      <component glyphName="C" x="0" y="0" flags="0x0"/>
      <component glyphName="acute.loclPLK.case" x="222" y="0" flags="0x0"/>
    </TTGlyph>
    <TTGlyph name="Ccaron" xMin="41" yMin="-9" xMax="502" yMax="800">
      <contour>
        <pt x="182" y="782" on="1"/>
        <pt x="199" y="800" on="1"/>
        <pt x="315" y="718" on="1"/>
        <pt x="426" y="800" on="1"/>
        <pt x="444" y="782" on="1"/>
        <pt x="344" y="651" on="1"/>
        <pt x="284" y="651" on="1"/>
      </contour>
      <contour>
        <pt x="180" y="-9" on="0"/>
        <pt x="41" y="168" on="0"/>
        <pt x="41" y="309" on="1"/>
        <pt x="41" y="451" on="0"/>
        <pt x="179" y="627" on="0"/>
        <pt x="324" y="627" on="1"/>
        <pt x="380" y="627" on="0"/>
        <pt x="456" y="612" on="0"/>
        <pt x="502" y="597" on="1"/>
        <pt x="493" y="470" on="1"/>
        <pt x="457" y="470" on="1"/>
        <pt x="432" y="567" on="1"/>
        <pt x="379" y="578" on="0"/>
        <pt x="340" y="578" on="1"/>
        <pt x="131" y="578" on="0"/>
        <pt x="131" y="309" on="1"/>
        <pt x="131" y="196" on="0"/>
        <pt x="228" y="39" on="0"/>
        <pt x="337" y="39" on="1"/>
        <pt x="384" y="39" on="0"/>
        <pt x="432" y="54" on="1"/>
        <pt x="457" y="138" on="1"/>
        <pt x="494" y="138" on="1"/>
        <pt x="502" y="23" on="1"/>
        <pt x="459" y="7" on="0"/>
        <pt x="378" y="-9" on="0"/>
        <pt x="324" y="-9" on="1"/>
      </contour>
    </TTGlyph>
    <TTGlyph name="Ccedilla" xMin="41" yMin="-219" xMax="502" yMax="627">
      <contour>
        <pt x="317" y="-9" on="1"/>
        <pt x="305" y="-46" on="1"/>
        <pt x="357" y="-46" on="0"/>
        <pt x="412" y="-86" on="0"/>
        <pt x="412" y="-116" on="1"/>
        <pt x="412" y="-144" on="0"/>
        <pt x="375" y="-191" on="0"/>
        <pt x="313" y="-219" on="0"/>
        <pt x="277" y="-219" on="1"/>
        <pt x="248" y="-219" on="0"/>
        <pt x="225" y="-211" on="1"/>
        <pt x="233" y="-186" on="1"/>
        <pt x="253" y="-192" on="0"/>
        <pt x="268" y="-192" on="1"/>
        <pt x="303" y="-192" on="0"/>
        <pt x="347" y="-152" on="0"/>
        <pt x="347" y="-124" on="1"/>
        <pt x="347" y="-103" on="0"/>
        <pt x="310" y="-76" on="0"/>
        <pt x="270" y="-76" on="1"/>
        <pt x="267" y="-67" on="1"/>
        <pt x="287" y="-7" on="1"/>
        <pt x="162" y="4" on="0"/>
        <pt x="41" y="177" on="0"/>
        <pt x="41" y="309" on="1"/>
        <pt x="41" y="451" on="0"/>
        <pt x="179" y="627" on="0"/>
        <pt x="324" y="627" on="1"/>
        <pt x="380" y="627" on="0"/>
        <pt x="456" y="612" on="0"/>
        <pt x="502" y="597" on="1"/>
        <pt x="493" y="470" on="1"/>
        <pt x="457" y="470" on="1"/>
        <pt x="432" y="567" on="1"/>
        <pt x="379" y="578" on="0"/>
        <pt x="340" y="578" on="1"/>
        <pt x="131" y="578" on="0"/>
        <pt x="131" y="309" on="1"/>
        <pt x="131" y="196" on="0"/>
        <pt x="228" y="39" on="0"/>
        <pt x="337" y="39" on="1"/>
        <pt x="384" y="39" on="0"/>
        <pt x="432" y="54" on="1"/>
        <pt x="457" y="138" on="1"/>
        <pt x="494" y="138" on="1"/>
        <pt x="502" y="23" on="1"/>
        <pt x="459" y="7" on="0"/>
        <pt x="378" y="-9" on="0"/>
        <pt x="324" y="-9" on="1"/>
      </contour>
    </TTGlyph>
    <TTGlyph name="Ccircumflex" xMin="41" yMin="-9" xMax="502" yMax="800">
      <component glyphName=".ttfautohint" x="41" y="0" flags="0x0"/>
      <component glyphName="C" x="0" y="0" flags="0x0"/>
      <component glyphName="uni0302" x="454" y="0" flags="0x0"/>
    </TTGlyph>
    <TTGlyph name="Cdotaccent" xMin="41" yMin="-9" xMax="502" yMax="785">
      <component glyphName=".ttfautohint" x="41" y="0" flags="0x0"/>
      <component glyphName="C" x="0" y="0" flags="0x0"/>
      <component glyphName="uni0307" x="454" y="0" flags="0x0"/>
    </TTGlyph>
    <TTGlyph name="D" xMin="38" yMin="0" xMax="598" yMax="611">
      <contour>
        <pt x="455" y="611" on="0"/>
        <pt x="598" y="456" on="0"/>
        <pt x="598" y="318" on="1"/>
        <pt x="598" y="176" on="0"/>
        <pt x="461" y="0" on="0"/>
        <pt x="317" y="0" on="1"/>
        <pt x="38" y="0" on="1"/>
        <pt x="38" y="33" on="1"/>
        <pt x="128" y="53" on="1"/>
        <pt x="128" y="558" on="1"/>
        <pt x="38" y="578" on="1"/>
        <pt x="38" y="611" on="1"/>
        <pt x="300" y="611" on="1"/>
      </contour>
      <contour>
        <pt x="245" y="564" on="0"/>
        <pt x="211" y="558" on="1"/>
        <pt x="211" y="58" on="1"/>
        <pt x="230" y="51" on="0"/>
        <pt x="299" y="41" on="0"/>
        <pt x="328" y="41" on="1"/>
        <pt x="430" y="41" on="0"/>
        <pt x="508" y="208" on="0"/>
        <pt x="508" y="318" on="1"/>
        <pt x="508" y="431" on="0"/>
        <pt x="394" y="564" on="0"/>
        <pt x="290" y="564" on="1"/>
      </contour>
    </TTGlyph>
    <TTGlyph name="Dcaron" xMin="38" yMin="0" xMax="598" yMax="800">
      <contour>
        <pt x="182" y="782" on="1"/>
        <pt x="199" y="800" on="1"/>
        <pt x="315" y="718" on="1"/>
        <pt x="426" y="800" on="1"/>
        <pt x="444" y="782" on="1"/>
        <pt x="344" y="651" on="1"/>
        <pt x="284" y="651" on="1"/>
      </contour>
      <contour>
        <pt x="38" y="33" on="1"/>
        <pt x="128" y="53" on="1"/>
        <pt x="128" y="558" on="1"/>
        <pt x="38" y="578" on="1"/>
        <pt x="38" y="611" on="1"/>
        <pt x="300" y="611" on="1"/>
        <pt x="455" y="611" on="0"/>
        <pt x="598" y="456" on="0"/>
        <pt x="598" y="318" on="1"/>
        <pt x="598" y="176" on="0"/>
        <pt x="461" y="0" on="0"/>
        <pt x="317" y="0" on="1"/>
        <pt x="38" y="0" on="1"/>
      </contour>
      <contour>
        <pt x="430" y="41" on="0"/>
        <pt x="508" y="208" on="0"/>
        <pt x="508" y="318" on="1"/>
        <pt x="508" y="431" on="0"/>
        <pt x="394" y="564" on="0"/>
        <pt x="290" y="564" on="1"/>
        <pt x="245" y="564" on="0"/>
        <pt x="211" y="558" on="1"/>
        <pt x="211" y="58" on="1"/>
        <pt x="230" y="51" on="0"/>
        <pt x="299" y="41" on="0"/>
        <pt x="328" y="41" on="1"/>
      </contour>
    </TTGlyph>
    <TTGlyph name="Dcroat" xMin="38" yMin="0" xMax="598" yMax="611">
      <component glyphName=".ttfautohint" x="38" y="0" flags="0x0"/>
      <component glyphName="Eth" x="0" y="0" flags="0x0"/>
    </TTGlyph>
    <TTGlyph name="E" xMin="39" yMin="0" xMax="498" yMax="611">
      <contour>
        <pt x="419" y="389" on="1"/>
        <pt x="419" y="208" on="1"/>
        <pt x="383" y="208" on="1"/>
        <pt x="359" y="277" on="1"/>
        <pt x="217" y="277" on="1"/>
        <pt x="217" y="56" on="1"/>
        <pt x="433" y="56" on="1"/>
        <pt x="459" y="147" on="1"/>
        <pt x="498" y="147" on="1"/>
        <pt x="498" y="0" on="1"/>
        <pt x="39" y="0" on="1"/>
        <pt x="39" y="33" on="1"/>
        <pt x="134" y="53" on="1"/>
        <pt x="134" y="558" on="1"/>
        <pt x="39" y="578" on="1"/>
        <pt x="39" y="611" on="1"/>
        <pt x="473" y="611" on="1"/>
        <pt x="473" y="479" on="1"/>
        <pt x="434" y="479" on="1"/>
        <pt x="413" y="559" on="1"/>
        <pt x="217" y="559" on="1"/>
        <pt x="217" y="323" on="1"/>
        <pt x="362" y="323" on="1"/>
        <pt x="383" y="389" on="1"/>
      </contour>
    </TTGlyph>
    <TTGlyph name="Eacute" xMin="39" yMin="0" xMax="498" yMax="799">
      <contour>
        <pt x="193" y="669" on="1"/>
        <pt x="347" y="799" on="1"/>
        <pt x="423" y="771" on="1"/>
        <pt x="423" y="753" on="1"/>
        <pt x="209" y="650" on="1"/>
      </contour>
      <contour>
        <pt x="39" y="33" on="1"/>
        <pt x="134" y="53" on="1"/>
        <pt x="134" y="558" on="1"/>
        <pt x="39" y="578" on="1"/>
        <pt x="39" y="611" on="1"/>
        <pt x="473" y="611" on="1"/>
        <pt x="473" y="479" on="1"/>
        <pt x="434" y="479" on="1"/>
        <pt x="413" y="559" on="1"/>
        <pt x="217" y="559" on="1"/>
        <pt x="217" y="323" on="1"/>
        <pt x="362" y="323" on="1"/>
        <pt x="383" y="389" on="1"/>
        <pt x="419" y="389" on="1"/>
        <pt x="419" y="208" on="1"/>
        <pt x="383" y="208" on="1"/>
        <pt x="359" y="277" on="1"/>
        <pt x="217" y="277" on="1"/>
        <pt x="217" y="56" on="1"/>
        <pt x="433" y="56" on="1"/>
        <pt x="459" y="147" on="1"/>
        <pt x="498" y="147" on="1"/>
        <pt x="498" y="0" on="1"/>
        <pt x="39" y="0" on="1"/>
      </contour>
    </TTGlyph>
    <TTGlyph name="Ebreve" xMin="39" yMin="0" xMax="498" yMax="781">
      <component glyphName=".ttfautohint" x="39" y="0" flags="0x0"/>
      <component glyphName="E" x="0" y="0" flags="0x0"/>
      <component glyphName="uni0306" x="400" y="0" flags="0x0"/>
    </TTGlyph>
    <TTGlyph name="Ecaron" xMin="39" yMin="0" xMax="498" yMax="800">
      <contour>
        <pt x="155" y="782" on="1"/>
        <pt x="172" y="800" on="1"/>
        <pt x="288" y="718" on="1"/>
        <pt x="399" y="800" on="1"/>
        <pt x="417" y="782" on="1"/>
        <pt x="317" y="651" on="1"/>
        <pt x="257" y="651" on="1"/>
      </contour>
      <contour>
        <pt x="39" y="33" on="1"/>
        <pt x="134" y="53" on="1"/>
        <pt x="134" y="558" on="1"/>
        <pt x="39" y="578" on="1"/>
        <pt x="39" y="611" on="1"/>
        <pt x="473" y="611" on="1"/>
        <pt x="473" y="479" on="1"/>
        <pt x="434" y="479" on="1"/>
        <pt x="413" y="559" on="1"/>
        <pt x="217" y="559" on="1"/>
        <pt x="217" y="323" on="1"/>
        <pt x="362" y="323" on="1"/>
        <pt x="383" y="389" on="1"/>
        <pt x="419" y="389" on="1"/>
        <pt x="419" y="208" on="1"/>
        <pt x="383" y="208" on="1"/>
        <pt x="359" y="277" on="1"/>
        <pt x="217" y="277" on="1"/>
        <pt x="217" y="56" on="1"/>
        <pt x="433" y="56" on="1"/>
        <pt x="459" y="147" on="1"/>
        <pt x="498" y="147" on="1"/>
        <pt x="498" y="0" on="1"/>
        <pt x="39" y="0" on="1"/>
      </contour>
    </TTGlyph>
    <TTGlyph name="Ecircumflex" xMin="39" yMin="0" xMax="498" yMax="800">
      <contour>
        <pt x="277" y="733" on="1"/>
        <pt x="166" y="651" on="1"/>
        <pt x="149" y="669" on="1"/>
        <pt x="249" y="800" on="1"/>
        <pt x="309" y="800" on="1"/>
        <pt x="411" y="669" on="1"/>
        <pt x="393" y="651" on="1"/>
      </contour>
      <contour>
        <pt x="419" y="389" on="1"/>
        <pt x="419" y="208" on="1"/>
        <pt x="383" y="208" on="1"/>
        <pt x="359" y="277" on="1"/>
        <pt x="217" y="277" on="1"/>
        <pt x="217" y="56" on="1"/>
        <pt x="433" y="56" on="1"/>
        <pt x="459" y="147" on="1"/>
        <pt x="498" y="147" on="1"/>
        <pt x="498" y="0" on="1"/>
        <pt x="39" y="0" on="1"/>
        <pt x="39" y="33" on="1"/>
        <pt x="134" y="53" on="1"/>
        <pt x="134" y="558" on="1"/>
        <pt x="39" y="578" on="1"/>
        <pt x="39" y="611" on="1"/>
        <pt x="473" y="611" on="1"/>
        <pt x="473" y="479" on="1"/>
        <pt x="434" y="479" on="1"/>
        <pt x="413" y="559" on="1"/>
        <pt x="217" y="559" on="1"/>
        <pt x="217" y="323" on="1"/>
        <pt x="362" y="323" on="1"/>
        <pt x="383" y="389" on="1"/>
      </contour>
    </TTGlyph>
    <TTGlyph name="Edieresis" xMin="39" yMin="0" xMax="498" yMax="780">
      <contour>
        <pt x="244" y="700" on="0"/>
        <pt x="210" y="667" on="0"/>
        <pt x="187" y="667" on="1"/>
        <pt x="164" y="667" on="0"/>
        <pt x="130" y="700" on="0"/>
        <pt x="130" y="722" on="1"/>
        <pt x="130" y="746" on="0"/>
        <pt x="164" y="780" on="0"/>
        <pt x="187" y="780" on="1"/>
        <pt x="210" y="780" on="0"/>
        <pt x="244" y="746" on="0"/>
        <pt x="244" y="722" on="1"/>
      </contour>
      <contour>
        <pt x="439" y="700" on="0"/>
        <pt x="404" y="667" on="0"/>
        <pt x="381" y="667" on="1"/>
        <pt x="358" y="667" on="0"/>
        <pt x="324" y="700" on="0"/>
        <pt x="324" y="722" on="1"/>
        <pt x="324" y="746" on="0"/>
        <pt x="358" y="780" on="0"/>
        <pt x="381" y="780" on="1"/>
        <pt x="404" y="780" on="0"/>
        <pt x="439" y="746" on="0"/>
        <pt x="439" y="722" on="1"/>
      </contour>
      <contour>
        <pt x="419" y="389" on="1"/>
        <pt x="419" y="208" on="1"/>
        <pt x="383" y="208" on="1"/>
        <pt x="359" y="277" on="1"/>
        <pt x="217" y="277" on="1"/>
        <pt x="217" y="56" on="1"/>
        <pt x="433" y="56" on="1"/>
        <pt x="459" y="147" on="1"/>
        <pt x="498" y="147" on="1"/>
        <pt x="498" y="0" on="1"/>
        <pt x="39" y="0" on="1"/>
        <pt x="39" y="33" on="1"/>
        <pt x="134" y="53" on="1"/>
        <pt x="134" y="558" on="1"/>
        <pt x="39" y="578" on="1"/>
        <pt x="39" y="611" on="1"/>
        <pt x="473" y="611" on="1"/>
        <pt x="473" y="479" on="1"/>
        <pt x="434" y="479" on="1"/>
        <pt x="413" y="559" on="1"/>
        <pt x="217" y="559" on="1"/>
        <pt x="217" y="323" on="1"/>
        <pt x="362" y="323" on="1"/>
        <pt x="383" y="389" on="1"/>
      </contour>
    </TTGlyph>
    <TTGlyph name="Edotaccent" xMin="39" yMin="0" xMax="498" yMax="785">
      <contour>
        <pt x="356" y="701" on="0"/>
        <pt x="320" y="668" on="0"/>
        <pt x="296" y="668" on="1"/>
        <pt x="272" y="668" on="0"/>
        <pt x="236" y="701" on="0"/>
        <pt x="236" y="725" on="1"/>
        <pt x="236" y="750" on="0"/>
        <pt x="272" y="785" on="0"/>
        <pt x="296" y="785" on="1"/>
        <pt x="320" y="785" on="0"/>
        <pt x="356" y="749" on="0"/>
        <pt x="356" y="725" on="1"/>
      </contour>
      <contour>
        <pt x="419" y="389" on="1"/>
        <pt x="419" y="208" on="1"/>
        <pt x="383" y="208" on="1"/>
        <pt x="359" y="277" on="1"/>
        <pt x="217" y="277" on="1"/>
        <pt x="217" y="56" on="1"/>
        <pt x="433" y="56" on="1"/>
        <pt x="459" y="147" on="1"/>
        <pt x="498" y="147" on="1"/>
        <pt x="498" y="0" on="1"/>
        <pt x="39" y="0" on="1"/>
        <pt x="39" y="33" on="1"/>
        <pt x="134" y="53" on="1"/>
        <pt x="134" y="558" on="1"/>
        <pt x="39" y="578" on="1"/>
        <pt x="39" y="611" on="1"/>
        <pt x="473" y="611" on="1"/>
        <pt x="473" y="479" on="1"/>
        <pt x="434" y="479" on="1"/>
        <pt x="413" y="559" on="1"/>
        <pt x="217" y="559" on="1"/>
        <pt x="217" y="323" on="1"/>
        <pt x="362" y="323" on="1"/>
        <pt x="383" y="389" on="1"/>
      </contour>
    </TTGlyph>
    <TTGlyph name="Egrave" xMin="39" yMin="0" xMax="498" yMax="799">
      <contour>
        <pt x="171" y="753" on="1"/>
        <pt x="171" y="771" on="1"/>
        <pt x="248" y="799" on="1"/>
        <pt x="401" y="669" on="1"/>
        <pt x="387" y="650" on="1"/>
      </contour>
      <contour>
        <pt x="39" y="33" on="1"/>
        <pt x="134" y="53" on="1"/>
        <pt x="134" y="558" on="1"/>
        <pt x="39" y="578" on="1"/>
        <pt x="39" y="611" on="1"/>
        <pt x="473" y="611" on="1"/>
        <pt x="473" y="479" on="1"/>
        <pt x="434" y="479" on="1"/>
        <pt x="413" y="559" on="1"/>
        <pt x="217" y="559" on="1"/>
        <pt x="217" y="323" on="1"/>
        <pt x="362" y="323" on="1"/>
        <pt x="383" y="389" on="1"/>
        <pt x="419" y="389" on="1"/>
        <pt x="419" y="208" on="1"/>
        <pt x="383" y="208" on="1"/>
        <pt x="359" y="277" on="1"/>
        <pt x="217" y="277" on="1"/>
        <pt x="217" y="56" on="1"/>
        <pt x="433" y="56" on="1"/>
        <pt x="459" y="147" on="1"/>
        <pt x="498" y="147" on="1"/>
        <pt x="498" y="0" on="1"/>
        <pt x="39" y="0" on="1"/>
      </contour>
    </TTGlyph>
    <TTGlyph name="Emacron" xMin="39" yMin="0" xMax="498" yMax="749">
      <contour>
        <pt x="389" y="749" on="1"/>
        <pt x="389" y="697" on="1"/>
        <pt x="172" y="697" on="1"/>
        <pt x="172" y="749" on="1"/>
      </contour>
      <contour>
        <pt x="419" y="389" on="1"/>
        <pt x="419" y="208" on="1"/>
        <pt x="383" y="208" on="1"/>
        <pt x="359" y="277" on="1"/>
        <pt x="217" y="277" on="1"/>
        <pt x="217" y="56" on="1"/>
        <pt x="433" y="56" on="1"/>
        <pt x="459" y="147" on="1"/>
        <pt x="498" y="147" on="1"/>
        <pt x="498" y="0" on="1"/>
        <pt x="39" y="0" on="1"/>
        <pt x="39" y="33" on="1"/>
        <pt x="134" y="53" on="1"/>
        <pt x="134" y="558" on="1"/>
        <pt x="39" y="578" on="1"/>
        <pt x="39" y="611" on="1"/>
        <pt x="473" y="611" on="1"/>
        <pt x="473" y="479" on="1"/>
        <pt x="434" y="479" on="1"/>
        <pt x="413" y="559" on="1"/>
        <pt x="217" y="559" on="1"/>
        <pt x="217" y="323" on="1"/>
        <pt x="362" y="323" on="1"/>
        <pt x="383" y="389" on="1"/>
      </contour>
    </TTGlyph>
    <TTGlyph name="Eng" xMin="36" yMin="-167" xMax="666" yMax="611">
      <contour>
        <pt x="448" y="-167" on="0"/>
        <pt x="404" y="-156" on="0"/>
        <pt x="381" y="-144" on="1"/>
        <pt x="386" y="-113" on="1"/>
        <pt x="432" y="-113" on="1"/>
        <pt x="468" y="-113" on="0"/>
        <pt x="501" y="-56" on="0"/>
        <pt x="501" y="-20" on="1"/>
        <pt x="501" y="21" on="1"/>
        <pt x="174" y="488" on="1"/>
        <pt x="174" y="53" on="1"/>
        <pt x="260" y="33" on="1"/>
        <pt x="260" y="0" on="1"/>
        <pt x="36" y="0" on="1"/>
        <pt x="36" y="33" on="1"/>
        <pt x="116" y="53" on="1"/>
        <pt x="116" y="559" on="1"/>
        <pt x="36" y="578" on="1"/>
        <pt x="36" y="611" on="1"/>
        <pt x="184" y="611" on="1"/>
        <pt x="529" y="130" on="1"/>
        <pt x="529" y="559" on="1"/>
        <pt x="444" y="578" on="1"/>
        <pt x="444" y="611" on="1"/>
        <pt x="666" y="611" on="1"/>
        <pt x="666" y="578" on="1"/>
        <pt x="585" y="559" on="1"/>
        <pt x="585" y="57" on="1"/>
        <pt x="585" y="-64" on="0"/>
        <pt x="522" y="-167" on="0"/>
        <pt x="462" y="-167" on="1"/>
      </contour>
    </TTGlyph>
    <TTGlyph name="Eogonek" xMin="39" yMin="-236" xMax="515" yMax="611">
      <contour>
        <pt x="374" y="-236" on="0"/>
        <pt x="327" y="-187" on="0"/>
        <pt x="327" y="-151" on="1"/>
        <pt x="327" y="-117" on="0"/>
        <pt x="373" y="-38" on="0"/>
        <pt x="421" y="0" on="1"/>
        <pt x="39" y="0" on="1"/>
        <pt x="39" y="33" on="1"/>
        <pt x="134" y="53" on="1"/>
        <pt x="134" y="558" on="1"/>
        <pt x="39" y="578" on="1"/>
        <pt x="39" y="611" on="1"/>
        <pt x="473" y="611" on="1"/>
        <pt x="473" y="479" on="1"/>
        <pt x="434" y="479" on="1"/>
        <pt x="413" y="559" on="1"/>
        <pt x="217" y="559" on="1"/>
        <pt x="217" y="323" on="1"/>
        <pt x="362" y="323" on="1"/>
        <pt x="383" y="389" on="1"/>
        <pt x="419" y="389" on="1"/>
        <pt x="419" y="208" on="1"/>
        <pt x="383" y="208" on="1"/>
        <pt x="359" y="277" on="1"/>
        <pt x="217" y="277" on="1"/>
        <pt x="217" y="56" on="1"/>
        <pt x="433" y="56" on="1"/>
        <pt x="459" y="147" on="1"/>
        <pt x="498" y="147" on="1"/>
        <pt x="498" y="0" on="1"/>
        <pt x="455" y="0" on="1"/>
        <pt x="430" y="-26" on="0"/>
        <pt x="394" y="-98" on="0"/>
        <pt x="394" y="-133" on="1"/>
        <pt x="394" y="-161" on="0"/>
        <pt x="423" y="-192" on="0"/>
        <pt x="449" y="-192" on="1"/>
        <pt x="477" y="-192" on="0"/>
        <pt x="499" y="-170" on="1"/>
        <pt x="515" y="-186" on="1"/>
        <pt x="515" y="-188" on="0"/>
        <pt x="491" y="-214" on="0"/>
        <pt x="449" y="-236" on="0"/>
        <pt x="421" y="-236" on="1"/>
      </contour>
    </TTGlyph>
    <TTGlyph name="Eth" xMin="38" yMin="0" xMax="598" yMax="611">
      <contour>
        <pt x="38" y="33" on="1"/>
        <pt x="128" y="53" on="1"/>
        <pt x="128" y="277" on="1"/>
        <pt x="41" y="277" on="1"/>
        <pt x="41" y="323" on="1"/>
        <pt x="128" y="323" on="1"/>
        <pt x="128" y="558" on="1"/>
        <pt x="38" y="578" on="1"/>
        <pt x="38" y="611" on="1"/>
        <pt x="300" y="611" on="1"/>
        <pt x="455" y="611" on="0"/>
        <pt x="598" y="456" on="0"/>
        <pt x="598" y="318" on="1"/>
        <pt x="598" y="176" on="0"/>
        <pt x="461" y="0" on="0"/>
        <pt x="317" y="0" on="1"/>
        <pt x="38" y="0" on="1"/>
      </contour>
      <contour>
        <pt x="430" y="41" on="0"/>
        <pt x="508" y="208" on="0"/>
        <pt x="508" y="318" on="1"/>
        <pt x="508" y="431" on="0"/>
        <pt x="394" y="564" on="0"/>
        <pt x="290" y="564" on="1"/>
        <pt x="245" y="564" on="0"/>
        <pt x="211" y="558" on="1"/>
        <pt x="211" y="323" on="1"/>
        <pt x="323" y="323" on="1"/>
        <pt x="323" y="277" on="1"/>
        <pt x="211" y="277" on="1"/>
        <pt x="211" y="58" on="1"/>
        <pt x="230" y="51" on="0"/>
        <pt x="299" y="41" on="0"/>
        <pt x="328" y="41" on="1"/>
      </contour>
    </TTGlyph>
    <TTGlyph name="Euro" xMin="33" yMin="-6" xMax="478" yMax="619">
      <contour>
        <pt x="192" y="274" on="0"/>
        <pt x="193" y="260" on="1"/>
        <pt x="399" y="260" on="1"/>
        <pt x="391" y="217" on="1"/>
        <pt x="198" y="217" on="1"/>
        <pt x="209" y="139" on="0"/>
        <pt x="290" y="47" on="0"/>
        <pt x="374" y="47" on="1"/>
        <pt x="415" y="47" on="0"/>
        <pt x="466" y="60" on="1"/>
        <pt x="474" y="19" on="1"/>
        <pt x="420" y="-6" on="0"/>
        <pt x="346" y="-6" on="1"/>
        <pt x="250" y="-6" on="0"/>
        <pt x="129" y="86" on="0"/>
        <pt x="113" y="217" on="1"/>
        <pt x="33" y="217" on="1"/>
        <pt x="41" y="260" on="1"/>
        <pt x="110" y="260" on="1"/>
        <pt x="109" y="274" on="0"/>
        <pt x="109" y="307" on="1"/>
        <pt x="109" y="329" on="1"/>
        <pt x="33" y="329" on="1"/>
        <pt x="41" y="372" on="1"/>
        <pt x="112" y="372" on="1"/>
        <pt x="125" y="514" on="0"/>
        <pt x="244" y="619" on="0"/>
        <pt x="329" y="619" on="1"/>
        <pt x="406" y="619" on="0"/>
        <pt x="478" y="591" on="1"/>
        <pt x="463" y="478" on="1"/>
        <pt x="431" y="478" on="1"/>
        <pt x="410" y="558" on="1"/>
        <pt x="378" y="567" on="0"/>
        <pt x="347" y="567" on="1"/>
        <pt x="302" y="567" on="0"/>
        <pt x="241" y="536" on="0"/>
        <pt x="200" y="451" on="0"/>
        <pt x="194" y="372" on="1"/>
        <pt x="399" y="372" on="1"/>
        <pt x="391" y="329" on="1"/>
        <pt x="192" y="329" on="1"/>
        <pt x="192" y="307" on="1"/>
      </contour>
    </TTGlyph>
    <TTGlyph name="F" xMin="38" yMin="0" xMax="473" yMax="611">
      <contour>
        <pt x="473" y="479" on="1"/>
        <pt x="434" y="479" on="1"/>
        <pt x="413" y="559" on="1"/>
        <pt x="217" y="559" on="1"/>
        <pt x="217" y="313" on="1"/>
        <pt x="362" y="313" on="1"/>
        <pt x="383" y="379" on="1"/>
        <pt x="419" y="379" on="1"/>
        <pt x="419" y="198" on="1"/>
        <pt x="383" y="198" on="1"/>
        <pt x="359" y="267" on="1"/>
        <pt x="217" y="267" on="1"/>
        <pt x="217" y="54" on="1"/>
        <pt x="330" y="34" on="1"/>
        <pt x="330" y="0" on="1"/>
        <pt x="38" y="0" on="1"/>
        <pt x="38" y="33" on="1"/>
        <pt x="133" y="53" on="1"/>
        <pt x="133" y="558" on="1"/>
        <pt x="38" y="578" on="1"/>
        <pt x="38" y="611" on="1"/>
        <pt x="473" y="611" on="1"/>
      </contour>
    </TTGlyph>
    <TTGlyph name="G" xMin="41" yMin="-11" xMax="590" yMax="627">
      <contour>
        <pt x="402" y="578" on="0"/>
        <pt x="346" y="578" on="1"/>
        <pt x="226" y="578" on="0"/>
        <pt x="131" y="418" on="0"/>
        <pt x="131" y="309" on="1"/>
        <pt x="131" y="201" on="0"/>
        <pt x="226" y="37" on="0"/>
        <pt x="343" y="37" on="1"/>
        <pt x="398" y="37" on="0"/>
        <pt x="436" y="56" on="1"/>
        <pt x="436" y="234" on="1"/>
        <pt x="347" y="254" on="1"/>
        <pt x="347" y="288" on="1"/>
        <pt x="590" y="288" on="1"/>
        <pt x="590" y="254" on="1"/>
        <pt x="519" y="234" on="1"/>
        <pt x="519" y="31" on="1"/>
        <pt x="449" y="-11" on="0"/>
        <pt x="339" y="-11" on="1"/>
        <pt x="183" y="-11" on="0"/>
        <pt x="41" y="166" on="0"/>
        <pt x="41" y="309" on="1"/>
        <pt x="41" y="452" on="0"/>
        <pt x="187" y="627" on="0"/>
        <pt x="346" y="627" on="1"/>
        <pt x="391" y="627" on="0"/>
        <pt x="493" y="612" on="0"/>
        <pt x="524" y="597" on="1"/>
        <pt x="510" y="470" on="1"/>
        <pt x="472" y="470" on="1"/>
        <pt x="448" y="567" on="1"/>
      </contour>
    </TTGlyph>
    <TTGlyph name="G_tilde.loclGUA" xMin="41" yMin="-11" xMax="590" yMax="809">
      <contour>
        <pt x="454" y="746" on="0"/>
        <pt x="422" y="699" on="0"/>
        <pt x="400" y="699" on="1"/>
        <pt x="382" y="699" on="0"/>
        <pt x="328" y="719" on="1"/>
        <pt x="274" y="739" on="0"/>
        <pt x="258" y="739" on="1"/>
        <pt x="248" y="739" on="0"/>
        <pt x="228" y="723" on="0"/>
        <pt x="215" y="706" on="0"/>
        <pt x="213" y="703" on="1"/>
        <pt x="183" y="715" on="1"/>
        <pt x="202" y="762" on="0"/>
        <pt x="235" y="809" on="0"/>
        <pt x="257" y="809" on="1"/>
        <pt x="268" y="809" on="0"/>
        <pt x="307" y="797" on="0"/>
        <pt x="327" y="789" on="1"/>
        <pt x="347" y="781" on="0"/>
        <pt x="387" y="769" on="0"/>
        <pt x="399" y="769" on="1"/>
        <pt x="409" y="769" on="0"/>
        <pt x="428" y="785" on="0"/>
        <pt x="441" y="801" on="0"/>
        <pt x="442" y="804" on="1"/>
        <pt x="473" y="792" on="1"/>
      </contour>
      <contour>
        <pt x="402" y="578" on="0"/>
        <pt x="346" y="578" on="1"/>
        <pt x="226" y="578" on="0"/>
        <pt x="131" y="418" on="0"/>
        <pt x="131" y="309" on="1"/>
        <pt x="131" y="201" on="0"/>
        <pt x="226" y="37" on="0"/>
        <pt x="343" y="37" on="1"/>
        <pt x="398" y="37" on="0"/>
        <pt x="436" y="56" on="1"/>
        <pt x="436" y="234" on="1"/>
        <pt x="347" y="254" on="1"/>
        <pt x="347" y="288" on="1"/>
        <pt x="590" y="288" on="1"/>
        <pt x="590" y="254" on="1"/>
        <pt x="519" y="234" on="1"/>
        <pt x="519" y="31" on="1"/>
        <pt x="449" y="-11" on="0"/>
        <pt x="339" y="-11" on="1"/>
        <pt x="183" y="-11" on="0"/>
        <pt x="41" y="166" on="0"/>
        <pt x="41" y="309" on="1"/>
        <pt x="41" y="452" on="0"/>
        <pt x="187" y="627" on="0"/>
        <pt x="346" y="627" on="1"/>
        <pt x="391" y="627" on="0"/>
        <pt x="493" y="612" on="0"/>
        <pt x="524" y="597" on="1"/>
        <pt x="510" y="470" on="1"/>
        <pt x="472" y="470" on="1"/>
        <pt x="448" y="567" on="1"/>
      </contour>
    </TTGlyph>
    <TTGlyph name="Gbreve" xMin="41" yMin="-11" xMax="590" yMax="781">
      <contour>
        <pt x="257" y="665" on="0"/>
        <pt x="203" y="728" on="0"/>
        <pt x="203" y="779" on="1"/>
        <pt x="237" y="781" on="1"/>
        <pt x="237" y="753" on="0"/>
        <pt x="272" y="719" on="0"/>
        <pt x="319" y="719" on="1"/>
        <pt x="367" y="719" on="0"/>
        <pt x="404" y="753" on="0"/>
        <pt x="404" y="781" on="1"/>
        <pt x="437" y="779" on="1"/>
        <pt x="437" y="665" on="0"/>
        <pt x="321" y="665" on="1"/>
      </contour>
      <contour>
        <pt x="402" y="578" on="0"/>
        <pt x="346" y="578" on="1"/>
        <pt x="226" y="578" on="0"/>
        <pt x="131" y="418" on="0"/>
        <pt x="131" y="309" on="1"/>
        <pt x="131" y="201" on="0"/>
        <pt x="226" y="37" on="0"/>
        <pt x="343" y="37" on="1"/>
        <pt x="398" y="37" on="0"/>
        <pt x="436" y="56" on="1"/>
        <pt x="436" y="234" on="1"/>
        <pt x="347" y="254" on="1"/>
        <pt x="347" y="288" on="1"/>
        <pt x="590" y="288" on="1"/>
        <pt x="590" y="254" on="1"/>
        <pt x="519" y="234" on="1"/>
        <pt x="519" y="31" on="1"/>
        <pt x="449" y="-11" on="0"/>
        <pt x="339" y="-11" on="1"/>
        <pt x="183" y="-11" on="0"/>
        <pt x="41" y="166" on="0"/>
        <pt x="41" y="309" on="1"/>
        <pt x="41" y="452" on="0"/>
        <pt x="187" y="627" on="0"/>
        <pt x="346" y="627" on="1"/>
        <pt x="391" y="627" on="0"/>
        <pt x="493" y="612" on="0"/>
        <pt x="524" y="597" on="1"/>
        <pt x="510" y="470" on="1"/>
        <pt x="472" y="470" on="1"/>
        <pt x="448" y="567" on="1"/>
      </contour>
    </TTGlyph>
    <TTGlyph name="Gcaron" xMin="41" yMin="-11" xMax="590" yMax="800">
      <component glyphName=".ttfautohint" x="41" y="0" flags="0x0"/>
      <component glyphName="G" x="0" y="0" flags="0x0"/>
      <component glyphName="uni030C" x="428" y="0" flags="0x0"/>
    </TTGlyph>
    <TTGlyph name="Gcircumflex" xMin="41" yMin="-11" xMax="590" yMax="800">
      <component glyphName=".ttfautohint" x="41" y="0" flags="0x0"/>
      <component glyphName="G" x="0" y="0" flags="0x0"/>
      <component glyphName="uni0302" x="428" y="0" flags="0x0"/>
    </TTGlyph>
    <TTGlyph name="Gcommaaccent" xMin="41" yMin="-221" xMax="590" yMax="627">
      <contour>
        <pt x="183" y="-11" on="0"/>
        <pt x="41" y="166" on="0"/>
        <pt x="41" y="309" on="1"/>
        <pt x="41" y="452" on="0"/>
        <pt x="187" y="627" on="0"/>
        <pt x="346" y="627" on="1"/>
        <pt x="391" y="627" on="0"/>
        <pt x="493" y="612" on="0"/>
        <pt x="524" y="597" on="1"/>
        <pt x="510" y="470" on="1"/>
        <pt x="472" y="470" on="1"/>
        <pt x="448" y="567" on="1"/>
        <pt x="402" y="578" on="0"/>
        <pt x="346" y="578" on="1"/>
        <pt x="226" y="578" on="0"/>
        <pt x="131" y="418" on="0"/>
        <pt x="131" y="309" on="1"/>
        <pt x="131" y="201" on="0"/>
        <pt x="226" y="37" on="0"/>
        <pt x="343" y="37" on="1"/>
        <pt x="398" y="37" on="0"/>
        <pt x="436" y="56" on="1"/>
        <pt x="436" y="234" on="1"/>
        <pt x="347" y="254" on="1"/>
        <pt x="347" y="288" on="1"/>
        <pt x="590" y="288" on="1"/>
        <pt x="590" y="254" on="1"/>
        <pt x="519" y="234" on="1"/>
        <pt x="519" y="31" on="1"/>
        <pt x="449" y="-11" on="0"/>
        <pt x="339" y="-11" on="1"/>
      </contour>
      <contour>
        <pt x="291" y="-43" on="1"/>
        <pt x="361" y="-28" on="1"/>
        <pt x="374" y="-42" on="1"/>
        <pt x="310" y="-221" on="1"/>
        <pt x="277" y="-221" on="1"/>
      </contour>
    </TTGlyph>
    <TTGlyph name="Gdotaccent" xMin="41" yMin="-11" xMax="590" yMax="785">
      <component glyphName=".ttfautohint" x="41" y="0" flags="0x0"/>
      <component glyphName="G" x="0" y="0" flags="0x0"/>
      <component glyphName="uni0307" x="428" y="0" flags="0x0"/>
    </TTGlyph>
    <TTGlyph name="H" xMin="39" yMin="0" xMax="686" yMax="611">
      <contour>
        <pt x="39" y="33" on="1"/>
        <pt x="128" y="53" on="1"/>
        <pt x="128" y="559" on="1"/>
        <pt x="39" y="578" on="1"/>
        <pt x="39" y="611" on="1"/>
        <pt x="300" y="611" on="1"/>
        <pt x="300" y="578" on="1"/>
        <pt x="211" y="559" on="1"/>
        <pt x="211" y="329" on="1"/>
        <pt x="513" y="329" on="1"/>
        <pt x="513" y="559" on="1"/>
        <pt x="424" y="578" on="1"/>
        <pt x="424" y="611" on="1"/>
        <pt x="685" y="611" on="1"/>
        <pt x="685" y="578" on="1"/>
        <pt x="596" y="559" on="1"/>
        <pt x="596" y="53" on="1"/>
        <pt x="686" y="33" on="1"/>
        <pt x="686" y="0" on="1"/>
        <pt x="424" y="0" on="1"/>
        <pt x="424" y="33" on="1"/>
        <pt x="513" y="53" on="1"/>
        <pt x="513" y="280" on="1"/>
        <pt x="211" y="280" on="1"/>
        <pt x="211" y="53" on="1"/>
        <pt x="300" y="33" on="1"/>
        <pt x="300" y="0" on="1"/>
        <pt x="39" y="0" on="1"/>
      </contour>
    </TTGlyph>
    <TTGlyph name="Hbar" xMin="39" yMin="0" xMax="686" yMax="611">
      <contour>
        <pt x="686" y="33" on="1"/>
        <pt x="686" y="0" on="1"/>
        <pt x="424" y="0" on="1"/>
        <pt x="424" y="33" on="1"/>
        <pt x="513" y="53" on="1"/>
        <pt x="513" y="250" on="1"/>
        <pt x="211" y="250" on="1"/>
        <pt x="211" y="53" on="1"/>
        <pt x="300" y="33" on="1"/>
        <pt x="300" y="0" on="1"/>
        <pt x="39" y="0" on="1"/>
        <pt x="39" y="33" on="1"/>
        <pt x="128" y="53" on="1"/>
        <pt x="128" y="393" on="1"/>
        <pt x="42" y="393" on="1"/>
        <pt x="42" y="439" on="1"/>
        <pt x="128" y="439" on="1"/>
        <pt x="128" y="559" on="1"/>
        <pt x="39" y="578" on="1"/>
        <pt x="39" y="611" on="1"/>
        <pt x="300" y="611" on="1"/>
        <pt x="300" y="578" on="1"/>
        <pt x="211" y="559" on="1"/>
        <pt x="211" y="439" on="1"/>
        <pt x="513" y="439" on="1"/>
        <pt x="513" y="559" on="1"/>
        <pt x="424" y="578" on="1"/>
        <pt x="424" y="611" on="1"/>
        <pt x="685" y="611" on="1"/>
        <pt x="685" y="578" on="1"/>
        <pt x="596" y="559" on="1"/>
        <pt x="596" y="439" on="1"/>
        <pt x="682" y="439" on="1"/>
        <pt x="682" y="393" on="1"/>
        <pt x="596" y="393" on="1"/>
        <pt x="596" y="53" on="1"/>
      </contour>
      <contour>
        <pt x="513" y="299" on="1"/>
        <pt x="513" y="393" on="1"/>
        <pt x="211" y="393" on="1"/>
        <pt x="211" y="299" on="1"/>
      </contour>
    </TTGlyph>
    <TTGlyph name="Hcircumflex" xMin="39" yMin="0" xMax="686" yMax="800">
      <component glyphName=".ttfautohint" x="39" y="0" flags="0x0"/>
      <component glyphName="H" x="0" y="0" flags="0x0"/>
      <component glyphName="uni0302" x="490" y="0" flags="0x0"/>
    </TTGlyph>
    <TTGlyph name="I" xMin="38" yMin="0" xMax="301" yMax="611">
      <contour>
        <pt x="38" y="33" on="1"/>
        <pt x="128" y="53" on="1"/>
        <pt x="128" y="558" on="1"/>
        <pt x="38" y="578" on="1"/>
        <pt x="38" y="611" on="1"/>
        <pt x="301" y="611" on="1"/>
        <pt x="301" y="578" on="1"/>
        <pt x="211" y="558" on="1"/>
        <pt x="211" y="53" on="1"/>
        <pt x="301" y="33" on="1"/>
        <pt x="301" y="0" on="1"/>
        <pt x="38" y="0" on="1"/>
      </contour>
    </TTGlyph>
    <TTGlyph name="IJ" xMin="38" yMin="-149" xMax="609" yMax="611">
      <component glyphName=".ttfautohint" x="38" y="0" flags="0x0"/>
      <component glyphName="I" x="0" y="0" flags="0x0"/>
      <component glyphName="J" x="330" y="0" flags="0x0"/>
    </TTGlyph>
    <TTGlyph name="Iacute" xMin="38" yMin="0" xMax="301" yMax="799">
      <contour>
        <pt x="57" y="669" on="1"/>
        <pt x="211" y="799" on="1"/>
        <pt x="287" y="771" on="1"/>
        <pt x="287" y="753" on="1"/>
        <pt x="73" y="650" on="1"/>
      </contour>
      <contour>
        <pt x="38" y="33" on="1"/>
        <pt x="128" y="53" on="1"/>
        <pt x="128" y="558" on="1"/>
        <pt x="38" y="578" on="1"/>
        <pt x="38" y="611" on="1"/>
        <pt x="301" y="611" on="1"/>
        <pt x="301" y="578" on="1"/>
        <pt x="211" y="558" on="1"/>
        <pt x="211" y="53" on="1"/>
        <pt x="301" y="33" on="1"/>
        <pt x="301" y="0" on="1"/>
        <pt x="38" y="0" on="1"/>
      </contour>
    </TTGlyph>
    <TTGlyph name="Iacute_J.loclNLD" xMin="38" yMin="-149" xMax="644" yMax="799">
      <component glyphName=".ttfautohint" x="38" y="0" flags="0x0"/>
      <component glyphName="I" x="0" y="0" flags="0x0"/>
      <component glyphName="acutecomb" x="351" y="0" flags="0x0"/>
      <component glyphName="J" x="330" y="0" flags="0x0"/>
      <component glyphName="acutecomb" x="657" y="0" flags="0x0"/>
    </TTGlyph>
    <TTGlyph name="Ibreve" xMin="38" yMin="0" xMax="301" yMax="781">
      <component glyphName=".ttfautohint" x="38" y="0" flags="0x0"/>
      <component glyphName="I" x="0" y="0" flags="0x0"/>
      <component glyphName="uni0306" x="298" y="0" flags="0x0"/>
    </TTGlyph>
    <TTGlyph name="Icircumflex" xMin="38" yMin="0" xMax="301" yMax="800">
      <contour>
        <pt x="38" y="669" on="1"/>
        <pt x="138" y="800" on="1"/>
        <pt x="198" y="800" on="1"/>
        <pt x="300" y="669" on="1"/>
        <pt x="282" y="651" on="1"/>
        <pt x="166" y="733" on="1"/>
        <pt x="55" y="651" on="1"/>
      </contour>
      <contour>
        <pt x="38" y="33" on="1"/>
        <pt x="128" y="53" on="1"/>
        <pt x="128" y="558" on="1"/>
        <pt x="38" y="578" on="1"/>
        <pt x="38" y="611" on="1"/>
        <pt x="301" y="611" on="1"/>
        <pt x="301" y="578" on="1"/>
        <pt x="211" y="558" on="1"/>
        <pt x="211" y="53" on="1"/>
        <pt x="301" y="33" on="1"/>
        <pt x="301" y="0" on="1"/>
        <pt x="38" y="0" on="1"/>
      </contour>
    </TTGlyph>
    <TTGlyph name="Idieresis" xMin="16" yMin="0" xMax="325" yMax="780">
      <contour>
        <pt x="50" y="667" on="0"/>
        <pt x="16" y="700" on="0"/>
        <pt x="16" y="722" on="1"/>
        <pt x="16" y="746" on="0"/>
        <pt x="50" y="780" on="0"/>
        <pt x="73" y="780" on="1"/>
        <pt x="96" y="780" on="0"/>
        <pt x="130" y="746" on="0"/>
        <pt x="130" y="722" on="1"/>
        <pt x="130" y="700" on="0"/>
        <pt x="96" y="667" on="0"/>
        <pt x="73" y="667" on="1"/>
      </contour>
      <contour>
        <pt x="244" y="667" on="0"/>
        <pt x="210" y="700" on="0"/>
        <pt x="210" y="722" on="1"/>
        <pt x="210" y="746" on="0"/>
        <pt x="244" y="780" on="0"/>
        <pt x="267" y="780" on="1"/>
        <pt x="290" y="780" on="0"/>
        <pt x="325" y="746" on="0"/>
        <pt x="325" y="722" on="1"/>
        <pt x="325" y="700" on="0"/>
        <pt x="290" y="667" on="0"/>
        <pt x="267" y="667" on="1"/>
      </contour>
      <contour>
        <pt x="38" y="33" on="1"/>
        <pt x="128" y="53" on="1"/>
        <pt x="128" y="558" on="1"/>
        <pt x="38" y="578" on="1"/>
        <pt x="38" y="611" on="1"/>
        <pt x="301" y="611" on="1"/>
        <pt x="301" y="578" on="1"/>
        <pt x="211" y="558" on="1"/>
        <pt x="211" y="53" on="1"/>
        <pt x="301" y="33" on="1"/>
        <pt x="301" y="0" on="1"/>
        <pt x="38" y="0" on="1"/>
      </contour>
    </TTGlyph>
    <TTGlyph name="Idotaccent" xMin="38" yMin="0" xMax="301" yMax="785">
      <contour>
        <pt x="145" y="668" on="0"/>
        <pt x="109" y="701" on="0"/>
        <pt x="109" y="725" on="1"/>
        <pt x="109" y="750" on="0"/>
        <pt x="145" y="785" on="0"/>
        <pt x="169" y="785" on="1"/>
        <pt x="193" y="785" on="0"/>
        <pt x="229" y="749" on="0"/>
        <pt x="229" y="725" on="1"/>
        <pt x="229" y="701" on="0"/>
        <pt x="193" y="668" on="0"/>
        <pt x="169" y="668" on="1"/>
      </contour>
      <contour>
        <pt x="38" y="33" on="1"/>
        <pt x="128" y="53" on="1"/>
        <pt x="128" y="558" on="1"/>
        <pt x="38" y="578" on="1"/>
        <pt x="38" y="611" on="1"/>
        <pt x="301" y="611" on="1"/>
        <pt x="301" y="578" on="1"/>
        <pt x="211" y="558" on="1"/>
        <pt x="211" y="53" on="1"/>
        <pt x="301" y="33" on="1"/>
        <pt x="301" y="0" on="1"/>
        <pt x="38" y="0" on="1"/>
      </contour>
    </TTGlyph>
    <TTGlyph name="Igrave" xMin="38" yMin="0" xMax="301" yMax="799">
      <contour>
        <pt x="53" y="753" on="1"/>
        <pt x="53" y="771" on="1"/>
        <pt x="130" y="799" on="1"/>
        <pt x="283" y="669" on="1"/>
        <pt x="269" y="650" on="1"/>
      </contour>
      <contour>
        <pt x="38" y="33" on="1"/>
        <pt x="128" y="53" on="1"/>
        <pt x="128" y="558" on="1"/>
        <pt x="38" y="578" on="1"/>
        <pt x="38" y="611" on="1"/>
        <pt x="301" y="611" on="1"/>
        <pt x="301" y="578" on="1"/>
        <pt x="211" y="558" on="1"/>
        <pt x="211" y="53" on="1"/>
        <pt x="301" y="33" on="1"/>
        <pt x="301" y="0" on="1"/>
        <pt x="38" y="0" on="1"/>
      </contour>
    </TTGlyph>
    <TTGlyph name="Imacron" xMin="38" yMin="0" xMax="301" yMax="749">
      <contour>
        <pt x="61" y="749" on="1"/>
        <pt x="278" y="749" on="1"/>
        <pt x="278" y="697" on="1"/>
        <pt x="61" y="697" on="1"/>
      </contour>
      <contour>
        <pt x="38" y="33" on="1"/>
        <pt x="128" y="53" on="1"/>
        <pt x="128" y="558" on="1"/>
        <pt x="38" y="578" on="1"/>
        <pt x="38" y="611" on="1"/>
        <pt x="301" y="611" on="1"/>
        <pt x="301" y="578" on="1"/>
        <pt x="211" y="558" on="1"/>
        <pt x="211" y="53" on="1"/>
        <pt x="301" y="33" on="1"/>
        <pt x="301" y="0" on="1"/>
        <pt x="38" y="0" on="1"/>
      </contour>
    </TTGlyph>
    <TTGlyph name="Iogonek" xMin="38" yMin="-236" xMax="301" yMax="611">
      <contour>
        <pt x="160" y="-236" on="0"/>
        <pt x="112" y="-187" on="0"/>
        <pt x="112" y="-151" on="1"/>
        <pt x="112" y="-109" on="0"/>
        <pt x="172" y="-27" on="0"/>
        <pt x="223" y="0" on="1"/>
        <pt x="38" y="0" on="1"/>
        <pt x="38" y="33" on="1"/>
        <pt x="128" y="53" on="1"/>
        <pt x="128" y="558" on="1"/>
        <pt x="38" y="578" on="1"/>
        <pt x="38" y="611" on="1"/>
        <pt x="301" y="611" on="1"/>
        <pt x="301" y="578" on="1"/>
        <pt x="211" y="558" on="1"/>
        <pt x="211" y="53" on="1"/>
        <pt x="301" y="33" on="1"/>
        <pt x="301" y="0" on="1"/>
        <pt x="237" y="-17" on="0"/>
        <pt x="180" y="-89" on="0"/>
        <pt x="180" y="-133" on="1"/>
        <pt x="180" y="-161" on="0"/>
        <pt x="209" y="-192" on="0"/>
        <pt x="234" y="-192" on="1"/>
        <pt x="263" y="-192" on="0"/>
        <pt x="284" y="-170" on="1"/>
        <pt x="301" y="-186" on="1"/>
        <pt x="301" y="-188" on="0"/>
        <pt x="277" y="-214" on="0"/>
        <pt x="235" y="-236" on="0"/>
        <pt x="207" y="-236" on="1"/>
      </contour>
    </TTGlyph>
    <TTGlyph name="Itilde" xMin="25" yMin="0" xMax="315" yMax="809">
      <contour>
        <pt x="224" y="699" on="0"/>
        <pt x="170" y="719" on="1"/>
        <pt x="116" y="739" on="0"/>
        <pt x="100" y="739" on="1"/>
        <pt x="90" y="739" on="0"/>
        <pt x="70" y="723" on="0"/>
        <pt x="57" y="706" on="0"/>
        <pt x="55" y="703" on="1"/>
        <pt x="25" y="715" on="1"/>
        <pt x="44" y="762" on="0"/>
        <pt x="77" y="809" on="0"/>
        <pt x="99" y="809" on="1"/>
        <pt x="110" y="809" on="0"/>
        <pt x="149" y="797" on="0"/>
        <pt x="169" y="789" on="1"/>
        <pt x="189" y="781" on="0"/>
        <pt x="229" y="769" on="0"/>
        <pt x="241" y="769" on="1"/>
        <pt x="251" y="769" on="0"/>
        <pt x="270" y="785" on="0"/>
        <pt x="283" y="801" on="0"/>
        <pt x="284" y="804" on="1"/>
        <pt x="315" y="792" on="1"/>
        <pt x="296" y="746" on="0"/>
        <pt x="264" y="699" on="0"/>
        <pt x="242" y="699" on="1"/>
      </contour>
      <contour>
        <pt x="38" y="33" on="1"/>
        <pt x="128" y="53" on="1"/>
        <pt x="128" y="558" on="1"/>
        <pt x="38" y="578" on="1"/>
        <pt x="38" y="611" on="1"/>
        <pt x="301" y="611" on="1"/>
        <pt x="301" y="578" on="1"/>
        <pt x="211" y="558" on="1"/>
        <pt x="211" y="53" on="1"/>
        <pt x="301" y="33" on="1"/>
        <pt x="301" y="0" on="1"/>
        <pt x="38" y="0" on="1"/>
      </contour>
    </TTGlyph>
    <TTGlyph name="J" xMin="-45" yMin="-149" xMax="279" yMax="611">
      <contour>
        <pt x="-4" y="-149" on="0"/>
        <pt x="-45" y="-122" on="1"/>
        <pt x="-41" y="-94" on="1"/>
        <pt x="33" y="-94" on="1"/>
        <pt x="77" y="-94" on="0"/>
        <pt x="108" y="-31" on="0"/>
        <pt x="108" y="30" on="1"/>
        <pt x="108" y="558" on="1"/>
        <pt x="19" y="578" on="1"/>
        <pt x="19" y="611" on="1"/>
        <pt x="279" y="611" on="1"/>
        <pt x="279" y="578" on="1"/>
        <pt x="191" y="558" on="1"/>
        <pt x="191" y="63" on="1"/>
        <pt x="191" y="-56" on="0"/>
        <pt x="125" y="-149" on="0"/>
        <pt x="55" y="-149" on="1"/>
      </contour>
    </TTGlyph>
    <TTGlyph name="Jcircumflex" xMin="-45" yMin="-149" xMax="279" yMax="800">
      <component glyphName=".ttfautohint" x="0" y="0" flags="0x0"/>
      <component glyphName="J" x="0" y="0" flags="0x0"/>
      <component glyphName="uni0302" x="274" y="0" flags="0x0"/>
    </TTGlyph>
    <TTGlyph name="K" xMin="38" yMin="0" xMax="574" yMax="611">
      <contour>
        <pt x="431" y="0" on="1"/>
        <pt x="211" y="312" on="1"/>
        <pt x="211" y="53" on="1"/>
        <pt x="301" y="33" on="1"/>
        <pt x="301" y="0" on="1"/>
        <pt x="38" y="0" on="1"/>
        <pt x="38" y="33" on="1"/>
        <pt x="128" y="53" on="1"/>
        <pt x="128" y="558" on="1"/>
        <pt x="38" y="578" on="1"/>
        <pt x="38" y="611" on="1"/>
        <pt x="301" y="611" on="1"/>
        <pt x="301" y="578" on="1"/>
        <pt x="211" y="558" on="1"/>
        <pt x="211" y="324" on="1"/>
        <pt x="424" y="558" on="1"/>
        <pt x="359" y="578" on="1"/>
        <pt x="359" y="611" on="1"/>
        <pt x="563" y="611" on="1"/>
        <pt x="563" y="578" on="1"/>
        <pt x="491" y="558" on="1"/>
        <pt x="291" y="338" on="1"/>
        <pt x="493" y="53" on="1"/>
        <pt x="574" y="33" on="1"/>
        <pt x="574" y="0" on="1"/>
      </contour>
    </TTGlyph>
    <TTGlyph name="Kcommaaccent" xMin="38" yMin="-221" xMax="574" yMax="611">
      <contour>
        <pt x="38" y="33" on="1"/>
        <pt x="128" y="53" on="1"/>
        <pt x="128" y="558" on="1"/>
        <pt x="38" y="578" on="1"/>
        <pt x="38" y="611" on="1"/>
        <pt x="301" y="611" on="1"/>
        <pt x="301" y="578" on="1"/>
        <pt x="211" y="558" on="1"/>
        <pt x="211" y="324" on="1"/>
        <pt x="424" y="558" on="1"/>
        <pt x="359" y="578" on="1"/>
        <pt x="359" y="611" on="1"/>
        <pt x="563" y="611" on="1"/>
        <pt x="563" y="578" on="1"/>
        <pt x="491" y="558" on="1"/>
        <pt x="291" y="338" on="1"/>
        <pt x="493" y="53" on="1"/>
        <pt x="574" y="33" on="1"/>
        <pt x="574" y="0" on="1"/>
        <pt x="431" y="0" on="1"/>
        <pt x="211" y="312" on="1"/>
        <pt x="211" y="53" on="1"/>
        <pt x="301" y="33" on="1"/>
        <pt x="301" y="0" on="1"/>
        <pt x="38" y="0" on="1"/>
      </contour>
      <contour>
        <pt x="286" y="-43" on="1"/>
        <pt x="356" y="-28" on="1"/>
        <pt x="369" y="-42" on="1"/>
        <pt x="304" y="-221" on="1"/>
        <pt x="271" y="-221" on="1"/>
      </contour>
    </TTGlyph>
    <TTGlyph name="L" xMin="38" yMin="0" xMax="466" yMax="611">
      <contour>
        <pt x="38" y="0" on="1"/>
        <pt x="38" y="33" on="1"/>
        <pt x="128" y="53" on="1"/>
        <pt x="128" y="558" on="1"/>
        <pt x="38" y="578" on="1"/>
        <pt x="38" y="611" on="1"/>
        <pt x="301" y="611" on="1"/>
        <pt x="301" y="578" on="1"/>
        <pt x="211" y="558" on="1"/>
        <pt x="211" y="56" on="1"/>
        <pt x="403" y="56" on="1"/>
        <pt x="428" y="147" on="1"/>
        <pt x="466" y="147" on="1"/>
        <pt x="466" y="0" on="1"/>
      </contour>
    </TTGlyph>
    <TTGlyph name="Lacute" xMin="38" yMin="0" xMax="466" yMax="799">
      <contour>
        <pt x="94" y="669" on="1"/>
        <pt x="248" y="799" on="1"/>
        <pt x="324" y="771" on="1"/>
        <pt x="324" y="753" on="1"/>
        <pt x="110" y="650" on="1"/>
      </contour>
      <contour>
        <pt x="38" y="0" on="1"/>
        <pt x="38" y="33" on="1"/>
        <pt x="128" y="53" on="1"/>
        <pt x="128" y="558" on="1"/>
        <pt x="38" y="578" on="1"/>
        <pt x="38" y="611" on="1"/>
        <pt x="301" y="611" on="1"/>
        <pt x="301" y="578" on="1"/>
        <pt x="211" y="558" on="1"/>
        <pt x="211" y="56" on="1"/>
        <pt x="403" y="56" on="1"/>
        <pt x="428" y="147" on="1"/>
        <pt x="466" y="147" on="1"/>
        <pt x="466" y="0" on="1"/>
      </contour>
    </TTGlyph>
    <TTGlyph name="Lcaron" xMin="32" yMin="0" xMax="466" yMax="800">
      <contour>
        <pt x="32" y="782" on="1"/>
        <pt x="49" y="800" on="1"/>
        <pt x="165" y="718" on="1"/>
        <pt x="276" y="800" on="1"/>
        <pt x="294" y="782" on="1"/>
        <pt x="194" y="651" on="1"/>
        <pt x="134" y="651" on="1"/>
      </contour>
      <contour>
        <pt x="38" y="33" on="1"/>
        <pt x="128" y="53" on="1"/>
        <pt x="128" y="558" on="1"/>
        <pt x="38" y="578" on="1"/>
        <pt x="38" y="611" on="1"/>
        <pt x="301" y="611" on="1"/>
        <pt x="301" y="578" on="1"/>
        <pt x="211" y="558" on="1"/>
        <pt x="211" y="56" on="1"/>
        <pt x="403" y="56" on="1"/>
        <pt x="428" y="147" on="1"/>
        <pt x="466" y="147" on="1"/>
        <pt x="466" y="0" on="1"/>
        <pt x="38" y="0" on="1"/>
      </contour>
    </TTGlyph>
    <TTGlyph name="Lcommaaccent" xMin="38" yMin="-221" xMax="466" yMax="611">
      <contour>
        <pt x="38" y="33" on="1"/>
        <pt x="128" y="53" on="1"/>
        <pt x="128" y="558" on="1"/>
        <pt x="38" y="578" on="1"/>
        <pt x="38" y="611" on="1"/>
        <pt x="301" y="611" on="1"/>
        <pt x="301" y="578" on="1"/>
        <pt x="211" y="558" on="1"/>
        <pt x="211" y="56" on="1"/>
        <pt x="403" y="56" on="1"/>
        <pt x="428" y="147" on="1"/>
        <pt x="466" y="147" on="1"/>
        <pt x="466" y="0" on="1"/>
        <pt x="38" y="0" on="1"/>
      </contour>
      <contour>
        <pt x="239" y="-43" on="1"/>
        <pt x="309" y="-28" on="1"/>
        <pt x="322" y="-42" on="1"/>
        <pt x="258" y="-221" on="1"/>
        <pt x="224" y="-221" on="1"/>
      </contour>
    </TTGlyph>
    <TTGlyph name="Ldot" xMin="38" yMin="0" xMax="466" yMax="611">
      <component glyphName=".ttfautohint" x="38" y="0" flags="0x0"/>
      <component glyphName="L" x="0" y="0" flags="0x0"/>
      <component glyphName="periodcentered" x="289" y="182" flags="0x4"/>
    </TTGlyph>
    <TTGlyph name="Lslash" xMin="36" yMin="0" xMax="466" yMax="611">
      <contour>
        <pt x="38" y="33" on="1"/>
        <pt x="128" y="53" on="1"/>
        <pt x="128" y="257" on="1"/>
        <pt x="58" y="218" on="1"/>
        <pt x="36" y="255" on="1"/>
        <pt x="128" y="308" on="1"/>
        <pt x="128" y="558" on="1"/>
        <pt x="38" y="578" on="1"/>
        <pt x="38" y="611" on="1"/>
        <pt x="301" y="611" on="1"/>
        <pt x="301" y="578" on="1"/>
        <pt x="211" y="558" on="1"/>
        <pt x="211" y="355" on="1"/>
        <pt x="310" y="412" on="1"/>
        <pt x="334" y="373" on="1"/>
        <pt x="211" y="304" on="1"/>
        <pt x="211" y="56" on="1"/>
        <pt x="403" y="56" on="1"/>
        <pt x="428" y="147" on="1"/>
        <pt x="466" y="147" on="1"/>
        <pt x="466" y="0" on="1"/>
        <pt x="38" y="0" on="1"/>
      </contour>
    </TTGlyph>
    <TTGlyph name="M" xMin="22" yMin="-10" xMax="776" yMax="611">
      <contour>
        <pt x="22" y="0" on="1"/>
        <pt x="22" y="33" on="1"/>
        <pt x="103" y="53" on="1"/>
        <pt x="120" y="559" on="1"/>
        <pt x="40" y="578" on="1"/>
        <pt x="40" y="611" on="1"/>
        <pt x="225" y="611" on="1"/>
        <pt x="399" y="122" on="1"/>
        <pt x="564" y="611" on="1"/>
        <pt x="755" y="611" on="1"/>
        <pt x="755" y="578" on="1"/>
        <pt x="665" y="558" on="1"/>
        <pt x="684" y="53" on="1"/>
        <pt x="776" y="33" on="1"/>
        <pt x="776" y="0" on="1"/>
        <pt x="514" y="0" on="1"/>
        <pt x="514" y="33" on="1"/>
        <pt x="603" y="53" on="1"/>
        <pt x="587" y="508" on="1"/>
        <pt x="410" y="0" on="1"/>
        <pt x="360" y="-10" on="1"/>
        <pt x="173" y="511" on="1"/>
        <pt x="158" y="53" on="1"/>
        <pt x="247" y="33" on="1"/>
        <pt x="247" y="0" on="1"/>
      </contour>
    </TTGlyph>
    <TTGlyph name="N" xMin="36" yMin="-10" xMax="666" yMax="611">
      <contour>
        <pt x="666" y="611" on="1"/>
        <pt x="666" y="578" on="1"/>
        <pt x="585" y="559" on="1"/>
        <pt x="585" y="0" on="1"/>
        <pt x="523" y="-10" on="1"/>
        <pt x="174" y="488" on="1"/>
        <pt x="174" y="53" on="1"/>
        <pt x="260" y="33" on="1"/>
        <pt x="260" y="0" on="1"/>
        <pt x="36" y="0" on="1"/>
        <pt x="36" y="33" on="1"/>
        <pt x="116" y="53" on="1"/>
        <pt x="116" y="559" on="1"/>
        <pt x="36" y="578" on="1"/>
        <pt x="36" y="611" on="1"/>
        <pt x="184" y="611" on="1"/>
        <pt x="529" y="130" on="1"/>
        <pt x="529" y="559" on="1"/>
        <pt x="444" y="578" on="1"/>
        <pt x="444" y="611" on="1"/>
      </contour>
    </TTGlyph>
    <TTGlyph name="Nacute" xMin="34" yMin="-10" xMax="664" yMax="799">
      <contour>
        <pt x="250" y="669" on="1"/>
        <pt x="404" y="799" on="1"/>
        <pt x="480" y="771" on="1"/>
        <pt x="480" y="753" on="1"/>
        <pt x="266" y="650" on="1"/>
      </contour>
      <contour>
        <pt x="664" y="611" on="1"/>
        <pt x="664" y="578" on="1"/>
        <pt x="583" y="559" on="1"/>
        <pt x="583" y="0" on="1"/>
        <pt x="521" y="-10" on="1"/>
        <pt x="172" y="488" on="1"/>
        <pt x="172" y="53" on="1"/>
        <pt x="258" y="33" on="1"/>
        <pt x="258" y="0" on="1"/>
        <pt x="34" y="0" on="1"/>
        <pt x="34" y="33" on="1"/>
        <pt x="114" y="53" on="1"/>
        <pt x="114" y="559" on="1"/>
        <pt x="34" y="578" on="1"/>
        <pt x="34" y="611" on="1"/>
        <pt x="182" y="611" on="1"/>
        <pt x="527" y="130" on="1"/>
        <pt x="527" y="559" on="1"/>
        <pt x="442" y="578" on="1"/>
        <pt x="442" y="611" on="1"/>
      </contour>
    </TTGlyph>
    <TTGlyph name="Nacute.loclPLK" xMin="36" yMin="-10" xMax="666" yMax="800">
      <component glyphName=".ttfautohint" x="36" y="0" flags="0x0"/>
      <component glyphName="N" x="0" y="0" flags="0x0"/>
      <component glyphName="acute.loclPLK.case" x="242" y="0" flags="0x0"/>
    </TTGlyph>
    <TTGlyph name="Ncaron" xMin="34" yMin="-10" xMax="664" yMax="800">
      <contour>
        <pt x="222" y="782" on="1"/>
        <pt x="239" y="800" on="1"/>
        <pt x="355" y="718" on="1"/>
        <pt x="466" y="800" on="1"/>
        <pt x="484" y="782" on="1"/>
        <pt x="384" y="651" on="1"/>
        <pt x="324" y="651" on="1"/>
      </contour>
      <contour>
        <pt x="172" y="488" on="1"/>
        <pt x="172" y="53" on="1"/>
        <pt x="258" y="33" on="1"/>
        <pt x="258" y="0" on="1"/>
        <pt x="34" y="0" on="1"/>
        <pt x="34" y="33" on="1"/>
        <pt x="114" y="53" on="1"/>
        <pt x="114" y="559" on="1"/>
        <pt x="34" y="578" on="1"/>
        <pt x="34" y="611" on="1"/>
        <pt x="182" y="611" on="1"/>
        <pt x="527" y="130" on="1"/>
        <pt x="527" y="559" on="1"/>
        <pt x="442" y="578" on="1"/>
        <pt x="442" y="611" on="1"/>
        <pt x="664" y="611" on="1"/>
        <pt x="664" y="578" on="1"/>
        <pt x="583" y="559" on="1"/>
        <pt x="583" y="0" on="1"/>
        <pt x="521" y="-10" on="1"/>
      </contour>
    </TTGlyph>
    <TTGlyph name="Ncommaaccent" xMin="34" yMin="-221" xMax="664" yMax="611">
      <contour>
        <pt x="172" y="488" on="1"/>
        <pt x="172" y="53" on="1"/>
        <pt x="258" y="33" on="1"/>
        <pt x="258" y="0" on="1"/>
        <pt x="34" y="0" on="1"/>
        <pt x="34" y="33" on="1"/>
        <pt x="114" y="53" on="1"/>
        <pt x="114" y="559" on="1"/>
        <pt x="34" y="578" on="1"/>
        <pt x="34" y="611" on="1"/>
        <pt x="182" y="611" on="1"/>
        <pt x="527" y="130" on="1"/>
        <pt x="527" y="559" on="1"/>
        <pt x="442" y="578" on="1"/>
        <pt x="442" y="611" on="1"/>
        <pt x="664" y="611" on="1"/>
        <pt x="664" y="578" on="1"/>
        <pt x="583" y="559" on="1"/>
        <pt x="583" y="0" on="1"/>
        <pt x="521" y="-10" on="1"/>
      </contour>
      <contour>
        <pt x="323" y="-43" on="1"/>
        <pt x="393" y="-28" on="1"/>
        <pt x="407" y="-42" on="1"/>
        <pt x="342" y="-221" on="1"/>
        <pt x="309" y="-221" on="1"/>
      </contour>
    </TTGlyph>
    <TTGlyph name="Ntilde" xMin="34" yMin="-10" xMax="664" yMax="779">
      <contour>
        <pt x="482" y="716" on="0"/>
        <pt x="450" y="669" on="0"/>
        <pt x="428" y="669" on="1"/>
        <pt x="410" y="669" on="0"/>
        <pt x="356" y="689" on="1"/>
        <pt x="302" y="709" on="0"/>
        <pt x="286" y="709" on="1"/>
        <pt x="276" y="709" on="0"/>
        <pt x="256" y="693" on="0"/>
        <pt x="243" y="676" on="0"/>
        <pt x="241" y="673" on="1"/>
        <pt x="211" y="685" on="1"/>
        <pt x="230" y="732" on="0"/>
        <pt x="263" y="779" on="0"/>
        <pt x="285" y="779" on="1"/>
        <pt x="296" y="779" on="0"/>
        <pt x="335" y="767" on="0"/>
        <pt x="355" y="759" on="1"/>
        <pt x="375" y="751" on="0"/>
        <pt x="415" y="739" on="0"/>
        <pt x="427" y="739" on="1"/>
        <pt x="437" y="739" on="0"/>
        <pt x="456" y="755" on="0"/>
        <pt x="469" y="771" on="0"/>
        <pt x="470" y="774" on="1"/>
        <pt x="501" y="762" on="1"/>
      </contour>
      <contour>
        <pt x="664" y="611" on="1"/>
        <pt x="664" y="578" on="1"/>
        <pt x="583" y="559" on="1"/>
        <pt x="583" y="0" on="1"/>
        <pt x="521" y="-10" on="1"/>
        <pt x="172" y="488" on="1"/>
        <pt x="172" y="53" on="1"/>
        <pt x="258" y="33" on="1"/>
        <pt x="258" y="0" on="1"/>
        <pt x="34" y="0" on="1"/>
        <pt x="34" y="33" on="1"/>
        <pt x="114" y="53" on="1"/>
        <pt x="114" y="559" on="1"/>
        <pt x="34" y="578" on="1"/>
        <pt x="34" y="611" on="1"/>
        <pt x="182" y="611" on="1"/>
        <pt x="527" y="130" on="1"/>
        <pt x="527" y="559" on="1"/>
        <pt x="442" y="578" on="1"/>
        <pt x="442" y="611" on="1"/>
      </contour>
    </TTGlyph>
    <TTGlyph name="O" xMin="41" yMin="-9" xMax="617" yMax="626">
      <contour>
        <pt x="477" y="626" on="0"/>
        <pt x="617" y="450" on="0"/>
        <pt x="617" y="308" on="1"/>
        <pt x="617" y="167" on="0"/>
        <pt x="476" y="-9" on="0"/>
        <pt x="330" y="-9" on="1"/>
        <pt x="184" y="-9" on="0"/>
        <pt x="41" y="167" on="0"/>
        <pt x="41" y="308" on="1"/>
        <pt x="41" y="449" on="0"/>
        <pt x="183" y="626" on="0"/>
        <pt x="330" y="626" on="1"/>
      </contour>
      <contour>
        <pt x="527" y="416" on="0"/>
        <pt x="436" y="578" on="0"/>
        <pt x="324" y="578" on="1"/>
        <pt x="216" y="578" on="0"/>
        <pt x="131" y="417" on="0"/>
        <pt x="131" y="308" on="1"/>
        <pt x="131" y="201" on="0"/>
        <pt x="222" y="39" on="0"/>
        <pt x="333" y="39" on="1"/>
        <pt x="443" y="39" on="0"/>
        <pt x="527" y="200" on="0"/>
        <pt x="527" y="308" on="1"/>
      </contour>
    </TTGlyph>
    <TTGlyph name="OE" xMin="41" yMin="0" xMax="780" yMax="611">
      <contour>
        <pt x="754" y="479" on="1"/>
        <pt x="716" y="479" on="1"/>
        <pt x="694" y="559" on="1"/>
        <pt x="501" y="559" on="1"/>
        <pt x="501" y="323" on="1"/>
        <pt x="643" y="323" on="1"/>
        <pt x="664" y="389" on="1"/>
        <pt x="701" y="389" on="1"/>
        <pt x="701" y="208" on="1"/>
        <pt x="664" y="208" on="1"/>
        <pt x="641" y="277" on="1"/>
        <pt x="501" y="277" on="1"/>
        <pt x="501" y="56" on="1"/>
        <pt x="714" y="56" on="1"/>
        <pt x="741" y="147" on="1"/>
        <pt x="780" y="147" on="1"/>
        <pt x="780" y="0" on="1"/>
        <pt x="330" y="0" on="1"/>
        <pt x="183" y="0" on="0"/>
        <pt x="41" y="169" on="0"/>
        <pt x="41" y="308" on="1"/>
        <pt x="41" y="447" on="0"/>
        <pt x="181" y="611" on="0"/>
        <pt x="330" y="611" on="1"/>
        <pt x="754" y="611" on="1"/>
      </contour>
      <contour>
        <pt x="393" y="562" on="0"/>
        <pt x="354" y="566" on="0"/>
        <pt x="324" y="566" on="1"/>
        <pt x="215" y="566" on="0"/>
        <pt x="130" y="414" on="0"/>
        <pt x="130" y="308" on="1"/>
        <pt x="130" y="203" on="0"/>
        <pt x="221" y="46" on="0"/>
        <pt x="333" y="46" on="1"/>
        <pt x="387" y="46" on="0"/>
        <pt x="418" y="53" on="1"/>
        <pt x="418" y="558" on="1"/>
      </contour>
    </TTGlyph>
    <TTGlyph name="Oacute" xMin="41" yMin="-9" xMax="617" yMax="799">
      <component glyphName=".ttfautohint" x="41" y="0" flags="0x0"/>
      <component glyphName="O" x="0" y="0" flags="0x0"/>
      <component glyphName="acute.case" x="255" y="0" flags="0x0"/>
    </TTGlyph>
    <TTGlyph name="Oacute.loclPLK" xMin="41" yMin="-9" xMax="617" yMax="800">
      <component glyphName=".ttfautohint" x="41" y="0" flags="0x0"/>
      <component glyphName="O" x="0" y="0" flags="0x0"/>
      <component glyphName="acute.loclPLK.case" x="225" y="0" flags="0x0"/>
    </TTGlyph>
    <TTGlyph name="Obreve" xMin="41" yMin="-9" xMax="617" yMax="781">
      <component glyphName=".ttfautohint" x="41" y="0" flags="0x0"/>
      <component glyphName="O" x="0" y="0" flags="0x0"/>
      <component glyphName="uni0306" x="457" y="0" flags="0x0"/>
    </TTGlyph>
    <TTGlyph name="Ocircumflex" xMin="41" yMin="-9" xMax="617" yMax="800">
      <contour>
        <pt x="327" y="733" on="1"/>
        <pt x="216" y="651" on="1"/>
        <pt x="199" y="669" on="1"/>
        <pt x="299" y="800" on="1"/>
        <pt x="359" y="800" on="1"/>
        <pt x="461" y="669" on="1"/>
        <pt x="443" y="651" on="1"/>
      </contour>
      <contour>
        <pt x="477" y="626" on="0"/>
        <pt x="617" y="450" on="0"/>
        <pt x="617" y="308" on="1"/>
        <pt x="617" y="167" on="0"/>
        <pt x="476" y="-9" on="0"/>
        <pt x="330" y="-9" on="1"/>
        <pt x="184" y="-9" on="0"/>
        <pt x="41" y="167" on="0"/>
        <pt x="41" y="308" on="1"/>
        <pt x="41" y="449" on="0"/>
        <pt x="183" y="626" on="0"/>
        <pt x="330" y="626" on="1"/>
      </contour>
      <contour>
        <pt x="527" y="416" on="0"/>
        <pt x="436" y="578" on="0"/>
        <pt x="324" y="578" on="1"/>
        <pt x="216" y="578" on="0"/>
        <pt x="131" y="417" on="0"/>
        <pt x="131" y="308" on="1"/>
        <pt x="131" y="201" on="0"/>
        <pt x="222" y="39" on="0"/>
        <pt x="333" y="39" on="1"/>
        <pt x="443" y="39" on="0"/>
        <pt x="527" y="200" on="0"/>
        <pt x="527" y="308" on="1"/>
      </contour>
    </TTGlyph>
    <TTGlyph name="Odieresis" xMin="41" yMin="-9" xMax="617" yMax="781">
      <contour>
        <pt x="289" y="701" on="0"/>
        <pt x="255" y="668" on="0"/>
        <pt x="232" y="668" on="1"/>
        <pt x="209" y="668" on="0"/>
        <pt x="175" y="701" on="0"/>
        <pt x="175" y="723" on="1"/>
        <pt x="175" y="747" on="0"/>
        <pt x="209" y="781" on="0"/>
        <pt x="232" y="781" on="1"/>
        <pt x="255" y="781" on="0"/>
        <pt x="289" y="747" on="0"/>
        <pt x="289" y="723" on="1"/>
      </contour>
      <contour>
        <pt x="484" y="701" on="0"/>
        <pt x="449" y="668" on="0"/>
        <pt x="426" y="668" on="1"/>
        <pt x="403" y="668" on="0"/>
        <pt x="369" y="701" on="0"/>
        <pt x="369" y="723" on="1"/>
        <pt x="369" y="747" on="0"/>
        <pt x="403" y="781" on="0"/>
        <pt x="426" y="781" on="1"/>
        <pt x="449" y="781" on="0"/>
        <pt x="484" y="747" on="0"/>
        <pt x="484" y="723" on="1"/>
      </contour>
      <contour>
        <pt x="477" y="626" on="0"/>
        <pt x="617" y="450" on="0"/>
        <pt x="617" y="308" on="1"/>
        <pt x="617" y="167" on="0"/>
        <pt x="476" y="-9" on="0"/>
        <pt x="330" y="-9" on="1"/>
        <pt x="184" y="-9" on="0"/>
        <pt x="41" y="167" on="0"/>
        <pt x="41" y="308" on="1"/>
        <pt x="41" y="449" on="0"/>
        <pt x="183" y="626" on="0"/>
        <pt x="330" y="626" on="1"/>
      </contour>
      <contour>
        <pt x="527" y="416" on="0"/>
        <pt x="436" y="578" on="0"/>
        <pt x="324" y="578" on="1"/>
        <pt x="216" y="578" on="0"/>
        <pt x="131" y="417" on="0"/>
        <pt x="131" y="308" on="1"/>
        <pt x="131" y="201" on="0"/>
        <pt x="222" y="39" on="0"/>
        <pt x="333" y="39" on="1"/>
        <pt x="443" y="39" on="0"/>
        <pt x="527" y="200" on="0"/>
        <pt x="527" y="308" on="1"/>
      </contour>
    </TTGlyph>
    <TTGlyph name="Ograve" xMin="41" yMin="-9" xMax="617" yMax="799">
      <contour>
        <pt x="206" y="753" on="1"/>
        <pt x="206" y="771" on="1"/>
        <pt x="283" y="799" on="1"/>
        <pt x="436" y="669" on="1"/>
        <pt x="422" y="650" on="1"/>
      </contour>
      <contour>
        <pt x="477" y="626" on="0"/>
        <pt x="617" y="450" on="0"/>
        <pt x="617" y="308" on="1"/>
        <pt x="617" y="167" on="0"/>
        <pt x="476" y="-9" on="0"/>
        <pt x="330" y="-9" on="1"/>
        <pt x="184" y="-9" on="0"/>
        <pt x="41" y="167" on="0"/>
        <pt x="41" y="308" on="1"/>
        <pt x="41" y="449" on="0"/>
        <pt x="183" y="626" on="0"/>
        <pt x="330" y="626" on="1"/>
      </contour>
      <contour>
        <pt x="527" y="416" on="0"/>
        <pt x="436" y="578" on="0"/>
        <pt x="324" y="578" on="1"/>
        <pt x="216" y="578" on="0"/>
        <pt x="131" y="417" on="0"/>
        <pt x="131" y="308" on="1"/>
        <pt x="131" y="201" on="0"/>
        <pt x="222" y="39" on="0"/>
        <pt x="333" y="39" on="1"/>
        <pt x="443" y="39" on="0"/>
        <pt x="527" y="200" on="0"/>
        <pt x="527" y="308" on="1"/>
      </contour>
    </TTGlyph>
    <TTGlyph name="Ohorn" xMin="41" yMin="-9" xMax="668" yMax="703">
      <contour>
        <pt x="668" y="607" on="0"/>
        <pt x="597" y="553" on="0"/>
        <pt x="542" y="543" on="1"/>
        <pt x="617" y="461" on="0"/>
        <pt x="617" y="308" on="1"/>
        <pt x="617" y="167" on="0"/>
        <pt x="476" y="-9" on="0"/>
        <pt x="330" y="-9" on="1"/>
        <pt x="184" y="-9" on="0"/>
        <pt x="41" y="167" on="0"/>
        <pt x="41" y="308" on="1"/>
        <pt x="41" y="449" on="0"/>
        <pt x="183" y="626" on="0"/>
        <pt x="330" y="626" on="1"/>
        <pt x="431" y="626" on="0"/>
        <pt x="497" y="582" on="1"/>
        <pt x="520" y="582" on="1"/>
        <pt x="553" y="582" on="0"/>
        <pt x="586" y="604" on="0"/>
        <pt x="586" y="635" on="1"/>
        <pt x="586" y="654" on="0"/>
        <pt x="581" y="676" on="1"/>
        <pt x="587" y="689" on="1"/>
        <pt x="655" y="703" on="1"/>
        <pt x="661" y="690" on="0"/>
        <pt x="668" y="658" on="0"/>
        <pt x="668" y="646" on="1"/>
      </contour>
      <contour>
        <pt x="443" y="39" on="0"/>
        <pt x="527" y="200" on="0"/>
        <pt x="527" y="308" on="1"/>
        <pt x="527" y="416" on="0"/>
        <pt x="436" y="578" on="0"/>
        <pt x="324" y="578" on="1"/>
        <pt x="216" y="578" on="0"/>
        <pt x="131" y="417" on="0"/>
        <pt x="131" y="308" on="1"/>
        <pt x="131" y="201" on="0"/>
        <pt x="222" y="39" on="0"/>
        <pt x="333" y="39" on="1"/>
      </contour>
    </TTGlyph>
    <TTGlyph name="Ohungarumlaut" xMin="41" yMin="-9" xMax="617" yMax="800">
      <contour>
        <pt x="193" y="667" on="1"/>
        <pt x="269" y="800" on="1"/>
        <pt x="343" y="800" on="1"/>
        <pt x="343" y="783" on="1"/>
        <pt x="216" y="652" on="1"/>
      </contour>
      <contour>
        <pt x="354" y="667" on="1"/>
        <pt x="430" y="800" on="1"/>
        <pt x="504" y="800" on="1"/>
        <pt x="504" y="783" on="1"/>
        <pt x="377" y="652" on="1"/>
      </contour>
      <contour>
        <pt x="184" y="-9" on="0"/>
        <pt x="41" y="167" on="0"/>
        <pt x="41" y="308" on="1"/>
        <pt x="41" y="449" on="0"/>
        <pt x="183" y="626" on="0"/>
        <pt x="330" y="626" on="1"/>
        <pt x="477" y="626" on="0"/>
        <pt x="617" y="450" on="0"/>
        <pt x="617" y="308" on="1"/>
        <pt x="617" y="167" on="0"/>
        <pt x="476" y="-9" on="0"/>
        <pt x="330" y="-9" on="1"/>
      </contour>
      <contour>
        <pt x="443" y="39" on="0"/>
        <pt x="527" y="200" on="0"/>
        <pt x="527" y="308" on="1"/>
        <pt x="527" y="416" on="0"/>
        <pt x="436" y="578" on="0"/>
        <pt x="324" y="578" on="1"/>
        <pt x="216" y="578" on="0"/>
        <pt x="131" y="417" on="0"/>
        <pt x="131" y="308" on="1"/>
        <pt x="131" y="201" on="0"/>
        <pt x="222" y="39" on="0"/>
        <pt x="333" y="39" on="1"/>
      </contour>
    </TTGlyph>
    <TTGlyph name="Omacron" xMin="41" yMin="-9" xMax="617" yMax="749">
      <contour>
        <pt x="437" y="749" on="1"/>
        <pt x="437" y="697" on="1"/>
        <pt x="220" y="697" on="1"/>
        <pt x="220" y="749" on="1"/>
      </contour>
      <contour>
        <pt x="477" y="626" on="0"/>
        <pt x="617" y="450" on="0"/>
        <pt x="617" y="308" on="1"/>
        <pt x="617" y="167" on="0"/>
        <pt x="476" y="-9" on="0"/>
        <pt x="330" y="-9" on="1"/>
        <pt x="184" y="-9" on="0"/>
        <pt x="41" y="167" on="0"/>
        <pt x="41" y="308" on="1"/>
        <pt x="41" y="449" on="0"/>
        <pt x="183" y="626" on="0"/>
        <pt x="330" y="626" on="1"/>
      </contour>
      <contour>
        <pt x="527" y="416" on="0"/>
        <pt x="436" y="578" on="0"/>
        <pt x="324" y="578" on="1"/>
        <pt x="216" y="578" on="0"/>
        <pt x="131" y="417" on="0"/>
        <pt x="131" y="308" on="1"/>
        <pt x="131" y="201" on="0"/>
        <pt x="222" y="39" on="0"/>
        <pt x="333" y="39" on="1"/>
        <pt x="443" y="39" on="0"/>
        <pt x="527" y="200" on="0"/>
        <pt x="527" y="308" on="1"/>
      </contour>
    </TTGlyph>
    <TTGlyph name="Oslash" xMin="41" yMin="-96" xMax="617" yMax="708">
      <contour>
        <pt x="199" y="16" on="1"/>
        <pt x="119" y="51" on="0"/>
        <pt x="41" y="205" on="0"/>
        <pt x="41" y="308" on="1"/>
        <pt x="41" y="449" on="0"/>
        <pt x="183" y="626" on="0"/>
        <pt x="330" y="626" on="1"/>
        <pt x="362" y="626" on="0"/>
        <pt x="395" y="621" on="1"/>
        <pt x="423" y="708" on="1"/>
        <pt x="484" y="708" on="1"/>
        <pt x="451" y="606" on="1"/>
        <pt x="536" y="573" on="0"/>
        <pt x="617" y="415" on="0"/>
        <pt x="617" y="308" on="1"/>
        <pt x="617" y="167" on="0"/>
        <pt x="476" y="-9" on="0"/>
        <pt x="330" y="-9" on="1"/>
        <pt x="296" y="-9" on="0"/>
        <pt x="254" y="-2" on="1"/>
        <pt x="224" y="-96" on="1"/>
        <pt x="163" y="-96" on="1"/>
      </contour>
      <contour>
        <pt x="379" y="572" on="1"/>
        <pt x="353" y="578" on="0"/>
        <pt x="324" y="578" on="1"/>
        <pt x="216" y="578" on="0"/>
        <pt x="131" y="417" on="0"/>
        <pt x="131" y="308" on="1"/>
        <pt x="131" y="238" on="0"/>
        <pt x="171" y="111" on="0"/>
        <pt x="218" y="75" on="1"/>
      </contour>
      <contour>
        <pt x="443" y="39" on="0"/>
        <pt x="527" y="200" on="0"/>
        <pt x="527" y="308" on="1"/>
        <pt x="527" y="382" on="0"/>
        <pt x="484" y="513" on="0"/>
        <pt x="432" y="548" on="1"/>
        <pt x="270" y="48" on="1"/>
        <pt x="298" y="39" on="0"/>
        <pt x="333" y="39" on="1"/>
      </contour>
    </TTGlyph>
    <TTGlyph name="Oslashacute" xMin="41" yMin="-96" xMax="617" yMax="799">
      <component glyphName=".ttfautohint" x="41" y="0" flags="0x0"/>
      <component glyphName="Oslash" x="0" y="0" flags="0x0"/>
      <component glyphName="acutecomb" x="460" y="0" flags="0x0"/>
    </TTGlyph>
    <TTGlyph name="Otilde" xMin="41" yMin="-9" xMax="617" yMax="779">
      <contour>
        <pt x="455" y="716" on="0"/>
        <pt x="423" y="669" on="0"/>
        <pt x="401" y="669" on="1"/>
        <pt x="383" y="669" on="0"/>
        <pt x="329" y="689" on="1"/>
        <pt x="275" y="709" on="0"/>
        <pt x="259" y="709" on="1"/>
        <pt x="249" y="709" on="0"/>
        <pt x="229" y="693" on="0"/>
        <pt x="216" y="676" on="0"/>
        <pt x="214" y="673" on="1"/>
        <pt x="184" y="685" on="1"/>
        <pt x="203" y="732" on="0"/>
        <pt x="236" y="779" on="0"/>
        <pt x="258" y="779" on="1"/>
        <pt x="269" y="779" on="0"/>
        <pt x="308" y="767" on="0"/>
        <pt x="328" y="759" on="1"/>
        <pt x="348" y="751" on="0"/>
        <pt x="388" y="739" on="0"/>
        <pt x="400" y="739" on="1"/>
        <pt x="410" y="739" on="0"/>
        <pt x="429" y="755" on="0"/>
        <pt x="442" y="771" on="0"/>
        <pt x="443" y="774" on="1"/>
        <pt x="474" y="762" on="1"/>
      </contour>
      <contour>
        <pt x="477" y="626" on="0"/>
        <pt x="617" y="450" on="0"/>
        <pt x="617" y="308" on="1"/>
        <pt x="617" y="167" on="0"/>
        <pt x="476" y="-9" on="0"/>
        <pt x="330" y="-9" on="1"/>
        <pt x="184" y="-9" on="0"/>
        <pt x="41" y="167" on="0"/>
        <pt x="41" y="308" on="1"/>
        <pt x="41" y="449" on="0"/>
        <pt x="183" y="626" on="0"/>
        <pt x="330" y="626" on="1"/>
      </contour>
      <contour>
        <pt x="527" y="416" on="0"/>
        <pt x="436" y="578" on="0"/>
        <pt x="324" y="578" on="1"/>
        <pt x="216" y="578" on="0"/>
        <pt x="131" y="417" on="0"/>
        <pt x="131" y="308" on="1"/>
        <pt x="131" y="201" on="0"/>
        <pt x="222" y="39" on="0"/>
        <pt x="333" y="39" on="1"/>
        <pt x="443" y="39" on="0"/>
        <pt x="527" y="200" on="0"/>
        <pt x="527" y="308" on="1"/>
      </contour>
    </TTGlyph>
    <TTGlyph name="P" xMin="39" yMin="0" xMax="496" yMax="611">
      <contour>
        <pt x="373" y="611" on="0"/>
        <pt x="496" y="525" on="0"/>
        <pt x="496" y="441" on="1"/>
        <pt x="496" y="379" on="0"/>
        <pt x="442" y="293" on="0"/>
        <pt x="350" y="249" on="0"/>
        <pt x="294" y="249" on="1"/>
        <pt x="253" y="249" on="0"/>
        <pt x="213" y="259" on="1"/>
        <pt x="213" y="53" on="1"/>
        <pt x="317" y="34" on="1"/>
        <pt x="317" y="0" on="1"/>
        <pt x="39" y="0" on="1"/>
        <pt x="39" y="33" on="1"/>
        <pt x="130" y="53" on="1"/>
        <pt x="130" y="554" on="1"/>
        <pt x="39" y="576" on="1"/>
        <pt x="39" y="611" on="1"/>
        <pt x="268" y="611" on="1"/>
      </contour>
      <contour>
        <pt x="235" y="289" on="0"/>
        <pt x="272" y="289" on="1"/>
        <pt x="331" y="289" on="0"/>
        <pt x="404" y="357" on="0"/>
        <pt x="404" y="433" on="1"/>
        <pt x="404" y="502" on="0"/>
        <pt x="334" y="569" on="0"/>
        <pt x="277" y="569" on="1"/>
        <pt x="245" y="569" on="0"/>
        <pt x="213" y="559" on="1"/>
        <pt x="213" y="297" on="1"/>
      </contour>
    </TTGlyph>
    <TTGlyph name="Q" xMin="41" yMin="-151" xMax="682" yMax="626">
      <contour>
        <pt x="663" y="-135" on="0"/>
        <pt x="601" y="-151" on="0"/>
        <pt x="577" y="-151" on="1"/>
        <pt x="545" y="-151" on="0"/>
        <pt x="498" y="-137" on="0"/>
        <pt x="451" y="-109" on="1"/>
        <pt x="271" y="0" on="1"/>
        <pt x="162" y="23" on="0"/>
        <pt x="41" y="192" on="0"/>
        <pt x="41" y="308" on="1"/>
        <pt x="41" y="449" on="0"/>
        <pt x="183" y="626" on="0"/>
        <pt x="330" y="626" on="1"/>
        <pt x="478" y="626" on="0"/>
        <pt x="618" y="450" on="0"/>
        <pt x="618" y="308" on="1"/>
        <pt x="618" y="178" on="0"/>
        <pt x="490" y="13" on="0"/>
        <pt x="369" y="-1" on="1"/>
        <pt x="470" y="-49" on="0"/>
        <pt x="582" y="-98" on="0"/>
        <pt x="598" y="-98" on="1"/>
        <pt x="679" y="-98" on="1"/>
        <pt x="682" y="-126" on="1"/>
      </contour>
      <contour>
        <pt x="131" y="244" on="0"/>
        <pt x="169" y="123" on="0"/>
        <pt x="259" y="41" on="0"/>
        <pt x="333" y="41" on="1"/>
        <pt x="406" y="41" on="0"/>
        <pt x="493" y="123" on="0"/>
        <pt x="528" y="244" on="0"/>
        <pt x="528" y="308" on="1"/>
        <pt x="528" y="416" on="0"/>
        <pt x="436" y="578" on="0"/>
        <pt x="324" y="578" on="1"/>
        <pt x="216" y="578" on="0"/>
        <pt x="131" y="417" on="0"/>
        <pt x="131" y="308" on="1"/>
      </contour>
    </TTGlyph>
    <TTGlyph name="R" xMin="40" yMin="0" xMax="587" yMax="611">
      <contour>
        <pt x="382" y="124" on="1"/>
        <pt x="342" y="210" on="0"/>
        <pt x="311" y="265" on="0"/>
        <pt x="285" y="279" on="0"/>
        <pt x="254" y="279" on="1"/>
        <pt x="216" y="279" on="1"/>
        <pt x="216" y="53" on="1"/>
        <pt x="309" y="33" on="1"/>
        <pt x="309" y="0" on="1"/>
        <pt x="40" y="0" on="1"/>
        <pt x="40" y="33" on="1"/>
        <pt x="133" y="53" on="1"/>
        <pt x="133" y="558" on="1"/>
        <pt x="40" y="578" on="1"/>
        <pt x="40" y="611" on="1"/>
        <pt x="283" y="611" on="1"/>
        <pt x="391" y="611" on="0"/>
        <pt x="497" y="523" on="0"/>
        <pt x="497" y="457" on="1"/>
        <pt x="497" y="402" on="0"/>
        <pt x="431" y="310" on="0"/>
        <pt x="352" y="292" on="1"/>
        <pt x="377" y="285" on="0"/>
        <pt x="405" y="262" on="0"/>
        <pt x="426" y="225" on="0"/>
        <pt x="448" y="179" on="1"/>
        <pt x="478" y="113" on="0"/>
        <pt x="509" y="54" on="1"/>
        <pt x="587" y="33" on="1"/>
        <pt x="587" y="0" on="1"/>
        <pt x="441" y="0" on="1"/>
      </contour>
      <contour>
        <pt x="340" y="319" on="0"/>
        <pt x="406" y="391" on="0"/>
        <pt x="406" y="451" on="1"/>
        <pt x="406" y="506" on="0"/>
        <pt x="342" y="569" on="0"/>
        <pt x="279" y="569" on="1"/>
        <pt x="251" y="569" on="0"/>
        <pt x="216" y="559" on="1"/>
        <pt x="216" y="319" on="1"/>
        <pt x="277" y="319" on="1"/>
      </contour>
    </TTGlyph>
    <TTGlyph name="Racute" xMin="40" yMin="0" xMax="587" yMax="799">
      <contour>
        <pt x="175" y="669" on="1"/>
        <pt x="329" y="799" on="1"/>
        <pt x="405" y="771" on="1"/>
        <pt x="405" y="753" on="1"/>
        <pt x="191" y="650" on="1"/>
      </contour>
      <contour>
        <pt x="382" y="124" on="1"/>
        <pt x="342" y="210" on="0"/>
        <pt x="311" y="265" on="0"/>
        <pt x="285" y="279" on="0"/>
        <pt x="254" y="279" on="1"/>
        <pt x="216" y="279" on="1"/>
        <pt x="216" y="53" on="1"/>
        <pt x="309" y="33" on="1"/>
        <pt x="309" y="0" on="1"/>
        <pt x="40" y="0" on="1"/>
        <pt x="40" y="33" on="1"/>
        <pt x="133" y="53" on="1"/>
        <pt x="133" y="558" on="1"/>
        <pt x="40" y="578" on="1"/>
        <pt x="40" y="611" on="1"/>
        <pt x="283" y="611" on="1"/>
        <pt x="391" y="611" on="0"/>
        <pt x="497" y="523" on="0"/>
        <pt x="497" y="457" on="1"/>
        <pt x="497" y="402" on="0"/>
        <pt x="431" y="310" on="0"/>
        <pt x="352" y="292" on="1"/>
        <pt x="377" y="285" on="0"/>
        <pt x="405" y="262" on="0"/>
        <pt x="426" y="225" on="0"/>
        <pt x="448" y="179" on="1"/>
        <pt x="478" y="113" on="0"/>
        <pt x="509" y="54" on="1"/>
        <pt x="587" y="33" on="1"/>
        <pt x="587" y="0" on="1"/>
        <pt x="441" y="0" on="1"/>
      </contour>
      <contour>
        <pt x="340" y="319" on="0"/>
        <pt x="406" y="391" on="0"/>
        <pt x="406" y="451" on="1"/>
        <pt x="406" y="506" on="0"/>
        <pt x="342" y="569" on="0"/>
        <pt x="279" y="569" on="1"/>
        <pt x="251" y="569" on="0"/>
        <pt x="216" y="559" on="1"/>
        <pt x="216" y="319" on="1"/>
        <pt x="277" y="319" on="1"/>
      </contour>
    </TTGlyph>
    <TTGlyph name="Rcaron" xMin="40" yMin="0" xMax="587" yMax="800">
      <contour>
        <pt x="148" y="782" on="1"/>
        <pt x="165" y="800" on="1"/>
        <pt x="281" y="718" on="1"/>
        <pt x="392" y="800" on="1"/>
        <pt x="410" y="782" on="1"/>
        <pt x="310" y="651" on="1"/>
        <pt x="250" y="651" on="1"/>
      </contour>
      <contour>
        <pt x="40" y="33" on="1"/>
        <pt x="133" y="53" on="1"/>
        <pt x="133" y="558" on="1"/>
        <pt x="40" y="578" on="1"/>
        <pt x="40" y="611" on="1"/>
        <pt x="283" y="611" on="1"/>
        <pt x="391" y="611" on="0"/>
        <pt x="497" y="523" on="0"/>
        <pt x="497" y="457" on="1"/>
        <pt x="497" y="402" on="0"/>
        <pt x="431" y="310" on="0"/>
        <pt x="352" y="292" on="1"/>
        <pt x="377" y="285" on="0"/>
        <pt x="405" y="262" on="0"/>
        <pt x="426" y="225" on="0"/>
        <pt x="448" y="179" on="1"/>
        <pt x="478" y="113" on="0"/>
        <pt x="509" y="54" on="1"/>
        <pt x="587" y="33" on="1"/>
        <pt x="587" y="0" on="1"/>
        <pt x="441" y="0" on="1"/>
        <pt x="382" y="124" on="1"/>
        <pt x="342" y="210" on="0"/>
        <pt x="311" y="265" on="0"/>
        <pt x="285" y="279" on="0"/>
        <pt x="254" y="279" on="1"/>
        <pt x="216" y="279" on="1"/>
        <pt x="216" y="53" on="1"/>
        <pt x="309" y="33" on="1"/>
        <pt x="309" y="0" on="1"/>
        <pt x="40" y="0" on="1"/>
      </contour>
      <contour>
        <pt x="277" y="319" on="1"/>
        <pt x="340" y="319" on="0"/>
        <pt x="406" y="391" on="0"/>
        <pt x="406" y="451" on="1"/>
        <pt x="406" y="506" on="0"/>
        <pt x="342" y="569" on="0"/>
        <pt x="279" y="569" on="1"/>
        <pt x="251" y="569" on="0"/>
        <pt x="216" y="559" on="1"/>
        <pt x="216" y="319" on="1"/>
      </contour>
    </TTGlyph>
    <TTGlyph name="Rcommaaccent" xMin="40" yMin="-221" xMax="587" yMax="611">
      <contour>
        <pt x="40" y="33" on="1"/>
        <pt x="133" y="53" on="1"/>
        <pt x="133" y="558" on="1"/>
        <pt x="40" y="578" on="1"/>
        <pt x="40" y="611" on="1"/>
        <pt x="283" y="611" on="1"/>
        <pt x="391" y="611" on="0"/>
        <pt x="497" y="523" on="0"/>
        <pt x="497" y="457" on="1"/>
        <pt x="497" y="402" on="0"/>
        <pt x="431" y="310" on="0"/>
        <pt x="352" y="292" on="1"/>
        <pt x="377" y="285" on="0"/>
        <pt x="405" y="262" on="0"/>
        <pt x="426" y="225" on="0"/>
        <pt x="448" y="179" on="1"/>
        <pt x="478" y="113" on="0"/>
        <pt x="509" y="54" on="1"/>
        <pt x="587" y="33" on="1"/>
        <pt x="587" y="0" on="1"/>
        <pt x="441" y="0" on="1"/>
        <pt x="382" y="124" on="1"/>
        <pt x="342" y="210" on="0"/>
        <pt x="311" y="265" on="0"/>
        <pt x="285" y="279" on="0"/>
        <pt x="254" y="279" on="1"/>
        <pt x="216" y="279" on="1"/>
        <pt x="216" y="53" on="1"/>
        <pt x="309" y="33" on="1"/>
        <pt x="309" y="0" on="1"/>
        <pt x="40" y="0" on="1"/>
      </contour>
      <contour>
        <pt x="277" y="319" on="1"/>
        <pt x="340" y="319" on="0"/>
        <pt x="406" y="391" on="0"/>
        <pt x="406" y="451" on="1"/>
        <pt x="406" y="506" on="0"/>
        <pt x="342" y="569" on="0"/>
        <pt x="279" y="569" on="1"/>
        <pt x="251" y="569" on="0"/>
        <pt x="216" y="559" on="1"/>
        <pt x="216" y="319" on="1"/>
      </contour>
      <contour>
        <pt x="290" y="-43" on="1"/>
        <pt x="360" y="-28" on="1"/>
        <pt x="373" y="-42" on="1"/>
        <pt x="309" y="-221" on="1"/>
        <pt x="276" y="-221" on="1"/>
      </contour>
    </TTGlyph>
    <TTGlyph name="S" xMin="34" yMin="-11" xMax="427" yMax="627">
      <contour>
        <pt x="45" y="537" on="0"/>
        <pt x="149" y="627" on="0"/>
        <pt x="244" y="627" on="1"/>
        <pt x="323" y="627" on="0"/>
        <pt x="406" y="600" on="1"/>
        <pt x="396" y="470" on="1"/>
        <pt x="359" y="470" on="1"/>
        <pt x="337" y="567" on="1"/>
        <pt x="324" y="571" on="0"/>
        <pt x="270" y="577" on="0"/>
        <pt x="250" y="577" on="1"/>
        <pt x="191" y="577" on="0"/>
        <pt x="123" y="524" on="0"/>
        <pt x="123" y="474" on="1"/>
        <pt x="123" y="432" on="0"/>
        <pt x="167" y="383" on="0"/>
        <pt x="215" y="364" on="1"/>
        <pt x="323" y="320" on="1"/>
        <pt x="376" y="300" on="0"/>
        <pt x="427" y="226" on="0"/>
        <pt x="427" y="163" on="1"/>
        <pt x="427" y="81" on="0"/>
        <pt x="314" y="-11" on="0"/>
        <pt x="206" y="-11" on="1"/>
        <pt x="165" y="-11" on="0"/>
        <pt x="71" y="5" on="0"/>
        <pt x="34" y="20" on="1"/>
        <pt x="48" y="138" on="1"/>
        <pt x="85" y="138" on="1"/>
        <pt x="104" y="52" on="1"/>
        <pt x="158" y="38" on="0"/>
        <pt x="212" y="38" on="1"/>
        <pt x="274" y="38" on="0"/>
        <pt x="346" y="95" on="0"/>
        <pt x="346" y="141" on="1"/>
        <pt x="346" y="182" on="0"/>
        <pt x="306" y="239" on="0"/>
        <pt x="258" y="258" on="1"/>
        <pt x="147" y="301" on="1"/>
        <pt x="45" y="340" on="0"/>
        <pt x="45" y="456" on="1"/>
      </contour>
    </TTGlyph>
    <TTGlyph name="Sacute" xMin="38" yMin="-11" xMax="431" yMax="799">
      <contour>
        <pt x="138" y="669" on="1"/>
        <pt x="292" y="799" on="1"/>
        <pt x="368" y="771" on="1"/>
        <pt x="368" y="753" on="1"/>
        <pt x="154" y="650" on="1"/>
      </contour>
      <contour>
        <pt x="49" y="537" on="0"/>
        <pt x="153" y="627" on="0"/>
        <pt x="248" y="627" on="1"/>
        <pt x="327" y="627" on="0"/>
        <pt x="410" y="600" on="1"/>
        <pt x="400" y="470" on="1"/>
        <pt x="363" y="470" on="1"/>
        <pt x="341" y="567" on="1"/>
        <pt x="328" y="571" on="0"/>
        <pt x="274" y="577" on="0"/>
        <pt x="254" y="577" on="1"/>
        <pt x="195" y="577" on="0"/>
        <pt x="127" y="524" on="0"/>
        <pt x="127" y="474" on="1"/>
        <pt x="127" y="432" on="0"/>
        <pt x="171" y="383" on="0"/>
        <pt x="219" y="364" on="1"/>
        <pt x="327" y="320" on="1"/>
        <pt x="380" y="300" on="0"/>
        <pt x="431" y="226" on="0"/>
        <pt x="431" y="163" on="1"/>
        <pt x="431" y="81" on="0"/>
        <pt x="318" y="-11" on="0"/>
        <pt x="210" y="-11" on="1"/>
        <pt x="169" y="-11" on="0"/>
        <pt x="75" y="5" on="0"/>
        <pt x="38" y="20" on="1"/>
        <pt x="52" y="138" on="1"/>
        <pt x="89" y="138" on="1"/>
        <pt x="108" y="52" on="1"/>
        <pt x="162" y="38" on="0"/>
        <pt x="216" y="38" on="1"/>
        <pt x="278" y="38" on="0"/>
        <pt x="350" y="95" on="0"/>
        <pt x="350" y="141" on="1"/>
        <pt x="350" y="183" on="0"/>
        <pt x="310" y="239" on="0"/>
        <pt x="262" y="258" on="1"/>
        <pt x="151" y="301" on="1"/>
        <pt x="49" y="340" on="0"/>
        <pt x="49" y="456" on="1"/>
      </contour>
    </TTGlyph>
    <TTGlyph name="Sacute.loclPLK" xMin="34" yMin="-11" xMax="427" yMax="800">
      <component glyphName=".ttfautohint" x="34" y="0" flags="0x0"/>
      <component glyphName="S" x="0" y="0" flags="0x0"/>
      <component glyphName="acute.loclPLK.case" x="125" y="0" flags="0x0"/>
    </TTGlyph>
    <TTGlyph name="Scaron" xMin="34" yMin="-11" xMax="427" yMax="800">
      <contour>
        <pt x="104" y="782" on="1"/>
        <pt x="121" y="800" on="1"/>
        <pt x="237" y="718" on="1"/>
        <pt x="348" y="800" on="1"/>
        <pt x="366" y="782" on="1"/>
        <pt x="266" y="651" on="1"/>
        <pt x="206" y="651" on="1"/>
      </contour>
      <contour>
        <pt x="165" y="-11" on="0"/>
        <pt x="71" y="5" on="0"/>
        <pt x="34" y="20" on="1"/>
        <pt x="48" y="138" on="1"/>
        <pt x="85" y="138" on="1"/>
        <pt x="104" y="52" on="1"/>
        <pt x="158" y="38" on="0"/>
        <pt x="212" y="38" on="1"/>
        <pt x="274" y="38" on="0"/>
        <pt x="346" y="95" on="0"/>
        <pt x="346" y="141" on="1"/>
        <pt x="346" y="182" on="0"/>
        <pt x="306" y="239" on="0"/>
        <pt x="258" y="258" on="1"/>
        <pt x="147" y="301" on="1"/>
        <pt x="45" y="340" on="0"/>
        <pt x="45" y="456" on="1"/>
        <pt x="45" y="537" on="0"/>
        <pt x="149" y="627" on="0"/>
        <pt x="244" y="627" on="1"/>
        <pt x="323" y="627" on="0"/>
        <pt x="406" y="600" on="1"/>
        <pt x="396" y="470" on="1"/>
        <pt x="359" y="470" on="1"/>
        <pt x="337" y="567" on="1"/>
        <pt x="324" y="571" on="0"/>
        <pt x="270" y="577" on="0"/>
        <pt x="250" y="577" on="1"/>
        <pt x="191" y="577" on="0"/>
        <pt x="123" y="524" on="0"/>
        <pt x="123" y="474" on="1"/>
        <pt x="123" y="432" on="0"/>
        <pt x="167" y="383" on="0"/>
        <pt x="215" y="364" on="1"/>
        <pt x="323" y="320" on="1"/>
        <pt x="376" y="300" on="0"/>
        <pt x="427" y="226" on="0"/>
        <pt x="427" y="163" on="1"/>
        <pt x="427" y="81" on="0"/>
        <pt x="314" y="-11" on="0"/>
        <pt x="206" y="-11" on="1"/>
      </contour>
    </TTGlyph>
    <TTGlyph name="Scedilla" xMin="38" yMin="-219" xMax="431" yMax="627">
      <contour>
        <pt x="161" y="-219" on="0"/>
        <pt x="138" y="-211" on="1"/>
        <pt x="146" y="-186" on="1"/>
        <pt x="166" y="-192" on="0"/>
        <pt x="181" y="-192" on="1"/>
        <pt x="216" y="-192" on="0"/>
        <pt x="260" y="-152" on="0"/>
        <pt x="260" y="-124" on="1"/>
        <pt x="260" y="-103" on="0"/>
        <pt x="223" y="-76" on="0"/>
        <pt x="183" y="-76" on="1"/>
        <pt x="180" y="-67" on="1"/>
        <pt x="199" y="-11" on="1"/>
        <pt x="159" y="-10" on="0"/>
        <pt x="72" y="6" on="0"/>
        <pt x="38" y="20" on="1"/>
        <pt x="52" y="138" on="1"/>
        <pt x="89" y="138" on="1"/>
        <pt x="108" y="52" on="1"/>
        <pt x="162" y="38" on="0"/>
        <pt x="216" y="38" on="1"/>
        <pt x="278" y="38" on="0"/>
        <pt x="350" y="95" on="0"/>
        <pt x="350" y="141" on="1"/>
        <pt x="350" y="183" on="0"/>
        <pt x="310" y="239" on="0"/>
        <pt x="262" y="258" on="1"/>
        <pt x="151" y="301" on="1"/>
        <pt x="49" y="340" on="0"/>
        <pt x="49" y="456" on="1"/>
        <pt x="49" y="537" on="0"/>
        <pt x="153" y="627" on="0"/>
        <pt x="248" y="627" on="1"/>
        <pt x="327" y="627" on="0"/>
        <pt x="410" y="600" on="1"/>
        <pt x="400" y="470" on="1"/>
        <pt x="363" y="470" on="1"/>
        <pt x="341" y="567" on="1"/>
        <pt x="328" y="571" on="0"/>
        <pt x="274" y="577" on="0"/>
        <pt x="254" y="577" on="1"/>
        <pt x="195" y="577" on="0"/>
        <pt x="127" y="524" on="0"/>
        <pt x="127" y="474" on="1"/>
        <pt x="127" y="432" on="0"/>
        <pt x="171" y="383" on="0"/>
        <pt x="219" y="364" on="1"/>
        <pt x="327" y="320" on="1"/>
        <pt x="380" y="300" on="0"/>
        <pt x="431" y="226" on="0"/>
        <pt x="431" y="163" on="1"/>
        <pt x="431" y="85" on="0"/>
        <pt x="328" y="-7" on="0"/>
        <pt x="229" y="-11" on="1"/>
        <pt x="218" y="-46" on="1"/>
        <pt x="270" y="-46" on="0"/>
        <pt x="325" y="-86" on="0"/>
        <pt x="325" y="-116" on="1"/>
        <pt x="325" y="-144" on="0"/>
        <pt x="288" y="-191" on="0"/>
        <pt x="226" y="-219" on="0"/>
        <pt x="190" y="-219" on="1"/>
      </contour>
    </TTGlyph>
    <TTGlyph name="Scircumflex" xMin="34" yMin="-11" xMax="427" yMax="800">
      <component glyphName=".ttfautohint" x="34" y="0" flags="0x0"/>
      <component glyphName="S" x="0" y="0" flags="0x0"/>
      <component glyphName="uni0302" x="357" y="0" flags="0x0"/>
    </TTGlyph>
    <TTGlyph name="Scommaaccent" xMin="38" yMin="-221" xMax="431" yMax="627">
      <contour>
        <pt x="169" y="-11" on="0"/>
        <pt x="75" y="5" on="0"/>
        <pt x="38" y="20" on="1"/>
        <pt x="52" y="138" on="1"/>
        <pt x="89" y="138" on="1"/>
        <pt x="108" y="52" on="1"/>
        <pt x="162" y="38" on="0"/>
        <pt x="216" y="38" on="1"/>
        <pt x="278" y="38" on="0"/>
        <pt x="350" y="95" on="0"/>
        <pt x="350" y="141" on="1"/>
        <pt x="350" y="183" on="0"/>
        <pt x="310" y="239" on="0"/>
        <pt x="262" y="258" on="1"/>
        <pt x="151" y="301" on="1"/>
        <pt x="49" y="340" on="0"/>
        <pt x="49" y="456" on="1"/>
        <pt x="49" y="537" on="0"/>
        <pt x="153" y="627" on="0"/>
        <pt x="248" y="627" on="1"/>
        <pt x="327" y="627" on="0"/>
        <pt x="410" y="600" on="1"/>
        <pt x="400" y="470" on="1"/>
        <pt x="363" y="470" on="1"/>
        <pt x="341" y="567" on="1"/>
        <pt x="328" y="571" on="0"/>
        <pt x="274" y="577" on="0"/>
        <pt x="254" y="577" on="1"/>
        <pt x="195" y="577" on="0"/>
        <pt x="127" y="524" on="0"/>
        <pt x="127" y="474" on="1"/>
        <pt x="127" y="432" on="0"/>
        <pt x="171" y="383" on="0"/>
        <pt x="219" y="364" on="1"/>
        <pt x="327" y="320" on="1"/>
        <pt x="380" y="300" on="0"/>
        <pt x="431" y="226" on="0"/>
        <pt x="431" y="163" on="1"/>
        <pt x="431" y="81" on="0"/>
        <pt x="318" y="-11" on="0"/>
        <pt x="210" y="-11" on="1"/>
      </contour>
      <contour>
        <pt x="196" y="-43" on="1"/>
        <pt x="266" y="-28" on="1"/>
        <pt x="279" y="-42" on="1"/>
        <pt x="214" y="-221" on="1"/>
        <pt x="181" y="-221" on="1"/>
      </contour>
    </TTGlyph>
    <TTGlyph name="T" xMin="10" yMin="0" xMax="504" yMax="611">
      <contour>
        <pt x="504" y="611" on="1"/>
        <pt x="498" y="471" on="1"/>
        <pt x="459" y="471" on="1"/>
        <pt x="440" y="559" on="1"/>
        <pt x="299" y="559" on="1"/>
        <pt x="299" y="53" on="1"/>
        <pt x="405" y="33" on="1"/>
        <pt x="405" y="0" on="1"/>
        <pt x="109" y="0" on="1"/>
        <pt x="109" y="33" on="1"/>
        <pt x="216" y="53" on="1"/>
        <pt x="216" y="559" on="1"/>
        <pt x="74" y="559" on="1"/>
        <pt x="54" y="471" on="1"/>
        <pt x="18" y="471" on="1"/>
        <pt x="10" y="611" on="1"/>
      </contour>
    </TTGlyph>
    <TTGlyph name="Tbar" xMin="10" yMin="0" xMax="504" yMax="611">
      <contour>
        <pt x="299" y="559" on="1"/>
        <pt x="299" y="332" on="1"/>
        <pt x="477" y="332" on="1"/>
        <pt x="477" y="286" on="1"/>
        <pt x="299" y="286" on="1"/>
        <pt x="299" y="53" on="1"/>
        <pt x="405" y="33" on="1"/>
        <pt x="405" y="0" on="1"/>
        <pt x="109" y="0" on="1"/>
        <pt x="109" y="33" on="1"/>
        <pt x="216" y="53" on="1"/>
        <pt x="216" y="286" on="1"/>
        <pt x="42" y="286" on="1"/>
        <pt x="42" y="332" on="1"/>
        <pt x="216" y="332" on="1"/>
        <pt x="216" y="559" on="1"/>
        <pt x="74" y="559" on="1"/>
        <pt x="54" y="471" on="1"/>
        <pt x="18" y="471" on="1"/>
        <pt x="10" y="611" on="1"/>
        <pt x="504" y="611" on="1"/>
        <pt x="498" y="471" on="1"/>
        <pt x="459" y="471" on="1"/>
        <pt x="440" y="559" on="1"/>
      </contour>
    </TTGlyph>
    <TTGlyph name="Tcaron" xMin="10" yMin="0" xMax="504" yMax="800">
      <contour>
        <pt x="123" y="782" on="1"/>
        <pt x="140" y="800" on="1"/>
        <pt x="256" y="718" on="1"/>
        <pt x="367" y="800" on="1"/>
        <pt x="385" y="782" on="1"/>
        <pt x="285" y="651" on="1"/>
        <pt x="225" y="651" on="1"/>
      </contour>
      <contour>
        <pt x="109" y="33" on="1"/>
        <pt x="216" y="53" on="1"/>
        <pt x="216" y="559" on="1"/>
        <pt x="74" y="559" on="1"/>
        <pt x="54" y="471" on="1"/>
        <pt x="18" y="471" on="1"/>
        <pt x="10" y="611" on="1"/>
        <pt x="504" y="611" on="1"/>
        <pt x="498" y="471" on="1"/>
        <pt x="459" y="471" on="1"/>
        <pt x="440" y="559" on="1"/>
        <pt x="299" y="559" on="1"/>
        <pt x="299" y="53" on="1"/>
        <pt x="405" y="33" on="1"/>
        <pt x="405" y="0" on="1"/>
        <pt x="109" y="0" on="1"/>
      </contour>
    </TTGlyph>
    <TTGlyph name="Thorn" xMin="38" yMin="0" xMax="480" yMax="611">
      <contour>
        <pt x="38" y="33" on="1"/>
        <pt x="128" y="53" on="1"/>
        <pt x="128" y="558" on="1"/>
        <pt x="38" y="578" on="1"/>
        <pt x="38" y="611" on="1"/>
        <pt x="301" y="611" on="1"/>
        <pt x="301" y="578" on="1"/>
        <pt x="211" y="558" on="1"/>
        <pt x="211" y="489" on="1"/>
        <pt x="252" y="489" on="1"/>
        <pt x="358" y="489" on="0"/>
        <pt x="480" y="402" on="0"/>
        <pt x="480" y="319" on="1"/>
        <pt x="480" y="227" on="0"/>
        <pt x="366" y="127" on="0"/>
        <pt x="279" y="127" on="1"/>
        <pt x="243" y="127" on="0"/>
        <pt x="211" y="134" on="1"/>
        <pt x="211" y="53" on="1"/>
        <pt x="301" y="33" on="1"/>
        <pt x="301" y="0" on="1"/>
        <pt x="38" y="0" on="1"/>
      </contour>
      <contour>
        <pt x="315" y="167" on="0"/>
        <pt x="389" y="235" on="0"/>
        <pt x="389" y="311" on="1"/>
        <pt x="389" y="380" on="0"/>
        <pt x="319" y="447" on="0"/>
        <pt x="261" y="447" on="1"/>
        <pt x="241" y="447" on="0"/>
        <pt x="211" y="440" on="1"/>
        <pt x="211" y="171" on="1"/>
        <pt x="231" y="167" on="0"/>
        <pt x="256" y="167" on="1"/>
      </contour>
    </TTGlyph>
    <TTGlyph name="U" xMin="9" yMin="-10" xMax="636" yMax="611">
      <contour>
        <pt x="556" y="141" on="0"/>
        <pt x="460" y="-10" on="0"/>
        <pt x="329" y="-10" on="1"/>
        <pt x="235" y="-10" on="0"/>
        <pt x="134" y="63" on="0"/>
        <pt x="100" y="181" on="0"/>
        <pt x="100" y="264" on="1"/>
        <pt x="100" y="558" on="1"/>
        <pt x="9" y="578" on="1"/>
        <pt x="9" y="611" on="1"/>
        <pt x="273" y="611" on="1"/>
        <pt x="273" y="578" on="1"/>
        <pt x="183" y="558" on="1"/>
        <pt x="183" y="264" on="1"/>
        <pt x="183" y="158" on="0"/>
        <pt x="245" y="41" on="0"/>
        <pt x="333" y="41" on="1"/>
        <pt x="499" y="41" on="0"/>
        <pt x="499" y="237" on="1"/>
        <pt x="499" y="559" on="1"/>
        <pt x="413" y="578" on="1"/>
        <pt x="413" y="611" on="1"/>
        <pt x="636" y="611" on="1"/>
        <pt x="636" y="578" on="1"/>
        <pt x="556" y="559" on="1"/>
        <pt x="556" y="236" on="1"/>
      </contour>
    </TTGlyph>
    <TTGlyph name="Uacute" xMin="9" yMin="-10" xMax="636" yMax="799">
      <contour>
        <pt x="231" y="669" on="1"/>
        <pt x="385" y="799" on="1"/>
        <pt x="461" y="771" on="1"/>
        <pt x="461" y="753" on="1"/>
        <pt x="247" y="650" on="1"/>
      </contour>
      <contour>
        <pt x="556" y="141" on="0"/>
        <pt x="460" y="-10" on="0"/>
        <pt x="329" y="-10" on="1"/>
        <pt x="235" y="-10" on="0"/>
        <pt x="134" y="63" on="0"/>
        <pt x="100" y="181" on="0"/>
        <pt x="100" y="264" on="1"/>
        <pt x="100" y="558" on="1"/>
        <pt x="9" y="578" on="1"/>
        <pt x="9" y="611" on="1"/>
        <pt x="273" y="611" on="1"/>
        <pt x="273" y="578" on="1"/>
        <pt x="183" y="558" on="1"/>
        <pt x="183" y="264" on="1"/>
        <pt x="183" y="158" on="0"/>
        <pt x="245" y="41" on="0"/>
        <pt x="333" y="41" on="1"/>
        <pt x="499" y="41" on="0"/>
        <pt x="499" y="237" on="1"/>
        <pt x="499" y="559" on="1"/>
        <pt x="413" y="578" on="1"/>
        <pt x="413" y="611" on="1"/>
        <pt x="636" y="611" on="1"/>
        <pt x="636" y="578" on="1"/>
        <pt x="556" y="559" on="1"/>
        <pt x="556" y="236" on="1"/>
      </contour>
    </TTGlyph>
    <TTGlyph name="Ubreve" xMin="9" yMin="-10" xMax="636" yMax="781">
      <component glyphName=".ttfautohint" x="9" y="0" flags="0x0"/>
      <component glyphName="U" x="0" y="0" flags="0x0"/>
      <component glyphName="uni0306" x="454" y="0" flags="0x0"/>
    </TTGlyph>
    <TTGlyph name="Ucircumflex" xMin="9" yMin="-10" xMax="636" yMax="800">
      <contour>
        <pt x="340" y="733" on="1"/>
        <pt x="229" y="651" on="1"/>
        <pt x="212" y="669" on="1"/>
        <pt x="312" y="800" on="1"/>
        <pt x="372" y="800" on="1"/>
        <pt x="474" y="669" on="1"/>
        <pt x="456" y="651" on="1"/>
      </contour>
      <contour>
        <pt x="556" y="141" on="0"/>
        <pt x="460" y="-10" on="0"/>
        <pt x="329" y="-10" on="1"/>
        <pt x="235" y="-10" on="0"/>
        <pt x="134" y="63" on="0"/>
        <pt x="100" y="181" on="0"/>
        <pt x="100" y="264" on="1"/>
        <pt x="100" y="558" on="1"/>
        <pt x="9" y="578" on="1"/>
        <pt x="9" y="611" on="1"/>
        <pt x="273" y="611" on="1"/>
        <pt x="273" y="578" on="1"/>
        <pt x="183" y="558" on="1"/>
        <pt x="183" y="264" on="1"/>
        <pt x="183" y="158" on="0"/>
        <pt x="245" y="41" on="0"/>
        <pt x="333" y="41" on="1"/>
        <pt x="499" y="41" on="0"/>
        <pt x="499" y="237" on="1"/>
        <pt x="499" y="559" on="1"/>
        <pt x="413" y="578" on="1"/>
        <pt x="413" y="611" on="1"/>
        <pt x="636" y="611" on="1"/>
        <pt x="636" y="578" on="1"/>
        <pt x="556" y="559" on="1"/>
        <pt x="556" y="236" on="1"/>
      </contour>
    </TTGlyph>
    <TTGlyph name="Udieresis" xMin="9" yMin="-10" xMax="636" yMax="780">
      <contour>
        <pt x="302" y="700" on="0"/>
        <pt x="268" y="667" on="0"/>
        <pt x="245" y="667" on="1"/>
        <pt x="222" y="667" on="0"/>
        <pt x="188" y="700" on="0"/>
        <pt x="188" y="722" on="1"/>
        <pt x="188" y="746" on="0"/>
        <pt x="222" y="780" on="0"/>
        <pt x="245" y="780" on="1"/>
        <pt x="268" y="780" on="0"/>
        <pt x="302" y="746" on="0"/>
        <pt x="302" y="722" on="1"/>
      </contour>
      <contour>
        <pt x="497" y="700" on="0"/>
        <pt x="462" y="667" on="0"/>
        <pt x="439" y="667" on="1"/>
        <pt x="416" y="667" on="0"/>
        <pt x="382" y="700" on="0"/>
        <pt x="382" y="722" on="1"/>
        <pt x="382" y="746" on="0"/>
        <pt x="416" y="780" on="0"/>
        <pt x="439" y="780" on="1"/>
        <pt x="462" y="780" on="0"/>
        <pt x="497" y="746" on="0"/>
        <pt x="497" y="722" on="1"/>
      </contour>
      <contour>
        <pt x="556" y="141" on="0"/>
        <pt x="460" y="-10" on="0"/>
        <pt x="329" y="-10" on="1"/>
        <pt x="235" y="-10" on="0"/>
        <pt x="134" y="63" on="0"/>
        <pt x="100" y="181" on="0"/>
        <pt x="100" y="264" on="1"/>
        <pt x="100" y="558" on="1"/>
        <pt x="9" y="578" on="1"/>
        <pt x="9" y="611" on="1"/>
        <pt x="273" y="611" on="1"/>
        <pt x="273" y="578" on="1"/>
        <pt x="183" y="558" on="1"/>
        <pt x="183" y="264" on="1"/>
        <pt x="183" y="158" on="0"/>
        <pt x="245" y="41" on="0"/>
        <pt x="333" y="41" on="1"/>
        <pt x="499" y="41" on="0"/>
        <pt x="499" y="237" on="1"/>
        <pt x="499" y="559" on="1"/>
        <pt x="413" y="578" on="1"/>
        <pt x="413" y="611" on="1"/>
        <pt x="636" y="611" on="1"/>
        <pt x="636" y="578" on="1"/>
        <pt x="556" y="559" on="1"/>
        <pt x="556" y="236" on="1"/>
      </contour>
    </TTGlyph>
    <TTGlyph name="Ugrave" xMin="9" yMin="-10" xMax="636" yMax="799">
      <contour>
        <pt x="176" y="753" on="1"/>
        <pt x="176" y="771" on="1"/>
        <pt x="253" y="799" on="1"/>
        <pt x="406" y="669" on="1"/>
        <pt x="392" y="650" on="1"/>
      </contour>
      <contour>
        <pt x="556" y="141" on="0"/>
        <pt x="460" y="-10" on="0"/>
        <pt x="329" y="-10" on="1"/>
        <pt x="235" y="-10" on="0"/>
        <pt x="134" y="63" on="0"/>
        <pt x="100" y="181" on="0"/>
        <pt x="100" y="264" on="1"/>
        <pt x="100" y="558" on="1"/>
        <pt x="9" y="578" on="1"/>
        <pt x="9" y="611" on="1"/>
        <pt x="273" y="611" on="1"/>
        <pt x="273" y="578" on="1"/>
        <pt x="183" y="558" on="1"/>
        <pt x="183" y="264" on="1"/>
        <pt x="183" y="158" on="0"/>
        <pt x="245" y="41" on="0"/>
        <pt x="333" y="41" on="1"/>
        <pt x="499" y="41" on="0"/>
        <pt x="499" y="237" on="1"/>
        <pt x="499" y="559" on="1"/>
        <pt x="413" y="578" on="1"/>
        <pt x="413" y="611" on="1"/>
        <pt x="636" y="611" on="1"/>
        <pt x="636" y="578" on="1"/>
        <pt x="556" y="559" on="1"/>
        <pt x="556" y="236" on="1"/>
      </contour>
    </TTGlyph>
    <TTGlyph name="Uhorn" xMin="9" yMin="-10" xMax="697" yMax="732">
      <contour>
        <pt x="697" y="645" on="0"/>
        <pt x="655" y="599" on="0"/>
        <pt x="619" y="585" on="1"/>
        <pt x="556" y="559" on="1"/>
        <pt x="556" y="236" on="1"/>
        <pt x="556" y="141" on="0"/>
        <pt x="460" y="-10" on="0"/>
        <pt x="329" y="-10" on="1"/>
        <pt x="235" y="-10" on="0"/>
        <pt x="134" y="63" on="0"/>
        <pt x="100" y="181" on="0"/>
        <pt x="100" y="264" on="1"/>
        <pt x="100" y="558" on="1"/>
        <pt x="9" y="578" on="1"/>
        <pt x="9" y="611" on="1"/>
        <pt x="273" y="611" on="1"/>
        <pt x="273" y="578" on="1"/>
        <pt x="183" y="558" on="1"/>
        <pt x="183" y="264" on="1"/>
        <pt x="183" y="158" on="0"/>
        <pt x="245" y="41" on="0"/>
        <pt x="333" y="41" on="1"/>
        <pt x="499" y="41" on="0"/>
        <pt x="499" y="237" on="1"/>
        <pt x="499" y="559" on="1"/>
        <pt x="413" y="578" on="1"/>
        <pt x="413" y="611" on="1"/>
        <pt x="549" y="611" on="1"/>
        <pt x="582" y="611" on="0"/>
        <pt x="615" y="633" on="0"/>
        <pt x="615" y="664" on="1"/>
        <pt x="615" y="683" on="0"/>
        <pt x="610" y="705" on="1"/>
        <pt x="616" y="718" on="1"/>
        <pt x="684" y="732" on="1"/>
        <pt x="690" y="719" on="0"/>
        <pt x="697" y="687" on="0"/>
        <pt x="697" y="675" on="1"/>
      </contour>
    </TTGlyph>
    <TTGlyph name="Uhungarumlaut" xMin="9" yMin="-10" xMax="636" yMax="800">
      <contour>
        <pt x="208" y="667" on="1"/>
        <pt x="283" y="800" on="1"/>
        <pt x="358" y="800" on="1"/>
        <pt x="358" y="783" on="1"/>
        <pt x="230" y="652" on="1"/>
      </contour>
      <contour>
        <pt x="369" y="667" on="1"/>
        <pt x="444" y="800" on="1"/>
        <pt x="519" y="800" on="1"/>
        <pt x="519" y="783" on="1"/>
        <pt x="392" y="652" on="1"/>
      </contour>
      <contour>
        <pt x="556" y="141" on="0"/>
        <pt x="460" y="-10" on="0"/>
        <pt x="329" y="-10" on="1"/>
        <pt x="235" y="-10" on="0"/>
        <pt x="134" y="63" on="0"/>
        <pt x="100" y="181" on="0"/>
        <pt x="100" y="264" on="1"/>
        <pt x="100" y="558" on="1"/>
        <pt x="9" y="578" on="1"/>
        <pt x="9" y="611" on="1"/>
        <pt x="273" y="611" on="1"/>
        <pt x="273" y="578" on="1"/>
        <pt x="183" y="558" on="1"/>
        <pt x="183" y="264" on="1"/>
        <pt x="183" y="158" on="0"/>
        <pt x="245" y="41" on="0"/>
        <pt x="333" y="41" on="1"/>
        <pt x="499" y="41" on="0"/>
        <pt x="499" y="237" on="1"/>
        <pt x="499" y="559" on="1"/>
        <pt x="413" y="578" on="1"/>
        <pt x="413" y="611" on="1"/>
        <pt x="636" y="611" on="1"/>
        <pt x="636" y="578" on="1"/>
        <pt x="556" y="559" on="1"/>
        <pt x="556" y="236" on="1"/>
      </contour>
    </TTGlyph>
    <TTGlyph name="Umacron" xMin="9" yMin="-10" xMax="636" yMax="749">
      <contour>
        <pt x="448" y="749" on="1"/>
        <pt x="448" y="697" on="1"/>
        <pt x="231" y="697" on="1"/>
        <pt x="231" y="749" on="1"/>
      </contour>
      <contour>
        <pt x="556" y="141" on="0"/>
        <pt x="460" y="-10" on="0"/>
        <pt x="329" y="-10" on="1"/>
        <pt x="235" y="-10" on="0"/>
        <pt x="134" y="63" on="0"/>
        <pt x="100" y="181" on="0"/>
        <pt x="100" y="264" on="1"/>
        <pt x="100" y="558" on="1"/>
        <pt x="9" y="578" on="1"/>
        <pt x="9" y="611" on="1"/>
        <pt x="273" y="611" on="1"/>
        <pt x="273" y="578" on="1"/>
        <pt x="183" y="558" on="1"/>
        <pt x="183" y="264" on="1"/>
        <pt x="183" y="158" on="0"/>
        <pt x="245" y="41" on="0"/>
        <pt x="333" y="41" on="1"/>
        <pt x="499" y="41" on="0"/>
        <pt x="499" y="237" on="1"/>
        <pt x="499" y="559" on="1"/>
        <pt x="413" y="578" on="1"/>
        <pt x="413" y="611" on="1"/>
        <pt x="636" y="611" on="1"/>
        <pt x="636" y="578" on="1"/>
        <pt x="556" y="559" on="1"/>
        <pt x="556" y="236" on="1"/>
      </contour>
    </TTGlyph>
    <TTGlyph name="Uogonek" xMin="9" yMin="-236" xMax="636" yMax="611">
      <contour>
        <pt x="314" y="-236" on="0"/>
        <pt x="266" y="-187" on="0"/>
        <pt x="266" y="-151" on="1"/>
        <pt x="266" y="-111" on="0"/>
        <pt x="303" y="-38" on="0"/>
        <pt x="339" y="-10" on="1"/>
        <pt x="329" y="-10" on="1"/>
        <pt x="235" y="-10" on="0"/>
        <pt x="134" y="63" on="0"/>
        <pt x="100" y="181" on="0"/>
        <pt x="100" y="264" on="1"/>
        <pt x="100" y="558" on="1"/>
        <pt x="9" y="578" on="1"/>
        <pt x="9" y="611" on="1"/>
        <pt x="273" y="611" on="1"/>
        <pt x="273" y="578" on="1"/>
        <pt x="183" y="558" on="1"/>
        <pt x="183" y="264" on="1"/>
        <pt x="183" y="158" on="0"/>
        <pt x="245" y="41" on="0"/>
        <pt x="333" y="41" on="1"/>
        <pt x="499" y="41" on="0"/>
        <pt x="499" y="237" on="1"/>
        <pt x="499" y="559" on="1"/>
        <pt x="413" y="578" on="1"/>
        <pt x="413" y="611" on="1"/>
        <pt x="636" y="611" on="1"/>
        <pt x="636" y="578" on="1"/>
        <pt x="556" y="559" on="1"/>
        <pt x="556" y="236" on="1"/>
        <pt x="556" y="160" on="0"/>
        <pt x="493" y="25" on="0"/>
        <pt x="409" y="0" on="1"/>
        <pt x="367" y="-14" on="0"/>
        <pt x="334" y="-91" on="0"/>
        <pt x="334" y="-133" on="1"/>
        <pt x="334" y="-161" on="0"/>
        <pt x="363" y="-192" on="0"/>
        <pt x="388" y="-192" on="1"/>
        <pt x="417" y="-192" on="0"/>
        <pt x="438" y="-170" on="1"/>
        <pt x="455" y="-186" on="1"/>
        <pt x="455" y="-188" on="0"/>
        <pt x="431" y="-214" on="0"/>
        <pt x="389" y="-236" on="0"/>
        <pt x="361" y="-236" on="1"/>
      </contour>
    </TTGlyph>
    <TTGlyph name="Uring" xMin="9" yMin="-10" xMax="636" yMax="822">
      <contour>
        <pt x="297" y="633" on="0"/>
        <pt x="244" y="686" on="0"/>
        <pt x="244" y="728" on="1"/>
        <pt x="244" y="769" on="0"/>
        <pt x="297" y="822" on="0"/>
        <pt x="345" y="822" on="1"/>
        <pt x="393" y="822" on="0"/>
        <pt x="445" y="769" on="0"/>
        <pt x="445" y="728" on="1"/>
        <pt x="445" y="686" on="0"/>
        <pt x="393" y="633" on="0"/>
        <pt x="345" y="633" on="1"/>
      </contour>
      <contour>
        <pt x="376" y="668" on="0"/>
        <pt x="396" y="698" on="0"/>
        <pt x="396" y="728" on="1"/>
        <pt x="396" y="757" on="0"/>
        <pt x="376" y="788" on="0"/>
        <pt x="345" y="788" on="1"/>
        <pt x="315" y="788" on="0"/>
        <pt x="294" y="757" on="0"/>
        <pt x="294" y="728" on="1"/>
        <pt x="294" y="698" on="0"/>
        <pt x="315" y="668" on="0"/>
        <pt x="345" y="668" on="1"/>
      </contour>
      <contour>
        <pt x="235" y="-10" on="0"/>
        <pt x="134" y="63" on="0"/>
        <pt x="100" y="181" on="0"/>
        <pt x="100" y="264" on="1"/>
        <pt x="100" y="558" on="1"/>
        <pt x="9" y="578" on="1"/>
        <pt x="9" y="611" on="1"/>
        <pt x="273" y="611" on="1"/>
        <pt x="273" y="578" on="1"/>
        <pt x="183" y="558" on="1"/>
        <pt x="183" y="264" on="1"/>
        <pt x="183" y="158" on="0"/>
        <pt x="245" y="41" on="0"/>
        <pt x="333" y="41" on="1"/>
        <pt x="499" y="41" on="0"/>
        <pt x="499" y="237" on="1"/>
        <pt x="499" y="559" on="1"/>
        <pt x="413" y="578" on="1"/>
        <pt x="413" y="611" on="1"/>
        <pt x="636" y="611" on="1"/>
        <pt x="636" y="578" on="1"/>
        <pt x="556" y="559" on="1"/>
        <pt x="556" y="236" on="1"/>
        <pt x="556" y="141" on="0"/>
        <pt x="460" y="-10" on="0"/>
        <pt x="329" y="-10" on="1"/>
      </contour>
    </TTGlyph>
    <TTGlyph name="Utilde" xMin="9" yMin="-10" xMax="636" yMax="809">
      <contour>
        <pt x="471" y="746" on="0"/>
        <pt x="439" y="699" on="0"/>
        <pt x="417" y="699" on="1"/>
        <pt x="399" y="699" on="0"/>
        <pt x="345" y="719" on="1"/>
        <pt x="291" y="739" on="0"/>
        <pt x="275" y="739" on="1"/>
        <pt x="265" y="739" on="0"/>
        <pt x="245" y="723" on="0"/>
        <pt x="232" y="706" on="0"/>
        <pt x="230" y="703" on="1"/>
        <pt x="200" y="715" on="1"/>
        <pt x="219" y="762" on="0"/>
        <pt x="252" y="809" on="0"/>
        <pt x="274" y="809" on="1"/>
        <pt x="285" y="809" on="0"/>
        <pt x="324" y="797" on="0"/>
        <pt x="344" y="789" on="1"/>
        <pt x="364" y="781" on="0"/>
        <pt x="404" y="769" on="0"/>
        <pt x="416" y="769" on="1"/>
        <pt x="426" y="769" on="0"/>
        <pt x="445" y="785" on="0"/>
        <pt x="458" y="801" on="0"/>
        <pt x="459" y="804" on="1"/>
        <pt x="490" y="792" on="1"/>
      </contour>
      <contour>
        <pt x="556" y="141" on="0"/>
        <pt x="460" y="-10" on="0"/>
        <pt x="329" y="-10" on="1"/>
        <pt x="235" y="-10" on="0"/>
        <pt x="134" y="63" on="0"/>
        <pt x="100" y="181" on="0"/>
        <pt x="100" y="264" on="1"/>
        <pt x="100" y="558" on="1"/>
        <pt x="9" y="578" on="1"/>
        <pt x="9" y="611" on="1"/>
        <pt x="273" y="611" on="1"/>
        <pt x="273" y="578" on="1"/>
        <pt x="183" y="558" on="1"/>
        <pt x="183" y="264" on="1"/>
        <pt x="183" y="158" on="0"/>
        <pt x="245" y="41" on="0"/>
        <pt x="333" y="41" on="1"/>
        <pt x="499" y="41" on="0"/>
        <pt x="499" y="237" on="1"/>
        <pt x="499" y="559" on="1"/>
        <pt x="413" y="578" on="1"/>
        <pt x="413" y="611" on="1"/>
        <pt x="636" y="611" on="1"/>
        <pt x="636" y="578" on="1"/>
        <pt x="556" y="559" on="1"/>
        <pt x="556" y="236" on="1"/>
      </contour>
    </TTGlyph>
    <TTGlyph name="V" xMin="5" yMin="-10" xMax="595" yMax="611">
      <contour>
        <pt x="77" y="558" on="1"/>
        <pt x="5" y="578" on="1"/>
        <pt x="5" y="611" on="1"/>
        <pt x="222" y="611" on="1"/>
        <pt x="222" y="578" on="1"/>
        <pt x="163" y="558" on="1"/>
        <pt x="312" y="126" on="1"/>
        <pt x="318" y="101" on="1"/>
        <pt x="324" y="126" on="1"/>
        <pt x="463" y="558" on="1"/>
        <pt x="391" y="578" on="1"/>
        <pt x="391" y="611" on="1"/>
        <pt x="595" y="611" on="1"/>
        <pt x="595" y="578" on="1"/>
        <pt x="523" y="558" on="1"/>
        <pt x="336" y="2" on="1"/>
        <pt x="273" y="-10" on="1"/>
      </contour>
    </TTGlyph>
    <TTGlyph name="W" xMin="-24" yMin="-9" xMax="776" yMax="611">
      <contour>
        <pt x="776" y="611" on="1"/>
        <pt x="776" y="578" on="1"/>
        <pt x="703" y="558" on="1"/>
        <pt x="566" y="2" on="1"/>
        <pt x="510" y="-9" on="1"/>
        <pt x="375" y="418" on="1"/>
        <pt x="254" y="2" on="1"/>
        <pt x="199" y="-9" on="1"/>
        <pt x="48" y="558" on="1"/>
        <pt x="-24" y="578" on="1"/>
        <pt x="-24" y="611" on="1"/>
        <pt x="195" y="611" on="1"/>
        <pt x="195" y="578" on="1"/>
        <pt x="137" y="558" on="1"/>
        <pt x="238" y="149" on="1"/>
        <pt x="349" y="558" on="1"/>
        <pt x="415" y="570" on="1"/>
        <pt x="543" y="137" on="1"/>
        <pt x="640" y="558" on="1"/>
        <pt x="569" y="578" on="1"/>
        <pt x="569" y="611" on="1"/>
      </contour>
    </TTGlyph>
    <TTGlyph name="Wacute" xMin="-24" yMin="-9" xMax="776" yMax="799">
      <component glyphName=".ttfautohint" x="0" y="0" flags="0x0"/>
      <component glyphName="W" x="0" y="0" flags="0x0"/>
      <component glyphName="acutecomb" x="550" y="0" flags="0x0"/>
    </TTGlyph>
    <TTGlyph name="Wcircumflex" xMin="-24" yMin="-9" xMax="776" yMax="800">
      <component glyphName=".ttfautohint" x="0" y="0" flags="0x0"/>
      <component glyphName="W" x="0" y="0" flags="0x0"/>
      <component glyphName="uni0302" x="497" y="0" flags="0x0"/>
    </TTGlyph>
    <TTGlyph name="Wdieresis" xMin="-24" yMin="-9" xMax="776" yMax="780">
      <component glyphName=".ttfautohint" x="0" y="0" flags="0x0"/>
      <component glyphName="W" x="0" y="0" flags="0x0"/>
      <component glyphName="uni0308" x="496" y="0" flags="0x0"/>
    </TTGlyph>
    <TTGlyph name="Wgrave" xMin="-24" yMin="-9" xMax="776" yMax="799">
      <component glyphName=".ttfautohint" x="0" y="0" flags="0x0"/>
      <component glyphName="W" x="0" y="0" flags="0x0"/>
      <component glyphName="gravecomb" x="447" y="0" flags="0x0"/>
    </TTGlyph>
    <TTGlyph name="X" xMin="1" yMin="0" xMax="566" yMax="611">
      <contour>
        <pt x="208" y="0" on="1"/>
        <pt x="1" y="0" on="1"/>
        <pt x="1" y="33" on="1"/>
        <pt x="70" y="53" on="1"/>
        <pt x="235" y="307" on="1"/>
        <pt x="74" y="558" on="1"/>
        <pt x="7" y="578" on="1"/>
        <pt x="7" y="611" on="1"/>
        <pt x="231" y="611" on="1"/>
        <pt x="231" y="578" on="1"/>
        <pt x="174" y="558" on="1"/>
        <pt x="298" y="363" on="1"/>
        <pt x="422" y="558" on="1"/>
        <pt x="355" y="578" on="1"/>
        <pt x="355" y="611" on="1"/>
        <pt x="561" y="611" on="1"/>
        <pt x="561" y="578" on="1"/>
        <pt x="492" y="558" on="1"/>
        <pt x="331" y="311" on="1"/>
        <pt x="498" y="52" on="1"/>
        <pt x="566" y="33" on="1"/>
        <pt x="566" y="0" on="1"/>
        <pt x="340" y="0" on="1"/>
        <pt x="340" y="33" on="1"/>
        <pt x="399" y="52" on="1"/>
        <pt x="268" y="254" on="1"/>
        <pt x="140" y="53" on="1"/>
        <pt x="208" y="33" on="1"/>
      </contour>
    </TTGlyph>
    <TTGlyph name="Y" xMin="12" yMin="0" xMax="569" yMax="611">
      <contour>
        <pt x="363" y="611" on="1"/>
        <pt x="569" y="611" on="1"/>
        <pt x="569" y="578" on="1"/>
        <pt x="497" y="558" on="1"/>
        <pt x="329" y="224" on="1"/>
        <pt x="329" y="53" on="1"/>
        <pt x="436" y="33" on="1"/>
        <pt x="436" y="0" on="1"/>
        <pt x="140" y="0" on="1"/>
        <pt x="140" y="33" on="1"/>
        <pt x="247" y="53" on="1"/>
        <pt x="247" y="224" on="1"/>
        <pt x="80" y="558" on="1"/>
        <pt x="12" y="578" on="1"/>
        <pt x="12" y="611" on="1"/>
        <pt x="237" y="611" on="1"/>
        <pt x="237" y="578" on="1"/>
        <pt x="179" y="558" on="1"/>
        <pt x="304" y="297" on="1"/>
        <pt x="434" y="558" on="1"/>
        <pt x="363" y="578" on="1"/>
      </contour>
    </TTGlyph>
    <TTGlyph name="Y.loclGUA" xMin="0" yMin="-167" xMax="643" yMax="611">
      <contour>
        <pt x="219" y="-98" on="0"/>
        <pt x="289" y="-116" on="0"/>
        <pt x="321" y="-116" on="1"/>
        <pt x="393" y="-116" on="0"/>
        <pt x="477" y="-32" on="0"/>
        <pt x="477" y="58" on="1"/>
        <pt x="477" y="111" on="1"/>
        <pt x="410" y="54" on="0"/>
        <pt x="310" y="54" on="1"/>
        <pt x="221" y="54" on="0"/>
        <pt x="124" y="127" on="0"/>
        <pt x="91" y="246" on="0"/>
        <pt x="91" y="330" on="1"/>
        <pt x="91" y="558" on="1"/>
        <pt x="0" y="578" on="1"/>
        <pt x="0" y="611" on="1"/>
        <pt x="263" y="611" on="1"/>
        <pt x="263" y="578" on="1"/>
        <pt x="173" y="558" on="1"/>
        <pt x="173" y="330" on="1"/>
        <pt x="173" y="222" on="0"/>
        <pt x="232" y="100" on="0"/>
        <pt x="315" y="100" on="1"/>
        <pt x="382" y="100" on="0"/>
        <pt x="460" y="154" on="0"/>
        <pt x="477" y="194" on="1"/>
        <pt x="477" y="558" on="1"/>
        <pt x="387" y="578" on="1"/>
        <pt x="387" y="611" on="1"/>
        <pt x="643" y="611" on="1"/>
        <pt x="643" y="578" on="1"/>
        <pt x="554" y="558" on="1"/>
        <pt x="554" y="57" on="1"/>
        <pt x="554" y="-7" on="0"/>
        <pt x="500" y="-109" on="0"/>
        <pt x="395" y="-167" on="0"/>
        <pt x="321" y="-167" on="1"/>
        <pt x="263" y="-167" on="0"/>
        <pt x="170" y="-143" on="0"/>
        <pt x="120" y="-117" on="1"/>
        <pt x="138" y="-3" on="1"/>
        <pt x="170" y="-3" on="1"/>
        <pt x="193" y="-83" on="1"/>
      </contour>
    </TTGlyph>
    <TTGlyph name="Yacute" xMin="4" yMin="0" xMax="561" yMax="799">
      <contour>
        <pt x="188" y="669" on="1"/>
        <pt x="342" y="799" on="1"/>
        <pt x="418" y="771" on="1"/>
        <pt x="418" y="753" on="1"/>
        <pt x="204" y="650" on="1"/>
      </contour>
      <contour>
        <pt x="355" y="611" on="1"/>
        <pt x="561" y="611" on="1"/>
        <pt x="561" y="578" on="1"/>
        <pt x="489" y="558" on="1"/>
        <pt x="321" y="224" on="1"/>
        <pt x="321" y="53" on="1"/>
        <pt x="428" y="33" on="1"/>
        <pt x="428" y="0" on="1"/>
        <pt x="132" y="0" on="1"/>
        <pt x="132" y="33" on="1"/>
        <pt x="239" y="53" on="1"/>
        <pt x="239" y="224" on="1"/>
        <pt x="72" y="558" on="1"/>
        <pt x="4" y="578" on="1"/>
        <pt x="4" y="611" on="1"/>
        <pt x="229" y="611" on="1"/>
        <pt x="229" y="578" on="1"/>
        <pt x="171" y="558" on="1"/>
        <pt x="296" y="297" on="1"/>
        <pt x="426" y="558" on="1"/>
        <pt x="355" y="578" on="1"/>
      </contour>
    </TTGlyph>
    <TTGlyph name="Yacute.loclGUA" xMin="9" yMin="-167" xMax="652" yMax="799">
      <contour>
        <pt x="247" y="669" on="1"/>
        <pt x="400" y="799" on="1"/>
        <pt x="477" y="771" on="1"/>
        <pt x="477" y="753" on="1"/>
        <pt x="262" y="650" on="1"/>
      </contour>
      <contour>
        <pt x="228" y="-98" on="0"/>
        <pt x="298" y="-116" on="0"/>
        <pt x="330" y="-116" on="1"/>
        <pt x="402" y="-116" on="0"/>
        <pt x="486" y="-32" on="0"/>
        <pt x="486" y="58" on="1"/>
        <pt x="486" y="111" on="1"/>
        <pt x="419" y="54" on="0"/>
        <pt x="319" y="54" on="1"/>
        <pt x="230" y="54" on="0"/>
        <pt x="133" y="127" on="0"/>
        <pt x="100" y="246" on="0"/>
        <pt x="100" y="330" on="1"/>
        <pt x="100" y="558" on="1"/>
        <pt x="9" y="578" on="1"/>
        <pt x="9" y="611" on="1"/>
        <pt x="272" y="611" on="1"/>
        <pt x="272" y="578" on="1"/>
        <pt x="182" y="558" on="1"/>
        <pt x="182" y="330" on="1"/>
        <pt x="182" y="222" on="0"/>
        <pt x="241" y="100" on="0"/>
        <pt x="324" y="100" on="1"/>
        <pt x="391" y="100" on="0"/>
        <pt x="469" y="154" on="0"/>
        <pt x="486" y="194" on="1"/>
        <pt x="486" y="558" on="1"/>
        <pt x="396" y="578" on="1"/>
        <pt x="396" y="611" on="1"/>
        <pt x="652" y="611" on="1"/>
        <pt x="652" y="578" on="1"/>
        <pt x="563" y="558" on="1"/>
        <pt x="563" y="57" on="1"/>
        <pt x="563" y="-7" on="0"/>
        <pt x="509" y="-109" on="0"/>
        <pt x="404" y="-167" on="0"/>
        <pt x="330" y="-167" on="1"/>
        <pt x="272" y="-167" on="0"/>
        <pt x="179" y="-143" on="0"/>
        <pt x="129" y="-117" on="1"/>
        <pt x="147" y="-3" on="1"/>
        <pt x="179" y="-3" on="1"/>
        <pt x="202" y="-83" on="1"/>
      </contour>
    </TTGlyph>
    <TTGlyph name="Ycircumflex" xMin="4" yMin="0" xMax="561" yMax="800">
      <contour>
        <pt x="291" y="733" on="1"/>
        <pt x="180" y="651" on="1"/>
        <pt x="163" y="669" on="1"/>
        <pt x="263" y="800" on="1"/>
        <pt x="323" y="800" on="1"/>
        <pt x="425" y="669" on="1"/>
        <pt x="407" y="651" on="1"/>
      </contour>
      <contour>
        <pt x="355" y="611" on="1"/>
        <pt x="561" y="611" on="1"/>
        <pt x="561" y="578" on="1"/>
        <pt x="489" y="558" on="1"/>
        <pt x="321" y="224" on="1"/>
        <pt x="321" y="53" on="1"/>
        <pt x="428" y="33" on="1"/>
        <pt x="428" y="0" on="1"/>
        <pt x="132" y="0" on="1"/>
        <pt x="132" y="33" on="1"/>
        <pt x="239" y="53" on="1"/>
        <pt x="239" y="224" on="1"/>
        <pt x="72" y="558" on="1"/>
        <pt x="4" y="578" on="1"/>
        <pt x="4" y="611" on="1"/>
        <pt x="229" y="611" on="1"/>
        <pt x="229" y="578" on="1"/>
        <pt x="171" y="558" on="1"/>
        <pt x="296" y="297" on="1"/>
        <pt x="426" y="558" on="1"/>
        <pt x="355" y="578" on="1"/>
      </contour>
    </TTGlyph>
    <TTGlyph name="Ycircumflex.loclGUA" xMin="9" yMin="-167" xMax="652" yMax="800">
      <contour>
        <pt x="213" y="669" on="1"/>
        <pt x="313" y="800" on="1"/>
        <pt x="373" y="800" on="1"/>
        <pt x="475" y="669" on="1"/>
        <pt x="457" y="651" on="1"/>
        <pt x="341" y="733" on="1"/>
        <pt x="230" y="651" on="1"/>
      </contour>
      <contour>
        <pt x="272" y="-167" on="0"/>
        <pt x="179" y="-143" on="0"/>
        <pt x="129" y="-117" on="1"/>
        <pt x="147" y="-3" on="1"/>
        <pt x="179" y="-3" on="1"/>
        <pt x="202" y="-83" on="1"/>
        <pt x="228" y="-98" on="0"/>
        <pt x="298" y="-116" on="0"/>
        <pt x="330" y="-116" on="1"/>
        <pt x="402" y="-116" on="0"/>
        <pt x="486" y="-32" on="0"/>
        <pt x="486" y="58" on="1"/>
        <pt x="486" y="111" on="1"/>
        <pt x="419" y="54" on="0"/>
        <pt x="319" y="54" on="1"/>
        <pt x="230" y="54" on="0"/>
        <pt x="133" y="127" on="0"/>
        <pt x="100" y="246" on="0"/>
        <pt x="100" y="330" on="1"/>
        <pt x="100" y="558" on="1"/>
        <pt x="9" y="578" on="1"/>
        <pt x="9" y="611" on="1"/>
        <pt x="272" y="611" on="1"/>
        <pt x="272" y="578" on="1"/>
        <pt x="182" y="558" on="1"/>
        <pt x="182" y="330" on="1"/>
        <pt x="182" y="222" on="0"/>
        <pt x="241" y="100" on="0"/>
        <pt x="324" y="100" on="1"/>
        <pt x="391" y="100" on="0"/>
        <pt x="469" y="154" on="0"/>
        <pt x="486" y="194" on="1"/>
        <pt x="486" y="558" on="1"/>
        <pt x="396" y="578" on="1"/>
        <pt x="396" y="611" on="1"/>
        <pt x="652" y="611" on="1"/>
        <pt x="652" y="578" on="1"/>
        <pt x="563" y="558" on="1"/>
        <pt x="563" y="57" on="1"/>
        <pt x="563" y="-7" on="0"/>
        <pt x="509" y="-109" on="0"/>
        <pt x="404" y="-167" on="0"/>
        <pt x="330" y="-167" on="1"/>
      </contour>
    </TTGlyph>
    <TTGlyph name="Ydieresis" xMin="4" yMin="0" xMax="562" yMax="781">
      <contour>
        <pt x="172" y="668" on="0"/>
        <pt x="138" y="701" on="0"/>
        <pt x="138" y="724" on="1"/>
        <pt x="138" y="747" on="0"/>
        <pt x="172" y="781" on="0"/>
        <pt x="196" y="781" on="1"/>
        <pt x="217" y="781" on="0"/>
        <pt x="252" y="747" on="0"/>
        <pt x="252" y="724" on="1"/>
        <pt x="252" y="701" on="0"/>
        <pt x="218" y="668" on="0"/>
        <pt x="196" y="668" on="1"/>
      </contour>
      <contour>
        <pt x="367" y="668" on="0"/>
        <pt x="332" y="701" on="0"/>
        <pt x="332" y="724" on="1"/>
        <pt x="332" y="747" on="0"/>
        <pt x="367" y="781" on="0"/>
        <pt x="390" y="781" on="1"/>
        <pt x="412" y="781" on="0"/>
        <pt x="447" y="747" on="0"/>
        <pt x="447" y="724" on="1"/>
        <pt x="447" y="701" on="0"/>
        <pt x="412" y="668" on="0"/>
        <pt x="390" y="668" on="1"/>
      </contour>
      <contour>
        <pt x="132" y="33" on="1"/>
        <pt x="239" y="53" on="1"/>
        <pt x="239" y="224" on="1"/>
        <pt x="72" y="558" on="1"/>
        <pt x="4" y="578" on="1"/>
        <pt x="4" y="611" on="1"/>
        <pt x="230" y="611" on="1"/>
        <pt x="230" y="578" on="1"/>
        <pt x="171" y="558" on="1"/>
        <pt x="297" y="297" on="1"/>
        <pt x="427" y="558" on="1"/>
        <pt x="356" y="578" on="1"/>
        <pt x="356" y="611" on="1"/>
        <pt x="562" y="611" on="1"/>
        <pt x="562" y="578" on="1"/>
        <pt x="490" y="558" on="1"/>
        <pt x="321" y="224" on="1"/>
        <pt x="321" y="53" on="1"/>
        <pt x="428" y="33" on="1"/>
        <pt x="428" y="0" on="1"/>
        <pt x="132" y="0" on="1"/>
      </contour>
    </TTGlyph>
    <TTGlyph name="Ydieresis.loclGUA" xMin="9" yMin="-167" xMax="652" yMax="787">
      <contour>
        <pt x="303" y="707" on="0"/>
        <pt x="269" y="674" on="0"/>
        <pt x="247" y="674" on="1"/>
        <pt x="224" y="674" on="0"/>
        <pt x="189" y="707" on="0"/>
        <pt x="189" y="730" on="1"/>
        <pt x="189" y="753" on="0"/>
        <pt x="224" y="787" on="0"/>
        <pt x="247" y="787" on="1"/>
        <pt x="269" y="787" on="0"/>
        <pt x="303" y="753" on="0"/>
        <pt x="303" y="730" on="1"/>
      </contour>
      <contour>
        <pt x="498" y="707" on="0"/>
        <pt x="463" y="674" on="0"/>
        <pt x="441" y="674" on="1"/>
        <pt x="418" y="674" on="0"/>
        <pt x="383" y="707" on="0"/>
        <pt x="383" y="730" on="1"/>
        <pt x="383" y="753" on="0"/>
        <pt x="418" y="787" on="0"/>
        <pt x="441" y="787" on="1"/>
        <pt x="463" y="787" on="0"/>
        <pt x="498" y="753" on="0"/>
        <pt x="498" y="730" on="1"/>
      </contour>
      <contour>
        <pt x="228" y="-98" on="0"/>
        <pt x="298" y="-116" on="0"/>
        <pt x="330" y="-116" on="1"/>
        <pt x="402" y="-116" on="0"/>
        <pt x="486" y="-32" on="0"/>
        <pt x="486" y="58" on="1"/>
        <pt x="486" y="111" on="1"/>
        <pt x="419" y="54" on="0"/>
        <pt x="319" y="54" on="1"/>
        <pt x="230" y="54" on="0"/>
        <pt x="133" y="127" on="0"/>
        <pt x="100" y="246" on="0"/>
        <pt x="100" y="330" on="1"/>
        <pt x="100" y="558" on="1"/>
        <pt x="9" y="578" on="1"/>
        <pt x="9" y="611" on="1"/>
        <pt x="272" y="611" on="1"/>
        <pt x="272" y="578" on="1"/>
        <pt x="182" y="558" on="1"/>
        <pt x="182" y="330" on="1"/>
        <pt x="182" y="222" on="0"/>
        <pt x="241" y="100" on="0"/>
        <pt x="324" y="100" on="1"/>
        <pt x="391" y="100" on="0"/>
        <pt x="469" y="154" on="0"/>
        <pt x="486" y="194" on="1"/>
        <pt x="486" y="558" on="1"/>
        <pt x="396" y="578" on="1"/>
        <pt x="396" y="611" on="1"/>
        <pt x="652" y="611" on="1"/>
        <pt x="652" y="578" on="1"/>
        <pt x="563" y="558" on="1"/>
        <pt x="563" y="57" on="1"/>
        <pt x="563" y="-7" on="0"/>
        <pt x="509" y="-109" on="0"/>
        <pt x="404" y="-167" on="0"/>
        <pt x="330" y="-167" on="1"/>
        <pt x="272" y="-167" on="0"/>
        <pt x="179" y="-143" on="0"/>
        <pt x="129" y="-117" on="1"/>
        <pt x="147" y="-3" on="1"/>
        <pt x="179" y="-3" on="1"/>
        <pt x="202" y="-83" on="1"/>
      </contour>
    </TTGlyph>
    <TTGlyph name="Ygrave" xMin="4" yMin="0" xMax="562" yMax="799">
      <contour>
        <pt x="179" y="753" on="1"/>
        <pt x="179" y="771" on="1"/>
        <pt x="256" y="799" on="1"/>
        <pt x="408" y="669" on="1"/>
        <pt x="393" y="650" on="1"/>
      </contour>
      <contour>
        <pt x="132" y="33" on="1"/>
        <pt x="239" y="53" on="1"/>
        <pt x="239" y="224" on="1"/>
        <pt x="72" y="558" on="1"/>
        <pt x="4" y="578" on="1"/>
        <pt x="4" y="611" on="1"/>
        <pt x="230" y="611" on="1"/>
        <pt x="230" y="578" on="1"/>
        <pt x="171" y="558" on="1"/>
        <pt x="297" y="297" on="1"/>
        <pt x="427" y="558" on="1"/>
        <pt x="356" y="578" on="1"/>
        <pt x="356" y="611" on="1"/>
        <pt x="562" y="611" on="1"/>
        <pt x="562" y="578" on="1"/>
        <pt x="490" y="558" on="1"/>
        <pt x="321" y="224" on="1"/>
        <pt x="321" y="53" on="1"/>
        <pt x="428" y="33" on="1"/>
        <pt x="428" y="0" on="1"/>
        <pt x="132" y="0" on="1"/>
      </contour>
    </TTGlyph>
    <TTGlyph name="Ygrave.loclGUA" xMin="9" yMin="-167" xMax="652" yMax="799">
      <contour>
        <pt x="210" y="753" on="1"/>
        <pt x="210" y="771" on="1"/>
        <pt x="287" y="799" on="1"/>
        <pt x="440" y="669" on="1"/>
        <pt x="424" y="650" on="1"/>
      </contour>
      <contour>
        <pt x="228" y="-98" on="0"/>
        <pt x="298" y="-116" on="0"/>
        <pt x="330" y="-116" on="1"/>
        <pt x="402" y="-116" on="0"/>
        <pt x="486" y="-32" on="0"/>
        <pt x="486" y="58" on="1"/>
        <pt x="486" y="111" on="1"/>
        <pt x="419" y="54" on="0"/>
        <pt x="319" y="54" on="1"/>
        <pt x="230" y="54" on="0"/>
        <pt x="133" y="127" on="0"/>
        <pt x="100" y="246" on="0"/>
        <pt x="100" y="330" on="1"/>
        <pt x="100" y="558" on="1"/>
        <pt x="9" y="578" on="1"/>
        <pt x="9" y="611" on="1"/>
        <pt x="272" y="611" on="1"/>
        <pt x="272" y="578" on="1"/>
        <pt x="182" y="558" on="1"/>
        <pt x="182" y="330" on="1"/>
        <pt x="182" y="222" on="0"/>
        <pt x="241" y="100" on="0"/>
        <pt x="324" y="100" on="1"/>
        <pt x="391" y="100" on="0"/>
        <pt x="469" y="154" on="0"/>
        <pt x="486" y="194" on="1"/>
        <pt x="486" y="558" on="1"/>
        <pt x="396" y="578" on="1"/>
        <pt x="396" y="611" on="1"/>
        <pt x="652" y="611" on="1"/>
        <pt x="652" y="578" on="1"/>
        <pt x="563" y="558" on="1"/>
        <pt x="563" y="57" on="1"/>
        <pt x="563" y="-7" on="0"/>
        <pt x="509" y="-109" on="0"/>
        <pt x="404" y="-167" on="0"/>
        <pt x="330" y="-167" on="1"/>
        <pt x="272" y="-167" on="0"/>
        <pt x="179" y="-143" on="0"/>
        <pt x="129" y="-117" on="1"/>
        <pt x="147" y="-3" on="1"/>
        <pt x="179" y="-3" on="1"/>
        <pt x="202" y="-83" on="1"/>
      </contour>
    </TTGlyph>
    <TTGlyph name="Z" xMin="43" yMin="0" xMax="474" yMax="611">
      <contour>
        <pt x="463" y="0" on="1"/>
        <pt x="61" y="0" on="1"/>
        <pt x="43" y="33" on="1"/>
        <pt x="370" y="558" on="1"/>
        <pt x="133" y="558" on="1"/>
        <pt x="111" y="479" on="1"/>
        <pt x="73" y="479" on="1"/>
        <pt x="64" y="611" on="1"/>
        <pt x="466" y="611" on="1"/>
        <pt x="471" y="579" on="1"/>
        <pt x="147" y="54" on="1"/>
        <pt x="398" y="54" on="1"/>
        <pt x="435" y="147" on="1"/>
        <pt x="474" y="147" on="1"/>
      </contour>
    </TTGlyph>
    <TTGlyph name="Zacute" xMin="43" yMin="0" xMax="474" yMax="799">
      <contour>
        <pt x="164" y="669" on="1"/>
        <pt x="318" y="799" on="1"/>
        <pt x="394" y="771" on="1"/>
        <pt x="394" y="753" on="1"/>
        <pt x="180" y="650" on="1"/>
      </contour>
      <contour>
        <pt x="463" y="0" on="1"/>
        <pt x="61" y="0" on="1"/>
        <pt x="43" y="33" on="1"/>
        <pt x="370" y="558" on="1"/>
        <pt x="133" y="558" on="1"/>
        <pt x="111" y="479" on="1"/>
        <pt x="73" y="479" on="1"/>
        <pt x="64" y="611" on="1"/>
        <pt x="466" y="611" on="1"/>
        <pt x="471" y="579" on="1"/>
        <pt x="147" y="54" on="1"/>
        <pt x="398" y="54" on="1"/>
        <pt x="435" y="147" on="1"/>
        <pt x="474" y="147" on="1"/>
      </contour>
    </TTGlyph>
    <TTGlyph name="Zacute.loclPLK" xMin="43" yMin="0" xMax="474" yMax="800">
      <component glyphName=".ttfautohint" x="43" y="0" flags="0x0"/>
      <component glyphName="Z" x="0" y="0" flags="0x0"/>
      <component glyphName="acute.loclPLK.case" x="155" y="0" flags="0x0"/>
    </TTGlyph>
    <TTGlyph name="Zcaron" xMin="47" yMin="0" xMax="478" yMax="800">
      <contour>
        <pt x="148" y="782" on="1"/>
        <pt x="165" y="800" on="1"/>
        <pt x="281" y="718" on="1"/>
        <pt x="392" y="800" on="1"/>
        <pt x="410" y="782" on="1"/>
        <pt x="310" y="651" on="1"/>
        <pt x="250" y="651" on="1"/>
      </contour>
      <contour>
        <pt x="47" y="33" on="1"/>
        <pt x="374" y="558" on="1"/>
        <pt x="137" y="558" on="1"/>
        <pt x="115" y="479" on="1"/>
        <pt x="77" y="479" on="1"/>
        <pt x="68" y="611" on="1"/>
        <pt x="470" y="611" on="1"/>
        <pt x="475" y="579" on="1"/>
        <pt x="151" y="54" on="1"/>
        <pt x="402" y="54" on="1"/>
        <pt x="439" y="147" on="1"/>
        <pt x="478" y="147" on="1"/>
        <pt x="467" y="0" on="1"/>
        <pt x="65" y="0" on="1"/>
      </contour>
    </TTGlyph>
    <TTGlyph name="Zdotaccent" xMin="43" yMin="0" xMax="474" yMax="785">
      <contour>
        <pt x="331" y="701" on="0"/>
        <pt x="295" y="668" on="0"/>
        <pt x="271" y="668" on="1"/>
        <pt x="247" y="668" on="0"/>
        <pt x="211" y="701" on="0"/>
        <pt x="211" y="725" on="1"/>
        <pt x="211" y="750" on="0"/>
        <pt x="247" y="785" on="0"/>
        <pt x="271" y="785" on="1"/>
        <pt x="295" y="785" on="0"/>
        <pt x="331" y="749" on="0"/>
        <pt x="331" y="725" on="1"/>
      </contour>
      <contour>
        <pt x="463" y="0" on="1"/>
        <pt x="61" y="0" on="1"/>
        <pt x="43" y="33" on="1"/>
        <pt x="370" y="558" on="1"/>
        <pt x="133" y="558" on="1"/>
        <pt x="111" y="479" on="1"/>
        <pt x="73" y="479" on="1"/>
        <pt x="64" y="611" on="1"/>
        <pt x="466" y="611" on="1"/>
        <pt x="471" y="579" on="1"/>
        <pt x="147" y="54" on="1"/>
        <pt x="398" y="54" on="1"/>
        <pt x="435" y="147" on="1"/>
        <pt x="474" y="147" on="1"/>
      </contour>
    </TTGlyph>
    <TTGlyph name="a" xMin="40" yMin="-11" xMax="491" yMax="500">
      <contour>
        <pt x="180" y="446" on="0"/>
        <pt x="132" y="432" on="1"/>
        <pt x="108" y="346" on="1"/>
        <pt x="78" y="346" on="1"/>
        <pt x="61" y="463" on="1"/>
        <pt x="160" y="500" on="0"/>
        <pt x="249" y="500" on="1"/>
        <pt x="323" y="500" on="0"/>
        <pt x="401" y="450" on="0"/>
        <pt x="401" y="391" on="1"/>
        <pt x="401" y="58" on="1"/>
        <pt x="491" y="40" on="1"/>
        <pt x="491" y="12" on="1"/>
        <pt x="439" y="-4" on="0"/>
        <pt x="386" y="-4" on="1"/>
        <pt x="361" y="-4" on="0"/>
        <pt x="325" y="24" on="0"/>
        <pt x="320" y="51" on="1"/>
        <pt x="235" y="-11" on="0"/>
        <pt x="147" y="-11" on="1"/>
        <pt x="97" y="-11" on="0"/>
        <pt x="40" y="63" on="0"/>
        <pt x="40" y="112" on="1"/>
        <pt x="40" y="228" on="0"/>
        <pt x="167" y="251" on="1"/>
        <pt x="318" y="278" on="1"/>
        <pt x="318" y="362" on="1"/>
        <pt x="318" y="404" on="0"/>
        <pt x="280" y="446" on="0"/>
        <pt x="231" y="446" on="1"/>
      </contour>
      <contour>
        <pt x="167" y="209" on="0"/>
        <pt x="127" y="161" on="0"/>
        <pt x="127" y="127" on="1"/>
        <pt x="127" y="51" on="0"/>
        <pt x="200" y="51" on="1"/>
        <pt x="226" y="51" on="0"/>
        <pt x="289" y="73" on="0"/>
        <pt x="318" y="88" on="1"/>
        <pt x="318" y="234" on="1"/>
        <pt x="214" y="217" on="1"/>
      </contour>
    </TTGlyph>
    <TTGlyph name="aacute" xMin="40" yMin="-11" xMax="491" yMax="707">
      <component glyphName=".ttfautohint" x="40" y="0" flags="0x0"/>
      <component glyphName="a" x="0" y="0" flags="0x0"/>
      <component glyphName="acute" x="147" y="0" flags="0x0"/>
    </TTGlyph>
    <TTGlyph name="abreve" xMin="40" yMin="-11" xMax="491" yMax="694">
      <contour>
        <pt x="166" y="578" on="0"/>
        <pt x="112" y="641" on="0"/>
        <pt x="112" y="692" on="1"/>
        <pt x="146" y="694" on="1"/>
        <pt x="146" y="666" on="0"/>
        <pt x="181" y="632" on="0"/>
        <pt x="228" y="632" on="1"/>
        <pt x="276" y="632" on="0"/>
        <pt x="313" y="666" on="0"/>
        <pt x="313" y="694" on="1"/>
        <pt x="346" y="692" on="1"/>
        <pt x="346" y="578" on="0"/>
        <pt x="230" y="578" on="1"/>
      </contour>
      <contour>
        <pt x="180" y="446" on="0"/>
        <pt x="132" y="432" on="1"/>
        <pt x="108" y="346" on="1"/>
        <pt x="78" y="346" on="1"/>
        <pt x="61" y="463" on="1"/>
        <pt x="160" y="500" on="0"/>
        <pt x="249" y="500" on="1"/>
        <pt x="323" y="500" on="0"/>
        <pt x="401" y="450" on="0"/>
        <pt x="401" y="391" on="1"/>
        <pt x="401" y="58" on="1"/>
        <pt x="491" y="40" on="1"/>
        <pt x="491" y="12" on="1"/>
        <pt x="439" y="-4" on="0"/>
        <pt x="386" y="-4" on="1"/>
        <pt x="361" y="-4" on="0"/>
        <pt x="325" y="24" on="0"/>
        <pt x="320" y="51" on="1"/>
        <pt x="235" y="-11" on="0"/>
        <pt x="147" y="-11" on="1"/>
        <pt x="97" y="-11" on="0"/>
        <pt x="40" y="63" on="0"/>
        <pt x="40" y="112" on="1"/>
        <pt x="40" y="228" on="0"/>
        <pt x="167" y="251" on="1"/>
        <pt x="318" y="278" on="1"/>
        <pt x="318" y="362" on="1"/>
        <pt x="318" y="404" on="0"/>
        <pt x="280" y="446" on="0"/>
        <pt x="231" y="446" on="1"/>
      </contour>
      <contour>
        <pt x="167" y="209" on="0"/>
        <pt x="127" y="161" on="0"/>
        <pt x="127" y="127" on="1"/>
        <pt x="127" y="51" on="0"/>
        <pt x="200" y="51" on="1"/>
        <pt x="226" y="51" on="0"/>
        <pt x="289" y="73" on="0"/>
        <pt x="318" y="88" on="1"/>
        <pt x="318" y="234" on="1"/>
        <pt x="214" y="217" on="1"/>
      </contour>
    </TTGlyph>
    <TTGlyph name="acircumflex" xMin="40" yMin="-11" xMax="491" yMax="709">
      <contour>
        <pt x="229" y="642" on="1"/>
        <pt x="121" y="552" on="1"/>
        <pt x="100" y="570" on="1"/>
        <pt x="198" y="709" on="1"/>
        <pt x="258" y="709" on="1"/>
        <pt x="358" y="570" on="1"/>
        <pt x="336" y="552" on="1"/>
      </contour>
      <contour>
        <pt x="180" y="446" on="0"/>
        <pt x="132" y="432" on="1"/>
        <pt x="108" y="346" on="1"/>
        <pt x="78" y="346" on="1"/>
        <pt x="61" y="463" on="1"/>
        <pt x="160" y="500" on="0"/>
        <pt x="249" y="500" on="1"/>
        <pt x="323" y="500" on="0"/>
        <pt x="401" y="450" on="0"/>
        <pt x="401" y="391" on="1"/>
        <pt x="401" y="58" on="1"/>
        <pt x="491" y="40" on="1"/>
        <pt x="491" y="12" on="1"/>
        <pt x="439" y="-4" on="0"/>
        <pt x="386" y="-4" on="1"/>
        <pt x="361" y="-4" on="0"/>
        <pt x="325" y="24" on="0"/>
        <pt x="320" y="51" on="1"/>
        <pt x="235" y="-11" on="0"/>
        <pt x="147" y="-11" on="1"/>
        <pt x="97" y="-11" on="0"/>
        <pt x="40" y="63" on="0"/>
        <pt x="40" y="112" on="1"/>
        <pt x="40" y="228" on="0"/>
        <pt x="167" y="251" on="1"/>
        <pt x="318" y="278" on="1"/>
        <pt x="318" y="362" on="1"/>
        <pt x="318" y="404" on="0"/>
        <pt x="280" y="446" on="0"/>
        <pt x="231" y="446" on="1"/>
      </contour>
      <contour>
        <pt x="167" y="209" on="0"/>
        <pt x="127" y="161" on="0"/>
        <pt x="127" y="127" on="1"/>
        <pt x="127" y="51" on="0"/>
        <pt x="200" y="51" on="1"/>
        <pt x="226" y="51" on="0"/>
        <pt x="289" y="73" on="0"/>
        <pt x="318" y="88" on="1"/>
        <pt x="318" y="234" on="1"/>
        <pt x="214" y="217" on="1"/>
      </contour>
    </TTGlyph>
    <TTGlyph name="acute" xMin="12" yMin="558" xMax="242" yMax="707">
      <contour>
        <pt x="12" y="577" on="1"/>
        <pt x="166" y="707" on="1"/>
        <pt x="242" y="679" on="1"/>
        <pt x="242" y="661" on="1"/>
        <pt x="28" y="558" on="1"/>
      </contour>
    </TTGlyph>
    <TTGlyph name="acute.case" xMin="12" yMin="650" xMax="242" yMax="799">
      <contour>
        <pt x="12" y="669" on="1"/>
        <pt x="166" y="799" on="1"/>
        <pt x="242" y="771" on="1"/>
        <pt x="242" y="753" on="1"/>
        <pt x="28" y="650" on="1"/>
      </contour>
    </TTGlyph>
    <TTGlyph name="acute.loclPLK" xMin="74" yMin="544" xMax="219" yMax="714">
      <contour>
        <pt x="74" y="555" on="1"/>
        <pt x="144" y="714" on="1"/>
        <pt x="219" y="714" on="1"/>
        <pt x="219" y="697" on="1"/>
        <pt x="93" y="544" on="1"/>
      </contour>
    </TTGlyph>
    <TTGlyph name="acute.loclPLK.case" xMin="73" yMin="652" xMax="203" yMax="800">
      <contour>
        <pt x="73" y="667" on="1"/>
        <pt x="128" y="800" on="1"/>
        <pt x="203" y="800" on="1"/>
        <pt x="203" y="783" on="1"/>
        <pt x="95" y="652" on="1"/>
      </contour>
    </TTGlyph>
    <TTGlyph name="acutecomb" xMin="-243" yMin="650" xMax="-13" yMax="799">
      <contour>
        <pt x="-243" y="669" on="1"/>
        <pt x="-89" y="799" on="1"/>
        <pt x="-13" y="771" on="1"/>
        <pt x="-13" y="753" on="1"/>
        <pt x="-227" y="650" on="1"/>
      </contour>
    </TTGlyph>
    <TTGlyph name="adieresis" xMin="40" yMin="-11" xMax="491" yMax="693">
      <contour>
        <pt x="191" y="613" on="0"/>
        <pt x="157" y="580" on="0"/>
        <pt x="134" y="580" on="1"/>
        <pt x="111" y="580" on="0"/>
        <pt x="77" y="613" on="0"/>
        <pt x="77" y="635" on="1"/>
        <pt x="77" y="659" on="0"/>
        <pt x="111" y="693" on="0"/>
        <pt x="134" y="693" on="1"/>
        <pt x="157" y="693" on="0"/>
        <pt x="191" y="659" on="0"/>
        <pt x="191" y="635" on="1"/>
      </contour>
      <contour>
        <pt x="386" y="613" on="0"/>
        <pt x="351" y="580" on="0"/>
        <pt x="328" y="580" on="1"/>
        <pt x="305" y="580" on="0"/>
        <pt x="271" y="613" on="0"/>
        <pt x="271" y="635" on="1"/>
        <pt x="271" y="659" on="0"/>
        <pt x="305" y="693" on="0"/>
        <pt x="328" y="693" on="1"/>
        <pt x="351" y="693" on="0"/>
        <pt x="386" y="659" on="0"/>
        <pt x="386" y="635" on="1"/>
      </contour>
      <contour>
        <pt x="180" y="446" on="0"/>
        <pt x="132" y="432" on="1"/>
        <pt x="108" y="346" on="1"/>
        <pt x="78" y="346" on="1"/>
        <pt x="61" y="463" on="1"/>
        <pt x="160" y="500" on="0"/>
        <pt x="249" y="500" on="1"/>
        <pt x="323" y="500" on="0"/>
        <pt x="401" y="450" on="0"/>
        <pt x="401" y="391" on="1"/>
        <pt x="401" y="58" on="1"/>
        <pt x="491" y="40" on="1"/>
        <pt x="491" y="12" on="1"/>
        <pt x="439" y="-4" on="0"/>
        <pt x="386" y="-4" on="1"/>
        <pt x="361" y="-4" on="0"/>
        <pt x="325" y="24" on="0"/>
        <pt x="320" y="51" on="1"/>
        <pt x="235" y="-11" on="0"/>
        <pt x="147" y="-11" on="1"/>
        <pt x="97" y="-11" on="0"/>
        <pt x="40" y="63" on="0"/>
        <pt x="40" y="112" on="1"/>
        <pt x="40" y="228" on="0"/>
        <pt x="167" y="251" on="1"/>
        <pt x="318" y="278" on="1"/>
        <pt x="318" y="362" on="1"/>
        <pt x="318" y="404" on="0"/>
        <pt x="280" y="446" on="0"/>
        <pt x="231" y="446" on="1"/>
      </contour>
      <contour>
        <pt x="167" y="209" on="0"/>
        <pt x="127" y="161" on="0"/>
        <pt x="127" y="127" on="1"/>
        <pt x="127" y="51" on="0"/>
        <pt x="200" y="51" on="1"/>
        <pt x="226" y="51" on="0"/>
        <pt x="289" y="73" on="0"/>
        <pt x="318" y="88" on="1"/>
        <pt x="318" y="234" on="1"/>
        <pt x="214" y="217" on="1"/>
      </contour>
    </TTGlyph>
    <TTGlyph name="ae" xMin="30" yMin="-11" xMax="656" yMax="500">
      <contour>
        <pt x="81" y="-10" on="0"/>
        <pt x="30" y="65" on="0"/>
        <pt x="30" y="119" on="1"/>
        <pt x="30" y="159" on="0"/>
        <pt x="89" y="220" on="0"/>
        <pt x="158" y="234" on="1"/>
        <pt x="287" y="260" on="1"/>
        <pt x="287" y="363" on="1"/>
        <pt x="287" y="405" on="0"/>
        <pt x="253" y="446" on="0"/>
        <pt x="205" y="446" on="1"/>
        <pt x="167" y="446" on="0"/>
        <pt x="120" y="432" on="1"/>
        <pt x="98" y="347" on="1"/>
        <pt x="67" y="347" on="1"/>
        <pt x="50" y="463" on="1"/>
        <pt x="97" y="481" on="0"/>
        <pt x="175" y="500" on="0"/>
        <pt x="222" y="500" on="1"/>
        <pt x="274" y="500" on="0"/>
        <pt x="340" y="474" on="0"/>
        <pt x="357" y="443" on="1"/>
        <pt x="407" y="500" on="0"/>
        <pt x="481" y="500" on="1"/>
        <pt x="557" y="500" on="0"/>
        <pt x="656" y="415" on="0"/>
        <pt x="656" y="319" on="1"/>
        <pt x="656" y="297" on="0"/>
        <pt x="654" y="283" on="1"/>
        <pt x="364" y="231" on="1"/>
        <pt x="364" y="134" on="0"/>
        <pt x="423" y="43" on="0"/>
        <pt x="488" y="43" on="1"/>
        <pt x="559" y="43" on="0"/>
        <pt x="631" y="64" on="1"/>
        <pt x="638" y="33" on="1"/>
        <pt x="597" y="10" on="0"/>
        <pt x="521" y="-11" on="0"/>
        <pt x="470" y="-11" on="1"/>
        <pt x="404" y="-11" on="0"/>
        <pt x="336" y="26" on="0"/>
        <pt x="305" y="63" on="1"/>
        <pt x="271" y="36" on="0"/>
        <pt x="231" y="9" on="0"/>
        <pt x="176" y="-10" on="0"/>
        <pt x="140" y="-10" on="1"/>
      </contour>
      <contour>
        <pt x="567" y="316" on="1"/>
        <pt x="567" y="449" on="0"/>
        <pt x="481" y="449" on="1"/>
        <pt x="427" y="449" on="0"/>
        <pt x="369" y="363" on="0"/>
        <pt x="365" y="273" on="1"/>
      </contour>
      <contour>
        <pt x="213" y="48" on="0"/>
        <pt x="257" y="68" on="0"/>
        <pt x="287" y="91" on="1"/>
        <pt x="287" y="217" on="1"/>
        <pt x="202" y="201" on="1"/>
        <pt x="151" y="192" on="0"/>
        <pt x="115" y="158" on="0"/>
        <pt x="115" y="126" on="1"/>
        <pt x="115" y="90" on="0"/>
        <pt x="151" y="48" on="0"/>
        <pt x="187" y="48" on="1"/>
      </contour>
    </TTGlyph>
    <TTGlyph name="aeacute" xMin="30" yMin="-11" xMax="656" yMax="707">
      <component glyphName=".ttfautohint" x="30" y="0" flags="0x0"/>
      <component glyphName="ae" x="0" y="0" flags="0x0"/>
      <component glyphName="acute" x="236" y="0" flags="0x0"/>
    </TTGlyph>
    <TTGlyph name="agrave" xMin="40" yMin="-11" xMax="491" yMax="707">
      <contour>
        <pt x="105" y="661" on="1"/>
        <pt x="105" y="679" on="1"/>
        <pt x="182" y="707" on="1"/>
        <pt x="335" y="577" on="1"/>
        <pt x="321" y="558" on="1"/>
      </contour>
      <contour>
        <pt x="180" y="446" on="0"/>
        <pt x="132" y="432" on="1"/>
        <pt x="108" y="346" on="1"/>
        <pt x="78" y="346" on="1"/>
        <pt x="61" y="463" on="1"/>
        <pt x="160" y="500" on="0"/>
        <pt x="249" y="500" on="1"/>
        <pt x="323" y="500" on="0"/>
        <pt x="401" y="450" on="0"/>
        <pt x="401" y="391" on="1"/>
        <pt x="401" y="58" on="1"/>
        <pt x="491" y="40" on="1"/>
        <pt x="491" y="12" on="1"/>
        <pt x="439" y="-4" on="0"/>
        <pt x="386" y="-4" on="1"/>
        <pt x="361" y="-4" on="0"/>
        <pt x="325" y="24" on="0"/>
        <pt x="320" y="51" on="1"/>
        <pt x="235" y="-11" on="0"/>
        <pt x="147" y="-11" on="1"/>
        <pt x="97" y="-11" on="0"/>
        <pt x="40" y="63" on="0"/>
        <pt x="40" y="112" on="1"/>
        <pt x="40" y="228" on="0"/>
        <pt x="167" y="251" on="1"/>
        <pt x="318" y="278" on="1"/>
        <pt x="318" y="362" on="1"/>
        <pt x="318" y="404" on="0"/>
        <pt x="280" y="446" on="0"/>
        <pt x="231" y="446" on="1"/>
      </contour>
      <contour>
        <pt x="167" y="209" on="0"/>
        <pt x="127" y="161" on="0"/>
        <pt x="127" y="127" on="1"/>
        <pt x="127" y="51" on="0"/>
        <pt x="200" y="51" on="1"/>
        <pt x="226" y="51" on="0"/>
        <pt x="289" y="73" on="0"/>
        <pt x="318" y="88" on="1"/>
        <pt x="318" y="234" on="1"/>
        <pt x="214" y="217" on="1"/>
      </contour>
    </TTGlyph>
    <TTGlyph name="amacron" xMin="40" yMin="-11" xMax="491" yMax="661">
      <contour>
        <pt x="334" y="661" on="1"/>
        <pt x="334" y="609" on="1"/>
        <pt x="117" y="609" on="1"/>
        <pt x="117" y="661" on="1"/>
      </contour>
      <contour>
        <pt x="180" y="446" on="0"/>
        <pt x="132" y="432" on="1"/>
        <pt x="108" y="346" on="1"/>
        <pt x="78" y="346" on="1"/>
        <pt x="61" y="463" on="1"/>
        <pt x="160" y="500" on="0"/>
        <pt x="249" y="500" on="1"/>
        <pt x="323" y="500" on="0"/>
        <pt x="401" y="450" on="0"/>
        <pt x="401" y="391" on="1"/>
        <pt x="401" y="58" on="1"/>
        <pt x="491" y="40" on="1"/>
        <pt x="491" y="12" on="1"/>
        <pt x="439" y="-4" on="0"/>
        <pt x="386" y="-4" on="1"/>
        <pt x="361" y="-4" on="0"/>
        <pt x="325" y="24" on="0"/>
        <pt x="320" y="51" on="1"/>
        <pt x="235" y="-11" on="0"/>
        <pt x="147" y="-11" on="1"/>
        <pt x="97" y="-11" on="0"/>
        <pt x="40" y="63" on="0"/>
        <pt x="40" y="112" on="1"/>
        <pt x="40" y="228" on="0"/>
        <pt x="167" y="251" on="1"/>
        <pt x="318" y="278" on="1"/>
        <pt x="318" y="362" on="1"/>
        <pt x="318" y="404" on="0"/>
        <pt x="280" y="446" on="0"/>
        <pt x="231" y="446" on="1"/>
      </contour>
      <contour>
        <pt x="167" y="209" on="0"/>
        <pt x="127" y="161" on="0"/>
        <pt x="127" y="127" on="1"/>
        <pt x="127" y="51" on="0"/>
        <pt x="200" y="51" on="1"/>
        <pt x="226" y="51" on="0"/>
        <pt x="289" y="73" on="0"/>
        <pt x="318" y="88" on="1"/>
        <pt x="318" y="234" on="1"/>
        <pt x="214" y="217" on="1"/>
      </contour>
    </TTGlyph>
    <TTGlyph name="ampersand" xMin="50" yMin="-13" xMax="595" yMax="623">
      <contour>
        <pt x="360" y="27" on="0"/>
        <pt x="279" y="-13" on="0"/>
        <pt x="221" y="-13" on="1"/>
        <pt x="137" y="-13" on="0"/>
        <pt x="50" y="75" on="0"/>
        <pt x="50" y="143" on="1"/>
        <pt x="50" y="213" on="0"/>
        <pt x="120" y="304" on="0"/>
        <pt x="179" y="336" on="1"/>
        <pt x="152" y="374" on="0"/>
        <pt x="116" y="460" on="0"/>
        <pt x="116" y="491" on="1"/>
        <pt x="116" y="565" on="0"/>
        <pt x="207" y="623" on="0"/>
        <pt x="266" y="623" on="1"/>
        <pt x="326" y="623" on="0"/>
        <pt x="399" y="563" on="0"/>
        <pt x="399" y="507" on="1"/>
        <pt x="399" y="449" on="0"/>
        <pt x="331" y="372" on="0"/>
        <pt x="271" y="335" on="1"/>
        <pt x="349" y="235" on="0"/>
        <pt x="415" y="157" on="1"/>
        <pt x="439" y="217" on="0"/>
        <pt x="445" y="287" on="1"/>
        <pt x="390" y="302" on="1"/>
        <pt x="390" y="332" on="1"/>
        <pt x="565" y="332" on="1"/>
        <pt x="565" y="306" on="1"/>
        <pt x="490" y="287" on="1"/>
        <pt x="480" y="205" on="0"/>
        <pt x="445" y="128" on="1"/>
        <pt x="524" y="46" on="1"/>
        <pt x="595" y="30" on="1"/>
        <pt x="595" y="0" on="1"/>
        <pt x="465" y="0" on="1"/>
        <pt x="399" y="70" on="1"/>
      </contour>
      <contour>
        <pt x="189" y="471" on="0"/>
        <pt x="218" y="409" on="0"/>
        <pt x="245" y="370" on="1"/>
        <pt x="339" y="423" on="0"/>
        <pt x="339" y="493" on="1"/>
        <pt x="339" y="531" on="0"/>
        <pt x="310" y="580" on="0"/>
        <pt x="264" y="580" on="1"/>
        <pt x="227" y="580" on="0"/>
        <pt x="189" y="538" on="0"/>
        <pt x="189" y="499" on="1"/>
      </contour>
      <contour>
        <pt x="290" y="46" on="0"/>
        <pt x="347" y="73" on="0"/>
        <pt x="372" y="100" on="1"/>
        <pt x="350" y="126" on="0"/>
        <pt x="337" y="140" on="1"/>
        <pt x="255" y="235" on="0"/>
        <pt x="207" y="299" on="1"/>
        <pt x="164" y="269" on="0"/>
        <pt x="134" y="217" on="0"/>
        <pt x="134" y="170" on="1"/>
        <pt x="134" y="103" on="0"/>
        <pt x="192" y="46" on="0"/>
        <pt x="250" y="46" on="1"/>
      </contour>
    </TTGlyph>
    <TTGlyph name="ampersand.001" xMin="50" yMin="-13" xMax="595" yMax="623">
      <contour>
        <pt x="360" y="27" on="0"/>
        <pt x="279" y="-13" on="0"/>
        <pt x="221" y="-13" on="1"/>
        <pt x="137" y="-13" on="0"/>
        <pt x="50" y="75" on="0"/>
        <pt x="50" y="143" on="1"/>
        <pt x="50" y="213" on="0"/>
        <pt x="120" y="304" on="0"/>
        <pt x="179" y="336" on="1"/>
        <pt x="152" y="374" on="0"/>
        <pt x="116" y="460" on="0"/>
        <pt x="116" y="491" on="1"/>
        <pt x="116" y="565" on="0"/>
        <pt x="207" y="623" on="0"/>
        <pt x="266" y="623" on="1"/>
        <pt x="326" y="623" on="0"/>
        <pt x="399" y="563" on="0"/>
        <pt x="399" y="507" on="1"/>
        <pt x="399" y="449" on="0"/>
        <pt x="331" y="372" on="0"/>
        <pt x="271" y="335" on="1"/>
        <pt x="349" y="235" on="0"/>
        <pt x="415" y="157" on="1"/>
        <pt x="439" y="217" on="0"/>
        <pt x="445" y="287" on="1"/>
        <pt x="390" y="302" on="1"/>
        <pt x="390" y="332" on="1"/>
        <pt x="565" y="332" on="1"/>
        <pt x="565" y="306" on="1"/>
        <pt x="490" y="287" on="1"/>
        <pt x="480" y="205" on="0"/>
        <pt x="445" y="128" on="1"/>
        <pt x="524" y="46" on="1"/>
        <pt x="595" y="30" on="1"/>
        <pt x="595" y="0" on="1"/>
        <pt x="465" y="0" on="1"/>
        <pt x="399" y="70" on="1"/>
      </contour>
      <contour>
        <pt x="189" y="471" on="0"/>
        <pt x="218" y="409" on="0"/>
        <pt x="245" y="370" on="1"/>
        <pt x="339" y="423" on="0"/>
        <pt x="339" y="493" on="1"/>
        <pt x="339" y="531" on="0"/>
        <pt x="310" y="580" on="0"/>
        <pt x="264" y="580" on="1"/>
        <pt x="227" y="580" on="0"/>
        <pt x="189" y="538" on="0"/>
        <pt x="189" y="499" on="1"/>
      </contour>
      <contour>
        <pt x="290" y="46" on="0"/>
        <pt x="347" y="73" on="0"/>
        <pt x="372" y="100" on="1"/>
        <pt x="350" y="126" on="0"/>
        <pt x="337" y="140" on="1"/>
        <pt x="255" y="235" on="0"/>
        <pt x="207" y="299" on="1"/>
        <pt x="164" y="269" on="0"/>
        <pt x="134" y="217" on="0"/>
        <pt x="134" y="170" on="1"/>
        <pt x="134" y="103" on="0"/>
        <pt x="192" y="46" on="0"/>
        <pt x="250" y="46" on="1"/>
      </contour>
    </TTGlyph>
    <TTGlyph name="aogonek" xMin="40" yMin="-236" xMax="491" yMax="500">
      <contour>
        <pt x="370" y="-27" on="0"/>
        <pt x="370" y="-133" on="1"/>
        <pt x="370" y="-161" on="0"/>
        <pt x="399" y="-192" on="0"/>
        <pt x="424" y="-192" on="1"/>
        <pt x="453" y="-192" on="0"/>
        <pt x="474" y="-170" on="1"/>
        <pt x="491" y="-186" on="1"/>
        <pt x="491" y="-188" on="0"/>
        <pt x="467" y="-214" on="0"/>
        <pt x="425" y="-236" on="0"/>
        <pt x="397" y="-236" on="1"/>
        <pt x="350" y="-236" on="0"/>
        <pt x="302" y="-187" on="0"/>
        <pt x="302" y="-151" on="1"/>
        <pt x="302" y="-113" on="0"/>
        <pt x="353" y="-35" on="0"/>
        <pt x="397" y="-4" on="1"/>
        <pt x="386" y="-4" on="1"/>
        <pt x="361" y="-4" on="0"/>
        <pt x="325" y="24" on="0"/>
        <pt x="320" y="51" on="1"/>
        <pt x="235" y="-11" on="0"/>
        <pt x="147" y="-11" on="1"/>
        <pt x="97" y="-11" on="0"/>
        <pt x="40" y="63" on="0"/>
        <pt x="40" y="112" on="1"/>
        <pt x="40" y="228" on="0"/>
        <pt x="167" y="251" on="1"/>
        <pt x="318" y="278" on="1"/>
        <pt x="318" y="362" on="1"/>
        <pt x="318" y="404" on="0"/>
        <pt x="280" y="446" on="0"/>
        <pt x="231" y="446" on="1"/>
        <pt x="180" y="446" on="0"/>
        <pt x="132" y="432" on="1"/>
        <pt x="108" y="346" on="1"/>
        <pt x="78" y="346" on="1"/>
        <pt x="61" y="463" on="1"/>
        <pt x="160" y="500" on="0"/>
        <pt x="249" y="500" on="1"/>
        <pt x="323" y="500" on="0"/>
        <pt x="401" y="450" on="0"/>
        <pt x="401" y="391" on="1"/>
        <pt x="401" y="58" on="1"/>
        <pt x="491" y="40" on="1"/>
        <pt x="491" y="12" on="1"/>
      </contour>
      <contour>
        <pt x="318" y="234" on="1"/>
        <pt x="214" y="217" on="1"/>
        <pt x="167" y="209" on="0"/>
        <pt x="127" y="161" on="0"/>
        <pt x="127" y="127" on="1"/>
        <pt x="127" y="51" on="0"/>
        <pt x="200" y="51" on="1"/>
        <pt x="226" y="51" on="0"/>
        <pt x="289" y="73" on="0"/>
        <pt x="318" y="88" on="1"/>
      </contour>
    </TTGlyph>
    <TTGlyph name="approxequal" xMin="53" yMin="174" xMax="454" yMax="440">
      <contour>
        <pt x="53" y="343" on="1"/>
        <pt x="100" y="438" on="0"/>
        <pt x="166" y="438" on="1"/>
        <pt x="186" y="438" on="0"/>
        <pt x="225" y="425" on="0"/>
        <pt x="254" y="412" on="1"/>
        <pt x="283" y="399" on="0"/>
        <pt x="322" y="386" on="0"/>
        <pt x="341" y="386" on="1"/>
        <pt x="368" y="386" on="0"/>
        <pt x="403" y="410" on="0"/>
        <pt x="422" y="440" on="1"/>
        <pt x="454" y="420" on="1"/>
        <pt x="401" y="324" on="0"/>
        <pt x="337" y="324" on="1"/>
        <pt x="321" y="324" on="0"/>
        <pt x="287" y="335" on="0"/>
        <pt x="255" y="349" on="0"/>
        <pt x="250" y="351" on="1"/>
        <pt x="221" y="365" on="0"/>
        <pt x="180" y="379" on="0"/>
        <pt x="162" y="379" on="1"/>
        <pt x="139" y="379" on="0"/>
        <pt x="102" y="353" on="0"/>
        <pt x="83" y="323" on="1"/>
      </contour>
      <contour>
        <pt x="53" y="196" on="1"/>
        <pt x="100" y="290" on="0"/>
        <pt x="166" y="290" on="1"/>
        <pt x="186" y="290" on="0"/>
        <pt x="227" y="276" on="0"/>
        <pt x="254" y="263" on="1"/>
        <pt x="283" y="250" on="0"/>
        <pt x="322" y="237" on="0"/>
        <pt x="341" y="237" on="1"/>
        <pt x="368" y="237" on="0"/>
        <pt x="403" y="261" on="0"/>
        <pt x="422" y="291" on="1"/>
        <pt x="454" y="272" on="1"/>
        <pt x="402" y="177" on="0"/>
        <pt x="337" y="177" on="1"/>
        <pt x="320" y="177" on="0"/>
        <pt x="282" y="190" on="0"/>
        <pt x="250" y="203" on="1"/>
        <pt x="192" y="230" on="0"/>
        <pt x="162" y="230" on="1"/>
        <pt x="139" y="230" on="0"/>
        <pt x="102" y="204" on="0"/>
        <pt x="83" y="174" on="1"/>
      </contour>
    </TTGlyph>
    <TTGlyph name="aring" xMin="40" yMin="-11" xMax="491" yMax="730">
      <contour>
        <pt x="334" y="585" on="0"/>
        <pt x="281" y="529" on="0"/>
        <pt x="231" y="529" on="1"/>
        <pt x="181" y="529" on="0"/>
        <pt x="127" y="585" on="0"/>
        <pt x="127" y="629" on="1"/>
        <pt x="127" y="674" on="0"/>
        <pt x="180" y="730" on="0"/>
        <pt x="231" y="730" on="1"/>
        <pt x="281" y="730" on="0"/>
        <pt x="334" y="674" on="0"/>
        <pt x="334" y="629" on="1"/>
      </contour>
      <contour>
        <pt x="202" y="695" on="0"/>
        <pt x="181" y="661" on="0"/>
        <pt x="181" y="629" on="1"/>
        <pt x="181" y="598" on="0"/>
        <pt x="202" y="564" on="0"/>
        <pt x="231" y="564" on="1"/>
        <pt x="259" y="564" on="0"/>
        <pt x="280" y="598" on="0"/>
        <pt x="280" y="629" on="1"/>
        <pt x="280" y="661" on="0"/>
        <pt x="259" y="695" on="0"/>
        <pt x="231" y="695" on="1"/>
      </contour>
      <contour>
        <pt x="180" y="446" on="0"/>
        <pt x="132" y="432" on="1"/>
        <pt x="108" y="346" on="1"/>
        <pt x="78" y="346" on="1"/>
        <pt x="61" y="463" on="1"/>
        <pt x="160" y="500" on="0"/>
        <pt x="249" y="500" on="1"/>
        <pt x="323" y="500" on="0"/>
        <pt x="401" y="450" on="0"/>
        <pt x="401" y="391" on="1"/>
        <pt x="401" y="58" on="1"/>
        <pt x="491" y="40" on="1"/>
        <pt x="491" y="12" on="1"/>
        <pt x="439" y="-4" on="0"/>
        <pt x="386" y="-4" on="1"/>
        <pt x="361" y="-4" on="0"/>
        <pt x="325" y="24" on="0"/>
        <pt x="320" y="51" on="1"/>
        <pt x="235" y="-11" on="0"/>
        <pt x="147" y="-11" on="1"/>
        <pt x="97" y="-11" on="0"/>
        <pt x="40" y="63" on="0"/>
        <pt x="40" y="112" on="1"/>
        <pt x="40" y="228" on="0"/>
        <pt x="167" y="251" on="1"/>
        <pt x="318" y="278" on="1"/>
        <pt x="318" y="362" on="1"/>
        <pt x="318" y="404" on="0"/>
        <pt x="280" y="446" on="0"/>
        <pt x="231" y="446" on="1"/>
      </contour>
      <contour>
        <pt x="167" y="209" on="0"/>
        <pt x="127" y="161" on="0"/>
        <pt x="127" y="127" on="1"/>
        <pt x="127" y="51" on="0"/>
        <pt x="200" y="51" on="1"/>
        <pt x="226" y="51" on="0"/>
        <pt x="289" y="73" on="0"/>
        <pt x="318" y="88" on="1"/>
        <pt x="318" y="234" on="1"/>
        <pt x="214" y="217" on="1"/>
      </contour>
    </TTGlyph>
    <TTGlyph name="aringacute" xMin="40" yMin="-11" xMax="491" yMax="860">
      <component glyphName=".ttfautohint" x="40" y="0" flags="0x0"/>
      <component glyphName="a" x="0" y="0" flags="0x0"/>
      <component glyphName="uni030A" x="376" y="-120" flags="0x4"/>
      <component glyphName="acutecomb" x="432" y="61" flags="0x4"/>
    </TTGlyph>
    <TTGlyph name="arrowdown" xMin="67" yMin="29" xMax="489" yMax="491">
      <contour>
        <pt x="94" y="347" on="1"/>
        <pt x="251" y="174" on="1"/>
        <pt x="238" y="491" on="1"/>
        <pt x="330" y="491" on="1"/>
        <pt x="317" y="174" on="1"/>
        <pt x="462" y="347" on="1"/>
        <pt x="489" y="319" on="1"/>
        <pt x="291" y="29" on="1"/>
        <pt x="278" y="29" on="1"/>
        <pt x="67" y="319" on="1"/>
      </contour>
    </TTGlyph>
    <TTGlyph name="arrowleft" xMin="47" yMin="49" xMax="509" yMax="471">
      <contour>
        <pt x="509" y="313" on="1"/>
        <pt x="509" y="220" on="1"/>
        <pt x="192" y="233" on="1"/>
        <pt x="364" y="77" on="1"/>
        <pt x="337" y="49" on="1"/>
        <pt x="47" y="260" on="1"/>
        <pt x="47" y="273" on="1"/>
        <pt x="337" y="471" on="1"/>
        <pt x="364" y="444" on="1"/>
        <pt x="192" y="299" on="1"/>
      </contour>
    </TTGlyph>
    <TTGlyph name="arrowright" xMin="47" yMin="49" xMax="509" yMax="471">
      <contour>
        <pt x="191" y="77" on="1"/>
        <pt x="363" y="233" on="1"/>
        <pt x="47" y="220" on="1"/>
        <pt x="47" y="313" on="1"/>
        <pt x="363" y="299" on="1"/>
        <pt x="191" y="444" on="1"/>
        <pt x="219" y="471" on="1"/>
        <pt x="509" y="273" on="1"/>
        <pt x="509" y="260" on="1"/>
        <pt x="219" y="49" on="1"/>
      </contour>
    </TTGlyph>
    <TTGlyph name="arrowup" xMin="67" yMin="29" xMax="489" yMax="491">
      <contour>
        <pt x="461" y="173" on="1"/>
        <pt x="304" y="346" on="1"/>
        <pt x="318" y="29" on="1"/>
        <pt x="224" y="29" on="1"/>
        <pt x="239" y="346" on="1"/>
        <pt x="93" y="173" on="1"/>
        <pt x="67" y="201" on="1"/>
        <pt x="264" y="491" on="1"/>
        <pt x="278" y="491" on="1"/>
        <pt x="489" y="201" on="1"/>
      </contour>
    </TTGlyph>
    <TTGlyph name="asciicircum" xMin="50" yMin="252" xMax="460" yMax="610">
      <contour>
        <pt x="227" y="610" on="1"/>
        <pt x="284" y="610" on="1"/>
        <pt x="460" y="252" on="1"/>
        <pt x="391" y="252" on="1"/>
        <pt x="256" y="532" on="1"/>
        <pt x="119" y="252" on="1"/>
        <pt x="50" y="252" on="1"/>
      </contour>
    </TTGlyph>
    <TTGlyph name="asciitilde" xMin="53" yMin="228" xMax="454" yMax="344">
      <contour>
        <pt x="139" y="283" on="0"/>
        <pt x="102" y="258" on="0"/>
        <pt x="83" y="228" on="1"/>
        <pt x="53" y="248" on="1"/>
        <pt x="100" y="342" on="0"/>
        <pt x="166" y="342" on="1"/>
        <pt x="186" y="342" on="0"/>
        <pt x="225" y="329" on="0"/>
        <pt x="254" y="316" on="1"/>
        <pt x="283" y="303" on="0"/>
        <pt x="322" y="290" on="0"/>
        <pt x="341" y="290" on="1"/>
        <pt x="368" y="290" on="0"/>
        <pt x="403" y="314" on="0"/>
        <pt x="422" y="344" on="1"/>
        <pt x="454" y="324" on="1"/>
        <pt x="402" y="230" on="0"/>
        <pt x="337" y="230" on="1"/>
        <pt x="320" y="230" on="0"/>
        <pt x="282" y="243" on="0"/>
        <pt x="250" y="256" on="1"/>
        <pt x="192" y="283" on="0"/>
        <pt x="162" y="283" on="1"/>
      </contour>
    </TTGlyph>
    <TTGlyph name="asterisk" xMin="8" yMin="431" xMax="329" yMax="738">
      <contour>
        <pt x="44" y="477" on="1"/>
        <pt x="132" y="567" on="1"/>
        <pt x="130" y="572" on="1"/>
        <pt x="8" y="591" on="1"/>
        <pt x="31" y="667" on="1"/>
        <pt x="143" y="612" on="1"/>
        <pt x="149" y="613" on="1"/>
        <pt x="130" y="738" on="1"/>
        <pt x="207" y="738" on="1"/>
        <pt x="189" y="613" on="1"/>
        <pt x="194" y="610" on="1"/>
        <pt x="306" y="667" on="1"/>
        <pt x="329" y="591" on="1"/>
        <pt x="206" y="572" on="1"/>
        <pt x="204" y="567" on="1"/>
        <pt x="291" y="477" on="1"/>
        <pt x="230" y="431" on="1"/>
        <pt x="171" y="541" on="1"/>
        <pt x="167" y="541" on="1"/>
        <pt x="108" y="431" on="1"/>
      </contour>
    </TTGlyph>
    <TTGlyph name="at" xMin="34" yMin="-83" xMax="690" yMax="558">
      <contour>
        <pt x="110" y="95" on="0"/>
        <pt x="240" y="-38" on="0"/>
        <pt x="356" y="-38" on="1"/>
        <pt x="411" y="-38" on="0"/>
        <pt x="511" y="-17" on="0"/>
        <pt x="577" y="6" on="1"/>
        <pt x="588" y="-25" on="1"/>
        <pt x="526" y="-55" on="0"/>
        <pt x="408" y="-83" on="0"/>
        <pt x="338" y="-83" on="1"/>
        <pt x="234" y="-83" on="0"/>
        <pt x="98" y="6" on="0"/>
        <pt x="34" y="154" on="0"/>
        <pt x="34" y="244" on="1"/>
        <pt x="34" y="327" on="0"/>
        <pt x="102" y="470" on="0"/>
        <pt x="250" y="558" on="0"/>
        <pt x="363" y="558" on="1"/>
        <pt x="543" y="558" on="0"/>
        <pt x="690" y="394" on="0"/>
        <pt x="690" y="272" on="1"/>
        <pt x="690" y="211" on="0"/>
        <pt x="645" y="113" on="0"/>
        <pt x="558" y="56" on="0"/>
        <pt x="499" y="56" on="1"/>
        <pt x="475" y="56" on="0"/>
        <pt x="432" y="77" on="0"/>
        <pt x="428" y="97" on="1"/>
        <pt x="366" y="52" on="0"/>
        <pt x="317" y="52" on="1"/>
        <pt x="275" y="52" on="0"/>
        <pt x="229" y="105" on="0"/>
        <pt x="229" y="142" on="1"/>
        <pt x="229" y="218" on="0"/>
        <pt x="317" y="238" on="1"/>
        <pt x="427" y="263" on="1"/>
        <pt x="427" y="321" on="1"/>
        <pt x="427" y="350" on="0"/>
        <pt x="400" y="379" on="0"/>
        <pt x="367" y="379" on="1"/>
        <pt x="316" y="379" on="0"/>
        <pt x="255" y="358" on="1"/>
        <pt x="243" y="386" on="1"/>
        <pt x="274" y="402" on="0"/>
        <pt x="346" y="422" on="0"/>
        <pt x="381" y="422" on="1"/>
        <pt x="436" y="422" on="0"/>
        <pt x="492" y="385" on="0"/>
        <pt x="492" y="342" on="1"/>
        <pt x="492" y="119" on="1"/>
        <pt x="492" y="110" on="0"/>
        <pt x="509" y="96" on="0"/>
        <pt x="519" y="96" on="1"/>
        <pt x="572" y="96" on="0"/>
        <pt x="616" y="196" on="0"/>
        <pt x="616" y="286" on="1"/>
        <pt x="616" y="350" on="0"/>
        <pt x="564" y="454" on="0"/>
        <pt x="456" y="516" on="0"/>
        <pt x="374" y="516" on="1"/>
        <pt x="236" y="516" on="0"/>
        <pt x="110" y="363" on="0"/>
        <pt x="110" y="238" on="1"/>
      </contour>
      <contour>
        <pt x="322" y="206" on="0"/>
        <pt x="298" y="177" on="0"/>
        <pt x="298" y="152" on="1"/>
        <pt x="298" y="124" on="0"/>
        <pt x="323" y="101" on="0"/>
        <pt x="352" y="101" on="1"/>
        <pt x="370" y="101" on="0"/>
        <pt x="412" y="115" on="0"/>
        <pt x="427" y="124" on="1"/>
        <pt x="427" y="229" on="1"/>
        <pt x="354" y="213" on="1"/>
      </contour>
    </TTGlyph>
    <TTGlyph name="atilde" xMin="40" yMin="-11" xMax="491" yMax="692">
      <contour>
        <pt x="362" y="629" on="0"/>
        <pt x="330" y="582" on="0"/>
        <pt x="308" y="582" on="1"/>
        <pt x="290" y="582" on="0"/>
        <pt x="236" y="602" on="1"/>
        <pt x="182" y="622" on="0"/>
        <pt x="166" y="622" on="1"/>
        <pt x="156" y="622" on="0"/>
        <pt x="136" y="606" on="0"/>
        <pt x="123" y="589" on="0"/>
        <pt x="121" y="586" on="1"/>
        <pt x="91" y="598" on="1"/>
        <pt x="110" y="645" on="0"/>
        <pt x="143" y="692" on="0"/>
        <pt x="165" y="692" on="1"/>
        <pt x="176" y="692" on="0"/>
        <pt x="215" y="680" on="0"/>
        <pt x="235" y="672" on="1"/>
        <pt x="255" y="664" on="0"/>
        <pt x="295" y="652" on="0"/>
        <pt x="307" y="652" on="1"/>
        <pt x="317" y="652" on="0"/>
        <pt x="336" y="668" on="0"/>
        <pt x="349" y="684" on="0"/>
        <pt x="350" y="687" on="1"/>
        <pt x="381" y="675" on="1"/>
      </contour>
      <contour>
        <pt x="180" y="446" on="0"/>
        <pt x="132" y="432" on="1"/>
        <pt x="108" y="346" on="1"/>
        <pt x="78" y="346" on="1"/>
        <pt x="61" y="463" on="1"/>
        <pt x="160" y="500" on="0"/>
        <pt x="249" y="500" on="1"/>
        <pt x="323" y="500" on="0"/>
        <pt x="401" y="450" on="0"/>
        <pt x="401" y="391" on="1"/>
        <pt x="401" y="58" on="1"/>
        <pt x="491" y="40" on="1"/>
        <pt x="491" y="12" on="1"/>
        <pt x="439" y="-4" on="0"/>
        <pt x="386" y="-4" on="1"/>
        <pt x="361" y="-4" on="0"/>
        <pt x="325" y="24" on="0"/>
        <pt x="320" y="51" on="1"/>
        <pt x="235" y="-11" on="0"/>
        <pt x="147" y="-11" on="1"/>
        <pt x="97" y="-11" on="0"/>
        <pt x="40" y="63" on="0"/>
        <pt x="40" y="112" on="1"/>
        <pt x="40" y="228" on="0"/>
        <pt x="167" y="251" on="1"/>
        <pt x="318" y="278" on="1"/>
        <pt x="318" y="362" on="1"/>
        <pt x="318" y="404" on="0"/>
        <pt x="280" y="446" on="0"/>
        <pt x="231" y="446" on="1"/>
      </contour>
      <contour>
        <pt x="167" y="209" on="0"/>
        <pt x="127" y="161" on="0"/>
        <pt x="127" y="127" on="1"/>
        <pt x="127" y="51" on="0"/>
        <pt x="200" y="51" on="1"/>
        <pt x="226" y="51" on="0"/>
        <pt x="289" y="73" on="0"/>
        <pt x="318" y="88" on="1"/>
        <pt x="318" y="234" on="1"/>
        <pt x="214" y="217" on="1"/>
      </contour>
    </TTGlyph>
</ttFont>
